<svg xmlns="http://www.w3.org/2000/svg" width="20" height="20" viewBox="0 0 20 20" fill="none">
  <path d="M9.16666 5.83329H10.8333V7.49996H9.16666V5.83329ZM9.16666 9.16663H10.8333V14.1666H9.16666V9.16663ZM9.99999 1.66663C5.39999 1.66663 1.66666 5.39996 1.66666 9.99996C1.66666 14.6 5.39999 18.3333 9.99999 18.3333C14.6 18.3333 18.3333 14.6 18.3333 9.99996C18.3333 5.39996 14.6 1.66663 9.99999 1.66663ZM9.99999 16.6666C6.32499 16.6666 3.33332 13.675 3.33332 9.99996C3.33332 6.32496 6.32499 3.33329 9.99999 3.33329C13.675 3.33329 16.6667 6.32496 16.6667 9.99996C16.6667 13.675 13.675 16.6666 9.99999 16.6666Z" fill="#323232"/>
</svg>