<svg width="543" height="auto" viewBox="0 0 543 731" fill="none" xmlns="http://www.w3.org/2000/svg">
<path d="M0 24C0 10.7452 10.7452 0 24 0H543V731H24C10.7452 731 0 720.255 0 707V24Z" fill="#081D21"/>
<rect x="187" y="64" width="171" height="56" rx="16" fill="white" fill-opacity="0.06"/>
<rect x="213.5" y="76" width="32" height="32" rx="16" fill="#E5F0FF"/>
<path d="M231.65 97.4508L223.875 95.2258V86.8008H226.225L232.6 89.2008C233.05 89.3674 233.429 89.6383 233.738 90.0133C234.046 90.3883 234.2 90.9258 234.2 91.6258H232.6C231.783 91.6258 231.188 91.6008 230.812 91.5508C230.438 91.5008 230.042 91.4091 229.625 91.2758L227.8 90.6758L227.55 91.3758L229.425 92.0258C229.808 92.1591 230.238 92.2508 230.713 92.3008C231.188 92.3508 231.675 92.3758 232.175 92.3758H237.05C238 92.3758 238.646 92.5591 238.988 92.9258C239.329 93.2924 239.5 93.7841 239.5 94.4008V95.0508L231.65 97.4508ZM218.5 96.6508V86.8008H222.35V96.6508H218.5Z" fill="#0F2E35"/>
<path d="M262.778 97.5V85.8636H267.04C267.866 85.8636 268.549 86 269.091 86.2727C269.633 86.5417 270.038 86.9072 270.307 87.3693C270.576 87.8277 270.71 88.3447 270.71 88.9205C270.71 89.4053 270.621 89.8144 270.443 90.1477C270.265 90.4773 270.027 90.7424 269.727 90.9432C269.432 91.1402 269.106 91.2841 268.75 91.375V91.4886C269.136 91.5076 269.513 91.6326 269.881 91.8636C270.252 92.0909 270.559 92.4148 270.801 92.8352C271.044 93.2557 271.165 93.767 271.165 94.3693C271.165 94.964 271.025 95.4981 270.744 95.9716C270.468 96.4413 270.04 96.8144 269.46 97.0909C268.881 97.3636 268.14 97.5 267.239 97.5H262.778ZM264.534 95.9943H267.068C267.909 95.9943 268.511 95.8314 268.875 95.5057C269.239 95.1799 269.42 94.7727 269.42 94.2841C269.42 93.9167 269.328 93.5795 269.142 93.2727C268.956 92.9659 268.691 92.7216 268.347 92.5398C268.006 92.358 267.6 92.267 267.131 92.267H264.534V95.9943ZM264.534 90.8977H266.886C267.28 90.8977 267.634 90.822 267.949 90.6705C268.267 90.5189 268.519 90.3068 268.705 90.0341C268.894 89.7576 268.989 89.4318 268.989 89.0568C268.989 88.5758 268.82 88.1723 268.483 87.8466C268.146 87.5208 267.629 87.358 266.932 87.358H264.534V90.8977ZM276.787 97.6761C275.969 97.6761 275.255 97.4886 274.645 97.1136C274.035 96.7386 273.562 96.214 273.224 95.5398C272.887 94.8655 272.719 94.0777 272.719 93.1761C272.719 92.2708 272.887 91.4792 273.224 90.8011C273.562 90.1231 274.035 89.5966 274.645 89.2216C275.255 88.8466 275.969 88.6591 276.787 88.6591C277.605 88.6591 278.319 88.8466 278.929 89.2216C279.539 89.5966 280.012 90.1231 280.349 90.8011C280.687 91.4792 280.855 92.2708 280.855 93.1761C280.855 94.0777 280.687 94.8655 280.349 95.5398C280.012 96.214 279.539 96.7386 278.929 97.1136C278.319 97.4886 277.605 97.6761 276.787 97.6761ZM276.793 96.25C277.323 96.25 277.762 96.1098 278.111 95.8295C278.459 95.5492 278.717 95.1761 278.884 94.7102C279.054 94.2443 279.139 93.7311 279.139 93.1705C279.139 92.6136 279.054 92.1023 278.884 91.6364C278.717 91.1667 278.459 90.7898 278.111 90.5057C277.762 90.2216 277.323 90.0795 276.793 90.0795C276.259 90.0795 275.815 90.2216 275.463 90.5057C275.115 90.7898 274.855 91.1667 274.685 91.6364C274.518 92.1023 274.435 92.6136 274.435 93.1705C274.435 93.7311 274.518 94.2443 274.685 94.7102C274.855 95.1761 275.115 95.5492 275.463 95.8295C275.815 96.1098 276.259 96.25 276.793 96.25ZM282.751 97.5V88.7727H284.393V90.1591H284.484C284.643 89.6894 284.924 89.3201 285.325 89.0511C285.731 88.7784 286.189 88.642 286.7 88.642C286.806 88.642 286.931 88.6458 287.075 88.6534C287.223 88.661 287.339 88.6705 287.422 88.6818V90.3068C287.354 90.2879 287.232 90.267 287.058 90.2443C286.884 90.2178 286.71 90.2045 286.536 90.2045C286.134 90.2045 285.776 90.2898 285.462 90.4602C285.151 90.6269 284.905 90.8598 284.723 91.1591C284.541 91.4545 284.45 91.7917 284.45 92.1705V97.5H282.751ZM288.892 97.5V88.7727H290.534V90.1591H290.625C290.784 89.6894 291.064 89.3201 291.466 89.0511C291.871 88.7784 292.33 88.642 292.841 88.642C292.947 88.642 293.072 88.6458 293.216 88.6534C293.364 88.661 293.479 88.6705 293.562 88.6818V90.3068C293.494 90.2879 293.373 90.267 293.199 90.2443C293.025 90.2178 292.85 90.2045 292.676 90.2045C292.275 90.2045 291.917 90.2898 291.602 90.4602C291.292 90.6269 291.045 90.8598 290.864 91.1591C290.682 91.4545 290.591 91.7917 290.591 92.1705V97.5H288.892ZM298.396 97.6761C297.578 97.6761 296.864 97.4886 296.254 97.1136C295.644 96.7386 295.171 96.214 294.834 95.5398C294.497 94.8655 294.328 94.0777 294.328 93.1761C294.328 92.2708 294.497 91.4792 294.834 90.8011C295.171 90.1231 295.644 89.5966 296.254 89.2216C296.864 88.8466 297.578 88.6591 298.396 88.6591C299.214 88.6591 299.929 88.8466 300.538 89.2216C301.148 89.5966 301.622 90.1231 301.959 90.8011C302.296 91.4792 302.464 92.2708 302.464 93.1761C302.464 94.0777 302.296 94.8655 301.959 95.5398C301.622 96.214 301.148 96.7386 300.538 97.1136C299.929 97.4886 299.214 97.6761 298.396 97.6761ZM298.402 96.25C298.932 96.25 299.372 96.1098 299.72 95.8295C300.069 95.5492 300.326 95.1761 300.493 94.7102C300.663 94.2443 300.749 93.7311 300.749 93.1705C300.749 92.6136 300.663 92.1023 300.493 91.6364C300.326 91.1667 300.069 90.7898 299.72 90.5057C299.372 90.2216 298.932 90.0795 298.402 90.0795C297.868 90.0795 297.425 90.2216 297.072 90.5057C296.724 90.7898 296.464 91.1667 296.294 91.6364C296.127 92.1023 296.044 92.6136 296.044 93.1705C296.044 93.7311 296.127 94.2443 296.294 94.7102C296.464 95.1761 296.724 95.5492 297.072 95.8295C297.425 96.1098 297.868 96.25 298.402 96.25ZM305.987 97.5L303.419 88.7727H305.175L306.885 95.1818H306.97L308.686 88.7727H310.442L312.146 95.1534H312.232L313.93 88.7727H315.686L313.124 97.5H311.391L309.618 91.1989H309.487L307.714 97.5H305.987ZM320.794 97.6761C319.934 97.6761 319.194 97.4924 318.572 97.125C317.955 96.7538 317.478 96.233 317.141 95.5625C316.807 94.8883 316.641 94.0985 316.641 93.1932C316.641 92.2992 316.807 91.5114 317.141 90.8295C317.478 90.1477 317.947 89.6155 318.55 89.233C319.156 88.8504 319.864 88.6591 320.675 88.6591C321.167 88.6591 321.644 88.7405 322.107 88.9034C322.569 89.0663 322.983 89.322 323.351 89.6705C323.718 90.0189 324.008 90.4716 324.22 91.0284C324.432 91.5814 324.538 92.2538 324.538 93.0455V93.6477H317.601V92.375H322.874C322.874 91.928 322.783 91.5322 322.601 91.1875C322.419 90.839 322.163 90.5644 321.834 90.3636C321.508 90.1629 321.125 90.0625 320.686 90.0625C320.209 90.0625 319.792 90.1799 319.436 90.4148C319.084 90.6458 318.811 90.9489 318.618 91.3239C318.429 91.6951 318.334 92.0985 318.334 92.5341V93.5284C318.334 94.1117 318.436 94.608 318.641 95.017C318.849 95.4261 319.139 95.7386 319.51 95.9545C319.881 96.1667 320.315 96.2727 320.811 96.2727C321.133 96.2727 321.427 96.2273 321.692 96.1364C321.957 96.0417 322.186 95.9015 322.379 95.7159C322.572 95.5303 322.72 95.3011 322.822 95.0284L324.43 95.3182C324.302 95.7917 324.071 96.2064 323.737 96.5625C323.408 96.9148 322.993 97.1894 322.493 97.3864C321.997 97.5795 321.43 97.6761 320.794 97.6761ZM326.423 97.5V88.7727H328.065V90.1591H328.156C328.315 89.6894 328.596 89.3201 328.997 89.0511C329.402 88.7784 329.861 88.642 330.372 88.642C330.478 88.642 330.603 88.6458 330.747 88.6534C330.895 88.661 331.01 88.6705 331.094 88.6818V90.3068C331.026 90.2879 330.904 90.267 330.73 90.2443C330.556 90.2178 330.382 90.2045 330.207 90.2045C329.806 90.2045 329.448 90.2898 329.134 90.4602C328.823 90.6269 328.577 90.8598 328.395 91.1591C328.213 91.4545 328.122 91.7917 328.122 92.1705V97.5H326.423Z" fill="#F8F1FE"/>
<rect x="186.5" y="290" width="171" height="56" rx="16" fill="white" fill-opacity="0.06"/>
<rect x="198.5" y="302" width="32" height="32" rx="16" fill="#E5F0FF"/>
<path d="M208.5 326C207.4 326 206.458 325.608 205.675 324.825C204.892 324.042 204.5 323.1 204.5 322V314C204.5 312.9 204.892 311.958 205.675 311.175C206.458 310.392 207.4 310 208.5 310H220.5C221.6 310 222.542 310.392 223.325 311.175C224.108 311.958 224.5 312.9 224.5 314V322C224.5 323.1 224.108 324.042 223.325 324.825C222.542 325.608 221.6 326 220.5 326H208.5ZM208.5 314.25H220.5C220.983 314.25 221.438 314.325 221.863 314.475C222.288 314.625 222.667 314.842 223 315.125V314C223 313.3 222.758 312.708 222.275 312.225C221.792 311.742 221.2 311.5 220.5 311.5H208.5C207.8 311.5 207.208 311.742 206.725 312.225C206.242 312.708 206 313.3 206 314V315.125C206.333 314.842 206.713 314.625 207.138 314.475C207.562 314.325 208.017 314.25 208.5 314.25ZM206.075 317.65L218 320.525C218.117 320.558 218.238 320.562 218.363 320.538C218.488 320.512 218.592 320.458 218.675 320.375L222.675 317.025C222.458 316.642 222.158 316.333 221.775 316.1C221.392 315.867 220.967 315.75 220.5 315.75H208.5C207.917 315.75 207.4 315.929 206.95 316.287C206.5 316.646 206.208 317.1 206.075 317.65Z" fill="#0F2E35"/>
<path d="M247.778 323.5V311.864H251.926C252.828 311.864 253.576 312.019 254.17 312.33C254.769 312.64 255.216 313.07 255.511 313.619C255.807 314.165 255.955 314.795 255.955 315.511C255.955 316.223 255.805 316.85 255.506 317.392C255.21 317.93 254.763 318.348 254.165 318.648C253.57 318.947 252.822 319.097 251.92 319.097H248.778V317.585H251.761C252.33 317.585 252.792 317.504 253.148 317.341C253.508 317.178 253.771 316.941 253.938 316.631C254.104 316.32 254.188 315.947 254.188 315.511C254.188 315.072 254.102 314.691 253.932 314.369C253.765 314.047 253.502 313.801 253.142 313.631C252.786 313.456 252.318 313.369 251.739 313.369H249.534V323.5H247.778ZM253.523 318.25L256.398 323.5H254.398L251.58 318.25H253.523ZM261.521 323.676C260.703 323.676 259.989 323.489 259.379 323.114C258.769 322.739 258.296 322.214 257.959 321.54C257.622 320.866 257.453 320.078 257.453 319.176C257.453 318.271 257.622 317.479 257.959 316.801C258.296 316.123 258.769 315.597 259.379 315.222C259.989 314.847 260.703 314.659 261.521 314.659C262.339 314.659 263.054 314.847 263.663 315.222C264.273 315.597 264.747 316.123 265.084 316.801C265.421 317.479 265.589 318.271 265.589 319.176C265.589 320.078 265.421 320.866 265.084 321.54C264.747 322.214 264.273 322.739 263.663 323.114C263.054 323.489 262.339 323.676 261.521 323.676ZM261.527 322.25C262.057 322.25 262.497 322.11 262.845 321.83C263.194 321.549 263.451 321.176 263.618 320.71C263.788 320.244 263.874 319.731 263.874 319.17C263.874 318.614 263.788 318.102 263.618 317.636C263.451 317.167 263.194 316.79 262.845 316.506C262.497 316.222 262.057 316.08 261.527 316.08C260.993 316.08 260.55 316.222 260.197 316.506C259.849 316.79 259.589 317.167 259.419 317.636C259.252 318.102 259.169 318.614 259.169 319.17C259.169 319.731 259.252 320.244 259.419 320.71C259.589 321.176 259.849 321.549 260.197 321.83C260.55 322.11 260.993 322.25 261.527 322.25ZM271.162 323.676C270.317 323.676 269.59 323.485 268.98 323.102C268.374 322.716 267.908 322.184 267.582 321.506C267.257 320.828 267.094 320.051 267.094 319.176C267.094 318.29 267.26 317.508 267.594 316.83C267.927 316.148 268.397 315.616 269.003 315.233C269.609 314.85 270.323 314.659 271.145 314.659C271.808 314.659 272.399 314.782 272.918 315.028C273.437 315.271 273.855 315.612 274.173 316.051C274.495 316.491 274.687 317.004 274.747 317.591H273.094C273.003 317.182 272.795 316.83 272.469 316.534C272.147 316.239 271.715 316.091 271.173 316.091C270.7 316.091 270.285 316.216 269.929 316.466C269.577 316.712 269.302 317.064 269.105 317.523C268.908 317.977 268.81 318.515 268.81 319.136C268.81 319.773 268.906 320.322 269.099 320.784C269.293 321.246 269.565 321.604 269.918 321.858C270.274 322.112 270.692 322.239 271.173 322.239C271.495 322.239 271.787 322.18 272.048 322.062C272.313 321.941 272.535 321.769 272.713 321.545C272.895 321.322 273.022 321.053 273.094 320.739H274.747C274.687 321.303 274.503 321.807 274.196 322.25C273.889 322.693 273.478 323.042 272.963 323.295C272.452 323.549 271.851 323.676 271.162 323.676ZM278.126 320.54L278.115 318.466H278.411L281.888 314.773H283.922L279.956 318.977H279.689L278.126 320.54ZM276.564 323.5V311.864H278.263V323.5H276.564ZM282.075 323.5L278.95 319.352L280.121 318.165L284.161 323.5H282.075ZM288.787 323.676C287.969 323.676 287.255 323.489 286.645 323.114C286.035 322.739 285.562 322.214 285.224 321.54C284.887 320.866 284.719 320.078 284.719 319.176C284.719 318.271 284.887 317.479 285.224 316.801C285.562 316.123 286.035 315.597 286.645 315.222C287.255 314.847 287.969 314.659 288.787 314.659C289.605 314.659 290.319 314.847 290.929 315.222C291.539 315.597 292.012 316.123 292.349 316.801C292.687 317.479 292.855 318.271 292.855 319.176C292.855 320.078 292.687 320.866 292.349 321.54C292.012 322.214 291.539 322.739 290.929 323.114C290.319 323.489 289.605 323.676 288.787 323.676ZM288.793 322.25C289.323 322.25 289.762 322.11 290.111 321.83C290.459 321.549 290.717 321.176 290.884 320.71C291.054 320.244 291.139 319.731 291.139 319.17C291.139 318.614 291.054 318.102 290.884 317.636C290.717 317.167 290.459 316.79 290.111 316.506C289.762 316.222 289.323 316.08 288.793 316.08C288.259 316.08 287.815 316.222 287.463 316.506C287.115 316.79 286.855 317.167 286.685 317.636C286.518 318.102 286.435 318.614 286.435 319.17C286.435 319.731 286.518 320.244 286.685 320.71C286.855 321.176 287.115 321.549 287.463 321.83C287.815 322.11 288.259 322.25 288.793 322.25ZM301.401 323.5L298.173 311.864H300.02L302.287 320.875H302.395L304.753 311.864H306.582L308.94 320.881H309.048L311.31 311.864H313.162L309.929 323.5H308.162L305.713 314.784H305.622L303.173 323.5H301.401ZM316.307 323.693C315.754 323.693 315.254 323.591 314.807 323.386C314.36 323.178 314.006 322.877 313.744 322.483C313.487 322.089 313.358 321.606 313.358 321.034C313.358 320.542 313.453 320.136 313.642 319.818C313.831 319.5 314.087 319.248 314.409 319.062C314.731 318.877 315.091 318.737 315.489 318.642C315.886 318.547 316.292 318.475 316.705 318.426C317.227 318.366 317.652 318.316 317.977 318.278C318.303 318.237 318.54 318.17 318.688 318.08C318.835 317.989 318.909 317.841 318.909 317.636V317.597C318.909 317.1 318.769 316.716 318.489 316.443C318.212 316.17 317.799 316.034 317.25 316.034C316.678 316.034 316.227 316.161 315.898 316.415C315.572 316.665 315.347 316.943 315.222 317.25L313.625 316.886C313.814 316.356 314.091 315.928 314.455 315.602C314.822 315.273 315.244 315.034 315.722 314.886C316.199 314.735 316.701 314.659 317.227 314.659C317.576 314.659 317.945 314.701 318.335 314.784C318.729 314.864 319.097 315.011 319.438 315.227C319.782 315.443 320.064 315.752 320.284 316.153C320.504 316.551 320.614 317.068 320.614 317.705V323.5H318.955V322.307H318.886C318.777 322.527 318.612 322.742 318.392 322.955C318.172 323.167 317.89 323.343 317.545 323.483C317.201 323.623 316.788 323.693 316.307 323.693ZM316.676 322.33C317.146 322.33 317.547 322.237 317.881 322.051C318.218 321.866 318.473 321.623 318.648 321.324C318.826 321.021 318.915 320.697 318.915 320.352V319.227C318.854 319.288 318.737 319.345 318.562 319.398C318.392 319.447 318.197 319.491 317.977 319.528C317.758 319.562 317.544 319.595 317.335 319.625C317.127 319.652 316.953 319.674 316.812 319.693C316.483 319.735 316.182 319.805 315.909 319.903C315.64 320.002 315.424 320.144 315.261 320.33C315.102 320.511 315.023 320.754 315.023 321.057C315.023 321.477 315.178 321.795 315.489 322.011C315.799 322.223 316.195 322.33 316.676 322.33ZM324.575 311.864V323.5H322.876V311.864H324.575ZM328.56 311.864V323.5H326.861V311.864H328.56ZM334.607 323.676C333.747 323.676 333.006 323.492 332.385 323.125C331.768 322.754 331.29 322.233 330.953 321.562C330.62 320.888 330.453 320.098 330.453 319.193C330.453 318.299 330.62 317.511 330.953 316.83C331.29 316.148 331.76 315.616 332.362 315.233C332.968 314.85 333.677 314.659 334.487 314.659C334.98 314.659 335.457 314.741 335.919 314.903C336.381 315.066 336.796 315.322 337.163 315.67C337.531 316.019 337.821 316.472 338.033 317.028C338.245 317.581 338.351 318.254 338.351 319.045V319.648H331.413V318.375H336.686C336.686 317.928 336.595 317.532 336.413 317.188C336.232 316.839 335.976 316.564 335.646 316.364C335.321 316.163 334.938 316.062 334.499 316.062C334.021 316.062 333.605 316.18 333.249 316.415C332.896 316.646 332.624 316.949 332.43 317.324C332.241 317.695 332.146 318.098 332.146 318.534V319.528C332.146 320.112 332.249 320.608 332.453 321.017C332.661 321.426 332.951 321.739 333.322 321.955C333.694 322.167 334.127 322.273 334.624 322.273C334.946 322.273 335.239 322.227 335.504 322.136C335.769 322.042 335.999 321.902 336.192 321.716C336.385 321.53 336.533 321.301 336.635 321.028L338.243 321.318C338.114 321.792 337.883 322.206 337.55 322.562C337.22 322.915 336.805 323.189 336.305 323.386C335.809 323.58 335.243 323.676 334.607 323.676ZM344.31 314.773V316.136H339.543V314.773H344.31ZM340.821 312.682H342.52V320.938C342.52 321.267 342.569 321.515 342.668 321.682C342.766 321.845 342.893 321.956 343.048 322.017C343.207 322.074 343.38 322.102 343.565 322.102C343.702 322.102 343.821 322.093 343.923 322.074C344.026 322.055 344.105 322.04 344.162 322.028L344.469 323.432C344.37 323.47 344.23 323.508 344.048 323.545C343.866 323.587 343.639 323.61 343.366 323.614C342.92 323.621 342.503 323.542 342.116 323.375C341.73 323.208 341.418 322.951 341.179 322.602C340.94 322.254 340.821 321.816 340.821 321.29V312.682Z" fill="#F8F1FE"/>
<rect x="112" y="420" width="319" height="257" rx="15" stroke="#1C373C" stroke-width="2" stroke-dasharray="8 8"/>
<g opacity="0.8">
<path d="M270 547.302V531.852L256.5 524.052V539.502L270 547.302ZM273 547.302L286.5 539.502V524.002L273 531.843V547.302ZM271.5 529.302L284.8 521.552L271.5 513.852L258.15 521.552L271.5 529.302ZM255 542.102C254.525 541.821 254.156 541.45 253.894 540.991C253.631 540.531 253.5 540.035 253.5 539.502V522.502C253.5 521.968 253.631 521.472 253.894 521.012C254.156 520.553 254.525 520.182 255 519.902L270 511.252C270.478 510.985 270.98 510.852 271.508 510.852C272.036 510.852 272.533 510.985 273 511.252L288 519.902C288.475 520.182 288.844 520.553 289.106 521.012C289.369 521.472 289.5 521.968 289.5 522.502V539.502C289.5 540.035 289.369 540.531 289.106 540.991C288.844 541.45 288.475 541.821 288 542.102L273 550.752C272.522 551.018 272.02 551.152 271.492 551.152C270.964 551.152 270.467 551.018 270 550.752L255 542.102Z" fill="white"/>
<path d="M270 483.302V467.852L256.5 460.052V475.502L270 483.302ZM273 483.302L286.5 475.502V460.002L273 467.843V483.302ZM271.5 465.302L284.8 457.552L271.5 449.852L258.15 457.552L271.5 465.302ZM255 478.102C254.525 477.821 254.156 477.45 253.894 476.991C253.631 476.531 253.5 476.035 253.5 475.502V458.502C253.5 457.968 253.631 457.472 253.894 457.012C254.156 456.553 254.525 456.182 255 455.902L270 447.252C270.478 446.985 270.98 446.852 271.508 446.852C272.036 446.852 272.533 446.985 273 447.252L288 455.902C288.475 456.182 288.844 456.553 289.106 457.012C289.369 457.472 289.5 457.968 289.5 458.502V475.502C289.5 476.035 289.369 476.531 289.106 476.991C288.844 477.45 288.475 477.821 288 478.102L273 486.752C272.522 487.018 272.02 487.152 271.492 487.152C270.964 487.152 270.467 487.018 270 486.752L255 478.102Z" fill="white"/>
<line x1="279.761" y1="471.573" x2="317.708" y2="494.764" stroke="white" stroke-dasharray="1 1"/>
<line x1="215.761" y1="503.573" x2="253.708" y2="526.764" stroke="white" stroke-dasharray="1 1"/>
<line x1="215.761" y1="566.573" x2="253.708" y2="589.764" stroke="white" stroke-dasharray="1 1"/>
<line x1="289.25" y1="526.801" x2="327.764" y2="504.565" stroke="white" stroke-dasharray="1 1"/>
<line x1="289.25" y1="590.801" x2="327.764" y2="568.565" stroke="white" stroke-dasharray="1 1"/>
<line x1="207" y1="519" x2="207" y2="545" stroke="white" stroke-dasharray="1 1"/>
<path d="M334 515.302V499.852L320.5 492.052V507.502L334 515.302ZM337 515.302L350.5 507.502V492.002L337 499.843V515.302ZM335.5 497.302L348.8 489.552L335.5 481.852L322.15 489.552L335.5 497.302ZM319 510.102C318.525 509.821 318.156 509.45 317.894 508.991C317.631 508.531 317.5 508.035 317.5 507.502V490.502C317.5 489.968 317.631 489.472 317.894 489.012C318.156 488.553 318.525 488.182 319 487.902L334 479.252C334.478 478.985 334.98 478.852 335.508 478.852C336.036 478.852 336.533 478.985 337 479.252L352 487.902C352.475 488.182 352.844 488.553 353.106 489.012C353.369 489.472 353.5 489.968 353.5 490.502V507.502C353.5 508.035 353.369 508.531 353.106 508.991C352.844 509.45 352.475 509.821 352 510.102L337 518.752C336.522 519.018 336.02 519.152 335.492 519.152C334.964 519.152 334.467 519.018 334 518.752L319 510.102Z" fill="white"/>
<path d="M334 579.302V563.852L320.5 556.052V571.502L334 579.302ZM337 579.302L350.5 571.502V556.002L337 563.843V579.302ZM335.5 561.302L348.8 553.552L335.5 545.852L322.15 553.552L335.5 561.302ZM319 574.102C318.525 573.821 318.156 573.45 317.894 572.991C317.631 572.531 317.5 572.035 317.5 571.502V554.502C317.5 553.968 317.631 553.472 317.894 553.012C318.156 552.553 318.525 552.182 319 551.902L334 543.252C334.478 542.985 334.98 542.852 335.508 542.852C336.036 542.852 336.533 542.985 337 543.252L352 551.902C352.475 552.182 352.844 552.553 353.106 553.012C353.369 553.472 353.5 553.968 353.5 554.502V571.502C353.5 572.035 353.369 572.531 353.106 572.991C352.844 573.45 352.475 573.821 352 574.102L337 582.752C336.522 583.018 336.02 583.152 335.492 583.152C334.964 583.152 334.467 583.018 334 582.752L319 574.102Z" fill="white"/>
<path d="M206 579.302V563.852L192.5 556.052V571.502L206 579.302ZM209 579.302L222.5 571.502V556.002L209 563.843V579.302ZM207.5 561.302L220.8 553.552L207.5 545.852L194.15 553.552L207.5 561.302ZM191 574.102C190.525 573.821 190.156 573.45 189.894 572.991C189.631 572.531 189.5 572.035 189.5 571.502V554.502C189.5 553.968 189.631 553.472 189.894 553.012C190.156 552.553 190.525 552.182 191 551.902L206 543.252C206.478 542.985 206.98 542.852 207.508 542.852C208.036 542.852 208.533 542.985 209 543.252L224 551.902C224.475 552.182 224.844 552.553 225.106 553.012C225.369 553.472 225.5 553.968 225.5 554.502V571.502C225.5 572.035 225.369 572.531 225.106 572.991C224.844 573.45 224.475 573.821 224 574.102L209 582.752C208.522 583.018 208.02 583.152 207.492 583.152C206.964 583.152 206.467 583.018 206 582.752L191 574.102Z" fill="white"/>
<path d="M206 515.302V499.852L192.5 492.052V507.502L206 515.302ZM209 515.302L222.5 507.502V492.002L209 499.843V515.302ZM207.5 497.302L220.8 489.552L207.5 481.852L194.15 489.552L207.5 497.302ZM191 510.102C190.525 509.821 190.156 509.45 189.894 508.991C189.631 508.531 189.5 508.035 189.5 507.502V490.502C189.5 489.968 189.631 489.472 189.894 489.012C190.156 488.553 190.525 488.182 191 487.902L206 479.252C206.478 478.985 206.98 478.852 207.508 478.852C208.036 478.852 208.533 478.985 209 479.252L224 487.902C224.475 488.182 224.844 488.553 225.106 489.012C225.369 489.472 225.5 489.968 225.5 490.502V507.502C225.5 508.035 225.369 508.531 225.106 508.991C224.844 509.45 224.475 509.821 224 510.102L209 518.752C208.522 519.018 208.02 519.152 207.492 519.152C206.964 519.152 206.467 519.018 206 518.752L191 510.102Z" fill="white"/>
<path d="M270 611.302V595.852L256.5 588.052V603.502L270 611.302ZM273 611.302L286.5 603.502V588.002L273 595.843V611.302ZM271.5 593.302L284.8 585.552L271.5 577.852L258.15 585.552L271.5 593.302ZM255 606.102C254.525 605.821 254.156 605.45 253.894 604.991C253.631 604.531 253.5 604.035 253.5 603.502V586.502C253.5 585.968 253.631 585.472 253.894 585.012C254.156 584.553 254.525 584.182 255 583.902L270 575.252C270.478 574.985 270.98 574.852 271.508 574.852C272.036 574.852 272.533 574.985 273 575.252L288 583.902C288.475 584.182 288.844 584.553 289.106 585.012C289.369 585.472 289.5 585.968 289.5 586.502V603.502C289.5 604.035 289.369 604.531 289.106 604.991C288.844 605.45 288.475 605.821 288 606.102L273 614.752C272.522 615.018 272.02 615.152 271.492 615.152C270.964 615.152 270.467 615.018 270 614.752L255 606.102Z" fill="white"/>
</g>
<path d="M173.443 642.148H171.67C171.602 641.769 171.475 641.436 171.29 641.148C171.104 640.86 170.877 640.616 170.608 640.415C170.339 640.214 170.038 640.062 169.705 639.96C169.375 639.858 169.025 639.807 168.653 639.807C167.983 639.807 167.383 639.975 166.852 640.312C166.326 640.65 165.909 641.144 165.602 641.795C165.299 642.447 165.148 643.242 165.148 644.182C165.148 645.129 165.299 645.928 165.602 646.58C165.909 647.231 166.328 647.723 166.858 648.057C167.388 648.39 167.985 648.557 168.648 648.557C169.015 648.557 169.364 648.508 169.693 648.409C170.027 648.307 170.328 648.157 170.597 647.96C170.866 647.763 171.093 647.523 171.278 647.239C171.468 646.951 171.598 646.621 171.67 646.25L173.443 646.256C173.348 646.828 173.165 647.354 172.892 647.835C172.623 648.312 172.277 648.725 171.852 649.074C171.432 649.419 170.951 649.686 170.409 649.875C169.867 650.064 169.277 650.159 168.636 650.159C167.629 650.159 166.731 649.92 165.943 649.443C165.155 648.962 164.534 648.275 164.08 647.381C163.629 646.487 163.403 645.42 163.403 644.182C163.403 642.939 163.631 641.873 164.085 640.983C164.54 640.089 165.161 639.403 165.949 638.926C166.737 638.445 167.633 638.205 168.636 638.205C169.254 638.205 169.83 638.294 170.364 638.472C170.902 638.646 171.384 638.903 171.812 639.244C172.241 639.581 172.595 639.994 172.875 640.483C173.155 640.968 173.345 641.523 173.443 642.148ZM179.084 650.176C178.266 650.176 177.552 649.989 176.942 649.614C176.332 649.239 175.858 648.714 175.521 648.04C175.184 647.366 175.016 646.578 175.016 645.676C175.016 644.771 175.184 643.979 175.521 643.301C175.858 642.623 176.332 642.097 176.942 641.722C177.552 641.347 178.266 641.159 179.084 641.159C179.902 641.159 180.616 641.347 181.226 641.722C181.836 642.097 182.309 642.623 182.646 643.301C182.983 643.979 183.152 644.771 183.152 645.676C183.152 646.578 182.983 647.366 182.646 648.04C182.309 648.714 181.836 649.239 181.226 649.614C180.616 649.989 179.902 650.176 179.084 650.176ZM179.089 648.75C179.62 648.75 180.059 648.61 180.408 648.33C180.756 648.049 181.014 647.676 181.18 647.21C181.351 646.744 181.436 646.231 181.436 645.67C181.436 645.114 181.351 644.602 181.18 644.136C181.014 643.667 180.756 643.29 180.408 643.006C180.059 642.722 179.62 642.58 179.089 642.58C178.555 642.58 178.112 642.722 177.76 643.006C177.411 643.29 177.152 643.667 176.982 644.136C176.815 644.602 176.732 645.114 176.732 645.67C176.732 646.231 176.815 646.744 176.982 647.21C177.152 647.676 177.411 648.049 177.76 648.33C178.112 648.61 178.555 648.75 179.089 648.75ZM185.048 650V641.273H186.679V642.693H186.787C186.969 642.212 187.266 641.837 187.679 641.568C188.092 641.295 188.586 641.159 189.162 641.159C189.745 641.159 190.234 641.295 190.628 641.568C191.026 641.841 191.319 642.216 191.509 642.693H191.599C191.808 642.227 192.139 641.856 192.594 641.58C193.048 641.299 193.59 641.159 194.219 641.159C195.01 641.159 195.656 641.407 196.156 641.903C196.66 642.4 196.912 643.148 196.912 644.148V650H195.213V644.307C195.213 643.716 195.052 643.288 194.73 643.023C194.408 642.758 194.024 642.625 193.577 642.625C193.024 642.625 192.594 642.795 192.287 643.136C191.98 643.473 191.827 643.907 191.827 644.438V650H190.134V644.199C190.134 643.725 189.986 643.345 189.69 643.057C189.395 642.769 189.01 642.625 188.537 642.625C188.215 642.625 187.918 642.71 187.645 642.881C187.376 643.047 187.158 643.28 186.991 643.58C186.829 643.879 186.747 644.225 186.747 644.619V650H185.048ZM199.189 653.273V641.273H200.848V642.688H200.99C201.089 642.506 201.231 642.295 201.416 642.057C201.602 641.818 201.859 641.61 202.189 641.432C202.518 641.25 202.954 641.159 203.496 641.159C204.2 641.159 204.829 641.337 205.382 641.693C205.935 642.049 206.369 642.562 206.683 643.233C207.001 643.903 207.161 644.71 207.161 645.653C207.161 646.597 207.003 647.405 206.689 648.08C206.375 648.75 205.943 649.267 205.393 649.631C204.844 649.991 204.217 650.17 203.513 650.17C202.982 650.17 202.549 650.081 202.212 649.903C201.878 649.725 201.617 649.517 201.428 649.278C201.238 649.04 201.092 648.828 200.99 648.642H200.888V653.273H199.189ZM200.854 645.636C200.854 646.25 200.943 646.788 201.121 647.25C201.299 647.712 201.556 648.074 201.893 648.335C202.231 648.593 202.643 648.722 203.132 648.722C203.64 648.722 204.064 648.587 204.405 648.318C204.746 648.045 205.003 647.676 205.178 647.21C205.356 646.744 205.445 646.22 205.445 645.636C205.445 645.061 205.357 644.544 205.183 644.085C205.013 643.627 204.755 643.265 204.411 643C204.07 642.735 203.643 642.602 203.132 642.602C202.64 642.602 202.223 642.729 201.882 642.983C201.545 643.237 201.289 643.591 201.115 644.045C200.941 644.5 200.854 645.03 200.854 645.636ZM212.74 650.176C211.922 650.176 211.208 649.989 210.598 649.614C209.988 649.239 209.515 648.714 209.178 648.04C208.84 647.366 208.672 646.578 208.672 645.676C208.672 644.771 208.84 643.979 209.178 643.301C209.515 642.623 209.988 642.097 210.598 641.722C211.208 641.347 211.922 641.159 212.74 641.159C213.558 641.159 214.272 641.347 214.882 641.722C215.492 642.097 215.965 642.623 216.303 643.301C216.64 643.979 216.808 644.771 216.808 645.676C216.808 646.578 216.64 647.366 216.303 648.04C215.965 648.714 215.492 649.239 214.882 649.614C214.272 649.989 213.558 650.176 212.74 650.176ZM212.746 648.75C213.276 648.75 213.715 648.61 214.064 648.33C214.412 648.049 214.67 647.676 214.837 647.21C215.007 646.744 215.092 646.231 215.092 645.67C215.092 645.114 215.007 644.602 214.837 644.136C214.67 643.667 214.412 643.29 214.064 643.006C213.715 642.722 213.276 642.58 212.746 642.58C212.212 642.58 211.768 642.722 211.416 643.006C211.068 643.29 210.808 643.667 210.638 644.136C210.471 644.602 210.388 645.114 210.388 645.67C210.388 646.231 210.471 646.744 210.638 647.21C210.808 647.676 211.068 648.049 211.416 648.33C211.768 648.61 212.212 648.75 212.746 648.75ZM224.233 646.381V641.273H225.938V650H224.267V648.489H224.176C223.975 648.955 223.653 649.343 223.21 649.653C222.771 649.96 222.223 650.114 221.568 650.114C221.008 650.114 220.511 649.991 220.08 649.744C219.652 649.494 219.314 649.125 219.068 648.636C218.826 648.148 218.705 647.544 218.705 646.824V641.273H220.403V646.619C220.403 647.214 220.568 647.687 220.898 648.04C221.227 648.392 221.655 648.568 222.182 648.568C222.5 648.568 222.816 648.489 223.131 648.33C223.449 648.17 223.712 647.93 223.92 647.608C224.133 647.286 224.237 646.877 224.233 646.381ZM229.919 644.818V650H228.22V641.273H229.851V642.693H229.959C230.16 642.231 230.474 641.86 230.902 641.58C231.334 641.299 231.877 641.159 232.533 641.159C233.127 641.159 233.648 641.284 234.095 641.534C234.542 641.78 234.889 642.148 235.135 642.636C235.381 643.125 235.504 643.729 235.504 644.449V650H233.805V644.653C233.805 644.021 233.641 643.527 233.311 643.17C232.982 642.811 232.529 642.631 231.953 642.631C231.559 642.631 231.209 642.716 230.902 642.886C230.599 643.057 230.358 643.307 230.18 643.636C230.006 643.962 229.919 644.356 229.919 644.818ZM241.05 650.17C240.345 650.17 239.716 649.991 239.163 649.631C238.614 649.267 238.182 648.75 237.868 648.08C237.557 647.405 237.402 646.597 237.402 645.653C237.402 644.71 237.559 643.903 237.874 643.233C238.192 642.562 238.627 642.049 239.18 641.693C239.733 641.337 240.36 641.159 241.061 641.159C241.603 641.159 242.038 641.25 242.368 641.432C242.701 641.61 242.959 641.818 243.141 642.057C243.326 642.295 243.47 642.506 243.572 642.688H243.675V638.364H245.374V650H243.714V648.642H243.572C243.47 648.828 243.322 649.04 243.129 649.278C242.94 649.517 242.679 649.725 242.345 649.903C242.012 650.081 241.58 650.17 241.05 650.17ZM241.425 648.722C241.913 648.722 242.326 648.593 242.663 648.335C243.004 648.074 243.262 647.712 243.436 647.25C243.614 646.788 243.703 646.25 243.703 645.636C243.703 645.03 243.616 644.5 243.442 644.045C243.268 643.591 243.012 643.237 242.675 642.983C242.338 642.729 241.921 642.602 241.425 642.602C240.913 642.602 240.487 642.735 240.146 643C239.805 643.265 239.548 643.627 239.374 644.085C239.203 644.544 239.118 645.061 239.118 645.636C239.118 646.22 239.205 646.744 239.379 647.21C239.554 647.676 239.811 648.045 240.152 648.318C240.497 648.587 240.921 648.722 241.425 648.722ZM252.169 650V638.364H253.925V648.489H259.197V650H252.169ZM264.825 650.176C263.965 650.176 263.225 649.992 262.604 649.625C261.986 649.254 261.509 648.733 261.172 648.062C260.839 647.388 260.672 646.598 260.672 645.693C260.672 644.799 260.839 644.011 261.172 643.33C261.509 642.648 261.979 642.116 262.581 641.733C263.187 641.35 263.895 641.159 264.706 641.159C265.198 641.159 265.676 641.241 266.138 641.403C266.6 641.566 267.015 641.822 267.382 642.17C267.75 642.519 268.039 642.972 268.251 643.528C268.464 644.081 268.57 644.754 268.57 645.545V646.148H261.632V644.875H266.905C266.905 644.428 266.814 644.032 266.632 643.688C266.45 643.339 266.195 643.064 265.865 642.864C265.539 642.663 265.157 642.562 264.717 642.562C264.24 642.562 263.823 642.68 263.467 642.915C263.115 643.146 262.842 643.449 262.649 643.824C262.46 644.195 262.365 644.598 262.365 645.034V646.028C262.365 646.612 262.467 647.108 262.672 647.517C262.88 647.926 263.17 648.239 263.541 648.455C263.912 648.667 264.346 648.773 264.842 648.773C265.164 648.773 265.458 648.727 265.723 648.636C265.988 648.542 266.217 648.402 266.411 648.216C266.604 648.03 266.751 647.801 266.854 647.528L268.462 647.818C268.333 648.292 268.102 648.706 267.768 649.062C267.439 649.415 267.024 649.689 266.524 649.886C266.028 650.08 265.462 650.176 264.825 650.176ZM272.153 644.818V650H270.455V641.273H272.085V642.693H272.193C272.394 642.231 272.708 641.86 273.136 641.58C273.568 641.299 274.112 641.159 274.767 641.159C275.362 641.159 275.883 641.284 276.33 641.534C276.777 641.78 277.123 642.148 277.369 642.636C277.616 643.125 277.739 643.729 277.739 644.449V650H276.04V644.653C276.04 644.021 275.875 643.527 275.545 643.17C275.216 642.811 274.763 642.631 274.188 642.631C273.794 642.631 273.443 642.716 273.136 642.886C272.833 643.057 272.593 643.307 272.415 643.636C272.241 643.962 272.153 644.356 272.153 644.818ZM283.284 650.17C282.58 650.17 281.951 649.991 281.398 649.631C280.848 649.267 280.417 648.75 280.102 648.08C279.792 647.405 279.636 646.597 279.636 645.653C279.636 644.71 279.794 643.903 280.108 643.233C280.426 642.562 280.862 642.049 281.415 641.693C281.968 641.337 282.595 641.159 283.295 641.159C283.837 641.159 284.273 641.25 284.602 641.432C284.936 641.61 285.193 641.818 285.375 642.057C285.561 642.295 285.705 642.506 285.807 642.688H285.909V638.364H287.608V650H285.949V648.642H285.807C285.705 648.828 285.557 649.04 285.364 649.278C285.174 649.517 284.913 649.725 284.58 649.903C284.246 650.081 283.814 650.17 283.284 650.17ZM283.659 648.722C284.148 648.722 284.561 648.593 284.898 648.335C285.239 648.074 285.496 647.712 285.67 647.25C285.848 646.788 285.938 646.25 285.938 645.636C285.938 645.03 285.85 644.5 285.676 644.045C285.502 643.591 285.246 643.237 284.909 642.983C284.572 642.729 284.155 642.602 283.659 642.602C283.148 642.602 282.722 642.735 282.381 643C282.04 643.265 281.782 643.627 281.608 644.085C281.438 644.544 281.352 645.061 281.352 645.636C281.352 646.22 281.439 646.744 281.614 647.21C281.788 647.676 282.045 648.045 282.386 648.318C282.731 648.587 283.155 648.722 283.659 648.722ZM290.033 650V641.273H291.732V650H290.033ZM290.891 639.926C290.595 639.926 290.341 639.828 290.129 639.631C289.921 639.43 289.817 639.191 289.817 638.915C289.817 638.634 289.921 638.396 290.129 638.199C290.341 637.998 290.595 637.898 290.891 637.898C291.186 637.898 291.438 637.998 291.646 638.199C291.858 638.396 291.964 638.634 291.964 638.915C291.964 639.191 291.858 639.43 291.646 639.631C291.438 639.828 291.186 639.926 290.891 639.926ZM295.716 644.818V650H294.017V641.273H295.648V642.693H295.756C295.956 642.231 296.271 641.86 296.699 641.58C297.131 641.299 297.674 641.159 298.33 641.159C298.924 641.159 299.445 641.284 299.892 641.534C300.339 641.78 300.686 642.148 300.932 642.636C301.178 643.125 301.301 643.729 301.301 644.449V650H299.602V644.653C299.602 644.021 299.438 643.527 299.108 643.17C298.778 642.811 298.326 642.631 297.75 642.631C297.356 642.631 297.006 642.716 296.699 642.886C296.396 643.057 296.155 643.307 295.977 643.636C295.803 643.962 295.716 644.356 295.716 644.818ZM307.239 653.455C306.545 653.455 305.949 653.364 305.449 653.182C304.953 653 304.547 652.759 304.233 652.46C303.919 652.161 303.684 651.833 303.528 651.477L304.989 650.875C305.091 651.042 305.227 651.218 305.398 651.403C305.572 651.593 305.807 651.754 306.102 651.886C306.402 652.019 306.786 652.085 307.256 652.085C307.9 652.085 308.432 651.928 308.852 651.614C309.273 651.303 309.483 650.807 309.483 650.125V648.409H309.375C309.273 648.595 309.125 648.801 308.932 649.028C308.742 649.256 308.481 649.453 308.148 649.619C307.814 649.786 307.381 649.869 306.847 649.869C306.157 649.869 305.536 649.708 304.983 649.386C304.434 649.061 303.998 648.581 303.676 647.949C303.358 647.312 303.199 646.53 303.199 645.602C303.199 644.674 303.356 643.879 303.67 643.216C303.989 642.553 304.424 642.045 304.977 641.693C305.53 641.337 306.157 641.159 306.858 641.159C307.4 641.159 307.837 641.25 308.17 641.432C308.504 641.61 308.763 641.818 308.949 642.057C309.138 642.295 309.284 642.506 309.386 642.688H309.511V641.273H311.176V650.193C311.176 650.943 311.002 651.559 310.653 652.04C310.305 652.521 309.833 652.877 309.239 653.108C308.648 653.339 307.981 653.455 307.239 653.455ZM307.222 648.46C307.71 648.46 308.123 648.347 308.46 648.119C308.801 647.888 309.059 647.559 309.233 647.131C309.411 646.699 309.5 646.182 309.5 645.58C309.5 644.992 309.413 644.475 309.239 644.028C309.064 643.581 308.809 643.233 308.472 642.983C308.134 642.729 307.718 642.602 307.222 642.602C306.71 642.602 306.284 642.735 305.943 643C305.602 643.261 305.345 643.617 305.17 644.068C305 644.519 304.915 645.023 304.915 645.58C304.915 646.152 305.002 646.653 305.176 647.085C305.35 647.517 305.608 647.854 305.949 648.097C306.294 648.339 306.718 648.46 307.222 648.46ZM317.825 650V638.364H321.973C322.878 638.364 323.628 638.528 324.223 638.858C324.818 639.187 325.263 639.638 325.558 640.21C325.854 640.778 326.001 641.419 326.001 642.131C326.001 642.847 325.852 643.491 325.553 644.062C325.257 644.631 324.81 645.081 324.212 645.415C323.617 645.744 322.869 645.909 321.967 645.909H319.115V644.42H321.808C322.38 644.42 322.844 644.322 323.2 644.125C323.556 643.924 323.818 643.652 323.984 643.307C324.151 642.962 324.234 642.57 324.234 642.131C324.234 641.691 324.151 641.301 323.984 640.96C323.818 640.619 323.554 640.352 323.195 640.159C322.839 639.966 322.369 639.869 321.786 639.869H319.581V650H317.825ZM327.923 650V641.273H329.565V642.659H329.656C329.815 642.189 330.096 641.82 330.497 641.551C330.902 641.278 331.361 641.142 331.872 641.142C331.978 641.142 332.103 641.146 332.247 641.153C332.395 641.161 332.51 641.17 332.594 641.182V642.807C332.526 642.788 332.404 642.767 332.23 642.744C332.056 642.718 331.882 642.705 331.707 642.705C331.306 642.705 330.948 642.79 330.634 642.96C330.323 643.127 330.077 643.36 329.895 643.659C329.713 643.955 329.622 644.292 329.622 644.67V650H327.923ZM337.428 650.176C336.609 650.176 335.895 649.989 335.286 649.614C334.676 649.239 334.202 648.714 333.865 648.04C333.528 647.366 333.359 646.578 333.359 645.676C333.359 644.771 333.528 643.979 333.865 643.301C334.202 642.623 334.676 642.097 335.286 641.722C335.895 641.347 336.609 641.159 337.428 641.159C338.246 641.159 338.96 641.347 339.57 641.722C340.179 642.097 340.653 642.623 340.99 643.301C341.327 643.979 341.496 644.771 341.496 645.676C341.496 646.578 341.327 647.366 340.99 648.04C340.653 648.714 340.179 649.239 339.57 649.614C338.96 649.989 338.246 650.176 337.428 650.176ZM337.433 648.75C337.964 648.75 338.403 648.61 338.751 648.33C339.1 648.049 339.357 647.676 339.524 647.21C339.695 646.744 339.78 646.231 339.78 645.67C339.78 645.114 339.695 644.602 339.524 644.136C339.357 643.667 339.1 643.29 338.751 643.006C338.403 642.722 337.964 642.58 337.433 642.58C336.899 642.58 336.456 642.722 336.104 643.006C335.755 643.29 335.496 643.667 335.325 644.136C335.159 644.602 335.075 645.114 335.075 645.67C335.075 646.231 335.159 646.744 335.325 647.21C335.496 647.676 335.755 648.049 336.104 648.33C336.456 648.61 336.899 648.75 337.433 648.75ZM347.466 641.273V642.636H342.699V641.273H347.466ZM343.977 639.182H345.676V647.438C345.676 647.767 345.725 648.015 345.824 648.182C345.922 648.345 346.049 648.456 346.205 648.517C346.364 648.574 346.536 648.602 346.722 648.602C346.858 648.602 346.977 648.593 347.08 648.574C347.182 648.555 347.261 648.54 347.318 648.528L347.625 649.932C347.527 649.97 347.386 650.008 347.205 650.045C347.023 650.087 346.795 650.11 346.523 650.114C346.076 650.121 345.659 650.042 345.273 649.875C344.886 649.708 344.574 649.451 344.335 649.102C344.097 648.754 343.977 648.316 343.977 647.79V639.182ZM352.928 650.176C352.109 650.176 351.395 649.989 350.786 649.614C350.176 649.239 349.702 648.714 349.365 648.04C349.028 647.366 348.859 646.578 348.859 645.676C348.859 644.771 349.028 643.979 349.365 643.301C349.702 642.623 350.176 642.097 350.786 641.722C351.395 641.347 352.109 641.159 352.928 641.159C353.746 641.159 354.46 641.347 355.07 641.722C355.679 642.097 356.153 642.623 356.49 643.301C356.827 643.979 356.996 644.771 356.996 645.676C356.996 646.578 356.827 647.366 356.49 648.04C356.153 648.714 355.679 649.239 355.07 649.614C354.46 649.989 353.746 650.176 352.928 650.176ZM352.933 648.75C353.464 648.75 353.903 648.61 354.251 648.33C354.6 648.049 354.857 647.676 355.024 647.21C355.195 646.744 355.28 646.231 355.28 645.67C355.28 645.114 355.195 644.602 355.024 644.136C354.857 643.667 354.6 643.29 354.251 643.006C353.903 642.722 353.464 642.58 352.933 642.58C352.399 642.58 351.956 642.722 351.604 643.006C351.255 643.29 350.996 643.667 350.825 644.136C350.659 644.602 350.575 645.114 350.575 645.67C350.575 646.231 350.659 646.744 350.825 647.21C350.996 647.676 351.255 648.049 351.604 648.33C351.956 648.61 352.399 648.75 352.933 648.75ZM362.568 650.176C361.723 650.176 360.996 649.985 360.386 649.602C359.78 649.216 359.314 648.684 358.989 648.006C358.663 647.328 358.5 646.551 358.5 645.676C358.5 644.79 358.667 644.008 359 643.33C359.333 642.648 359.803 642.116 360.409 641.733C361.015 641.35 361.729 641.159 362.551 641.159C363.214 641.159 363.805 641.282 364.324 641.528C364.843 641.771 365.261 642.112 365.58 642.551C365.902 642.991 366.093 643.504 366.153 644.091H364.5C364.409 643.682 364.201 643.33 363.875 643.034C363.553 642.739 363.121 642.591 362.58 642.591C362.106 642.591 361.691 642.716 361.335 642.966C360.983 643.212 360.708 643.564 360.511 644.023C360.314 644.477 360.216 645.015 360.216 645.636C360.216 646.273 360.313 646.822 360.506 647.284C360.699 647.746 360.972 648.104 361.324 648.358C361.68 648.612 362.098 648.739 362.58 648.739C362.902 648.739 363.193 648.68 363.455 648.562C363.72 648.441 363.941 648.269 364.119 648.045C364.301 647.822 364.428 647.553 364.5 647.239H366.153C366.093 647.803 365.909 648.307 365.602 648.75C365.295 649.193 364.884 649.542 364.369 649.795C363.858 650.049 363.258 650.176 362.568 650.176ZM371.646 650.176C370.828 650.176 370.114 649.989 369.504 649.614C368.894 649.239 368.421 648.714 368.084 648.04C367.747 647.366 367.578 646.578 367.578 645.676C367.578 644.771 367.747 643.979 368.084 643.301C368.421 642.623 368.894 642.097 369.504 641.722C370.114 641.347 370.828 641.159 371.646 641.159C372.464 641.159 373.179 641.347 373.788 641.722C374.398 642.097 374.872 642.623 375.209 643.301C375.546 643.979 375.714 644.771 375.714 645.676C375.714 646.578 375.546 647.366 375.209 648.04C374.872 648.714 374.398 649.239 373.788 649.614C373.179 649.989 372.464 650.176 371.646 650.176ZM371.652 648.75C372.182 648.75 372.622 648.61 372.97 648.33C373.319 648.049 373.576 647.676 373.743 647.21C373.913 646.744 373.999 646.231 373.999 645.67C373.999 645.114 373.913 644.602 373.743 644.136C373.576 643.667 373.319 643.29 372.97 643.006C372.622 642.722 372.182 642.58 371.652 642.58C371.118 642.58 370.675 642.722 370.322 643.006C369.974 643.29 369.714 643.667 369.544 644.136C369.377 644.602 369.294 645.114 369.294 645.67C369.294 646.231 369.377 646.744 369.544 647.21C369.714 647.676 369.974 648.049 370.322 648.33C370.675 648.61 371.118 648.75 371.652 648.75ZM379.31 638.364V650H377.611V638.364H379.31Z" fill="#F8F1FE"/>
<path d="M272.47 411.53C272.763 411.823 273.237 411.823 273.53 411.53L278.303 406.757C278.596 406.464 278.596 405.99 278.303 405.697C278.01 405.404 277.536 405.404 277.243 405.697L273 409.939L268.757 405.697C268.464 405.404 267.99 405.404 267.697 405.697C267.404 405.99 267.404 406.464 267.697 406.757L272.47 411.53ZM273.53 352.47C273.237 352.177 272.763 352.177 272.47 352.47L267.697 357.243C267.404 357.536 267.404 358.01 267.697 358.303C267.99 358.596 268.464 358.596 268.757 358.303L273 354.061L277.243 358.303C277.536 358.596 278.01 358.596 278.303 358.303C278.596 358.01 278.596 357.536 278.303 357.243L273.53 352.47ZM273.75 411L273.75 353L272.25 353L272.25 411L273.75 411Z" fill="#3E5559"/>
<path d="M183.53 90.5303C183.823 90.2374 183.823 89.7626 183.53 89.4697L178.757 84.6967C178.464 84.4038 177.989 84.4038 177.696 84.6967C177.404 84.9896 177.404 85.4645 177.696 85.7574L181.939 90L177.696 94.2426C177.404 94.5355 177.404 95.0104 177.696 95.3033C177.989 95.5962 178.464 95.5962 178.757 95.3033L183.53 90.5303ZM67 199.468L66.25 199.468L67 199.468ZM183 89.25C104.976 89.25 66.25 154.306 66.25 199.468L67.75 199.468C67.75 154.96 105.968 90.75 183 90.75L183 89.25ZM66.25 199.468C66.25 239.249 80.1647 269.586 101.751 289.976C123.329 310.357 152.521 320.75 183 320.75L183 319.25C152.856 319.25 124.048 308.972 102.781 288.885C81.5238 268.806 67.75 238.878 67.75 199.468L66.25 199.468Z" fill="#006AFF" fill-opacity="0.3"/>
<path d="M361.47 319.47C361.177 319.763 361.177 320.237 361.47 320.53L366.243 325.303C366.536 325.596 367.011 325.596 367.304 325.303C367.596 325.01 367.596 324.536 367.304 324.243L363.061 320L367.304 315.757C367.596 315.464 367.596 314.99 367.304 314.697C367.011 314.404 366.536 314.404 366.243 314.697L361.47 319.47ZM478 210.532L478.75 210.532L478 210.532ZM362 320.75C440.024 320.75 478.75 255.694 478.75 210.532L477.25 210.532C477.25 255.04 439.032 319.25 362 319.25L362 320.75ZM478.75 210.532C478.75 170.751 464.835 140.414 443.249 120.024C421.671 99.6431 392.479 89.25 362 89.25L362 90.75C392.144 90.75 420.952 101.028 442.219 121.115C463.476 141.194 477.25 171.122 477.25 210.532L478.75 210.532Z" fill="#7C704F" fill-opacity="0.5"/>
<rect x="20" y="190" width="94" height="32" rx="5" fill="#006AFF"/>
<path d="M51.4588 210V201.273H52.7756V208.866H56.7301V210H51.4588ZM65.4734 205.636C65.4734 206.568 65.3029 207.369 64.962 208.04C64.6211 208.707 64.1538 209.222 63.56 209.582C62.9691 209.94 62.2972 210.119 61.5444 210.119C60.7887 210.119 60.114 209.94 59.5202 209.582C58.9293 209.222 58.4634 208.706 58.1225 208.036C57.7816 207.365 57.6112 206.565 57.6112 205.636C57.6112 204.705 57.7816 203.905 58.1225 203.237C58.4634 202.567 58.9293 202.053 59.5202 201.695C60.114 201.334 60.7887 201.153 61.5444 201.153C62.2972 201.153 62.9691 201.334 63.56 201.695C64.1538 202.053 64.6211 202.567 64.962 203.237C65.3029 203.905 65.4734 204.705 65.4734 205.636ZM64.1694 205.636C64.1694 204.926 64.0543 204.328 63.8242 203.842C63.5969 203.354 63.2844 202.984 62.8867 202.734C62.4918 202.482 62.0444 202.355 61.5444 202.355C61.0415 202.355 60.5927 202.482 60.1978 202.734C59.8029 202.984 59.4904 203.354 59.2603 203.842C59.033 204.328 58.9194 204.926 58.9194 205.636C58.9194 206.347 59.033 206.946 59.2603 207.435C59.4904 207.92 59.8029 208.29 60.1978 208.543C60.5927 208.793 61.0415 208.918 61.5444 208.918C62.0444 208.918 62.4918 208.793 62.8867 208.543C63.2844 208.29 63.5969 207.92 63.8242 207.435C64.0543 206.946 64.1694 206.347 64.1694 205.636ZM67.4187 210H66.021L69.1616 201.273H70.6829L73.8235 210H72.4258L69.9585 202.858H69.8903L67.4187 210ZM67.6531 206.582H72.1871V207.69H67.6531V206.582ZM82.1278 201.273V210H80.9176L76.4815 203.599H76.4006V210H75.0838V201.273H76.3026L80.7429 207.682H80.8239V201.273H82.1278Z" fill="white"/>
<rect x="427" y="189" width="94" height="32" rx="5" fill="#7C704F"/>
<path d="M443.207 203.111H441.878C441.827 202.827 441.732 202.577 441.592 202.361C441.453 202.145 441.283 201.962 441.081 201.811C440.879 201.661 440.653 201.547 440.403 201.47C440.156 201.393 439.893 201.355 439.615 201.355C439.112 201.355 438.662 201.482 438.264 201.734C437.869 201.987 437.557 202.358 437.327 202.847C437.099 203.335 436.986 203.932 436.986 204.636C436.986 205.347 437.099 205.946 437.327 206.435C437.557 206.923 437.871 207.293 438.268 207.543C438.666 207.793 439.114 207.918 439.611 207.918C439.886 207.918 440.148 207.881 440.395 207.807C440.645 207.73 440.871 207.618 441.072 207.47C441.274 207.322 441.445 207.142 441.584 206.929C441.726 206.713 441.824 206.466 441.878 206.188L443.207 206.192C443.136 206.621 442.999 207.016 442.794 207.376C442.592 207.734 442.332 208.044 442.014 208.305C441.699 208.564 441.338 208.764 440.932 208.906C440.526 209.048 440.082 209.119 439.602 209.119C438.847 209.119 438.173 208.94 437.582 208.582C436.991 208.222 436.526 207.706 436.185 207.036C435.847 206.365 435.678 205.565 435.678 204.636C435.678 203.705 435.848 202.905 436.189 202.237C436.53 201.567 436.996 201.053 437.587 200.695C438.178 200.334 438.849 200.153 439.602 200.153C440.065 200.153 440.497 200.22 440.898 200.354C441.301 200.484 441.663 200.678 441.984 200.933C442.305 201.186 442.571 201.496 442.781 201.862C442.991 202.226 443.134 202.642 443.207 203.111ZM452.364 204.636C452.364 205.568 452.194 206.369 451.853 207.04C451.512 207.707 451.044 208.222 450.451 208.582C449.86 208.94 449.188 209.119 448.435 209.119C447.679 209.119 447.005 208.94 446.411 208.582C445.82 208.222 445.354 207.706 445.013 207.036C444.672 206.365 444.502 205.565 444.502 204.636C444.502 203.705 444.672 202.905 445.013 202.237C445.354 201.567 445.82 201.053 446.411 200.695C447.005 200.334 447.679 200.153 448.435 200.153C449.188 200.153 449.86 200.334 450.451 200.695C451.044 201.053 451.512 201.567 451.853 202.237C452.194 202.905 452.364 203.705 452.364 204.636ZM451.06 204.636C451.06 203.926 450.945 203.328 450.715 202.842C450.488 202.354 450.175 201.984 449.777 201.734C449.382 201.482 448.935 201.355 448.435 201.355C447.932 201.355 447.483 201.482 447.088 201.734C446.694 201.984 446.381 202.354 446.151 202.842C445.924 203.328 445.81 203.926 445.81 204.636C445.81 205.347 445.924 205.946 446.151 206.435C446.381 206.92 446.694 207.29 447.088 207.543C447.483 207.793 447.932 207.918 448.435 207.918C448.935 207.918 449.382 207.793 449.777 207.543C450.175 207.29 450.488 206.92 450.715 206.435C450.945 205.946 451.06 205.347 451.06 204.636ZM454.006 209V200.273H455.322V207.866H459.277V209H454.006ZM460.779 209V200.273H462.096V207.866H466.05V209H460.779ZM468.735 209H467.337L470.478 200.273H471.999L475.14 209H473.742L471.275 201.858H471.207L468.735 209ZM468.969 205.582H473.504V206.69H468.969V205.582ZM474.939 201.406V200.273H481.693V201.406H478.97V209H477.657V201.406H474.939ZM483.185 209V200.273H488.657V201.406H484.502V204.065H488.371V205.195H484.502V207.866H488.708V209H483.185ZM490.416 209V200.273H493.527C494.203 200.273 494.764 200.389 495.21 200.622C495.659 200.855 495.994 201.178 496.216 201.589C496.437 201.999 496.548 202.472 496.548 203.009C496.548 203.543 496.436 204.013 496.211 204.419C495.99 204.822 495.654 205.136 495.206 205.361C494.76 205.585 494.199 205.697 493.522 205.697H491.166V204.564H493.403C493.829 204.564 494.176 204.503 494.443 204.381C494.713 204.259 494.91 204.081 495.035 203.848C495.16 203.615 495.223 203.335 495.223 203.009C495.223 202.679 495.159 202.393 495.031 202.152C494.906 201.911 494.708 201.726 494.439 201.598C494.172 201.467 493.821 201.402 493.386 201.402H491.733V209H490.416ZM494.724 205.062L496.88 209H495.38L493.267 205.062H494.724ZM498.887 209H497.49L500.63 200.273H502.152L505.292 209H503.895L501.427 201.858H501.359L498.887 209ZM499.122 205.582H503.656V206.69H499.122V205.582ZM506.553 209V200.273H507.869V207.866H511.824V209H506.553Z" fill="white"/>
</svg>
