<svg width="80" height="80" viewBox="0 0 80 80" fill="none" xmlns="http://www.w3.org/2000/svg">
<rect width="80" height="80" rx="40" fill="#010304"/>
<path fill-rule="evenodd" clip-rule="evenodd" d="M46.1366 20C39.0831 20.0413 33.1747 25.3563 32.3824 32.3727C25.0593 33.148 19.6256 39.529 20.0202 46.8902C20.4148 54.2514 26.4994 60.0136 33.8634 60C40.9169 59.9587 46.8253 54.6437 47.6176 47.6273C54.9407 46.852 60.3744 40.471 59.9798 33.1098C59.5852 25.7486 53.5006 19.9864 46.1366 20ZM56.7393 35.4219C56.0286 40.0908 52.3674 43.7546 47.7031 44.4645V35.4219H56.7393ZM23.2656 44.5823C23.9763 39.9151 27.6361 36.2528 32.2986 35.543V44.5823H23.2656ZM44.4568 47.7109C43.685 52.9739 39.1749 56.8744 33.8612 56.8744C28.5475 56.8744 24.0374 52.9739 23.2656 47.7109H44.4568ZM44.5796 35.4219V44.5797H35.4219V35.4219H44.5796ZM56.7366 32.2923H35.5391C36.3108 27.0294 40.8209 23.1289 46.1346 23.1289C51.4483 23.1289 55.9584 27.0294 56.7302 32.2923H56.7366Z" fill="#26DDF9"/>
</svg>
