<svg width="40" height="40" viewBox="0 0 40 40" fill="none" xmlns="http://www.w3.org/2000/svg">
<rect width="40" height="40" rx="20" fill="#0052FE"/>
<path d="M35 18.5C34.3522 14.8042 33 11.0741 29.1429 8.10856C26.1684 5.82153 22.4447 4.73235 18.7065 5.0559C14.9684 5.37945 11.4872 7.09224 8.94986 9.85635C6.41249 12.6205 5.0032 16.2351 5.00001 19.9873C4.99681 23.7394 6.39996 27.3565 8.93262 30.1249C11.4653 32.8933 14.9435 34.612 18.6811 34.9419C22.4187 35.2718 26.1442 34.189 29.1227 31.907C33.5 29 34.3459 25.0363 35 21.3417H27.5779C27.2423 23.2372 26.2085 24.9382 24.6804 26.1089C23.1523 27.2797 21.2409 27.8352 19.3233 27.666C17.4058 27.4967 15.6213 26.6149 14.3219 25.1946C13.0225 23.7743 12.3026 21.9185 12.3043 19.9935C12.3059 18.0685 13.0289 16.2139 14.3307 14.7958C15.6325 13.3777 17.4185 12.4989 19.3364 12.333C21.2542 12.167 23.1647 12.7258 24.6908 13.8991C26.2169 15.0725 27.2478 16.7752 27.5802 18.6713L35 18.5Z" fill="white"/>
</svg>
