<svg
  xmlns="http://www.w3.org/2000/svg"
  width="20"
  height="20"
  viewBox="0 0 20 20"
  fill="none"
>
  <g clip-path="url(#clip0_942_15860)">
    <path
      d="M9.99974 18.332C10.9164 18.332 11.6664 17.582 11.6664 16.6654H8.33307C8.33307 17.582 9.08307 18.332 9.99974 18.332ZM14.9997 13.332V9.16536C14.9997 6.60703 13.6414 4.46536 11.2497 3.8987V3.33203C11.2497 2.64036 10.6914 2.08203 9.99974 2.08203C9.30807 2.08203 8.74974 2.64036 8.74974 3.33203V3.8987C6.36641 4.46536 4.99974 6.5987 4.99974 9.16536V13.332L3.33307 14.9987V15.832H16.6664V14.9987L14.9997 13.332ZM13.3331 14.1654H6.66641V9.16536C6.66641 7.0987 7.92474 5.41536 9.99974 5.41536C12.0747 5.41536 13.3331 7.0987 13.3331 9.16536V14.1654ZM6.31641 3.3987L5.12474 2.20703C3.12474 3.73203 1.80807 6.08203 1.69141 8.7487H3.35807C3.48307 6.54036 4.61641 4.60703 6.31641 3.3987ZM16.6414 8.7487H18.3081C18.1831 6.08203 16.8664 3.73203 14.8747 2.20703L13.6914 3.3987C15.3747 4.60703 16.5164 6.54036 16.6414 8.7487Z"
      fill="#141414"
    />
  </g>
  <defs>
    <clipPath id="clip0_942_15860">
      <rect width="20" height="20" fill="white" />
    </clipPath>
  </defs>
</svg>
