<svg width="24" height="25" viewBox="0 0 24 25" fill="none" xmlns="http://www.w3.org/2000/svg">
<rect width="24" height="25" fill="#F5F5F5"/>
<g id="Login &#38; Sign Up">
<path d="M-3797 -1234C-3797 -1235.1 -3796.1 -1236 -3795 -1236H1271C1272.1 -1236 1273 -1235.1 1273 -1234V1134C1273 1135.1 1272.1 1136 1271 1136H-3795C-3796.1 1136 -3797 1135.1 -3797 1134V-1234Z" fill="#F1F1F1"/>
<g id="sign up" clip-path="url(#clip0_0_1)">
<rect width="1440" height="1024" transform="translate(-547 -832)" fill="#F6F6F6"/>
<g id="main">
<rect x="-39.5" y="-669.5" width="425" height="731.486" rx="15.5" fill="white"/>
<g id="sso">
<g id="Button">
<g id="google-icon 1" clip-path="url(#clip1_0_1)">
<path id="Vector" d="M24 12.5248C24 11.6926 23.9326 10.8559 23.7886 10.0371H12.2407V14.7516H18.8537C18.5792 16.2722 17.6975 17.6172 16.4064 18.472V21.531H20.3517C22.6685 19.3987 24 16.2497 24 12.5248Z" fill="#4285F4"/>
<path id="Vector_2" d="M12.2409 24.4868C15.5428 24.4868 18.3275 23.4026 20.3563 21.5312L16.4111 18.4721C15.3134 19.2189 13.8964 19.6418 12.2454 19.6418C9.05137 19.6418 6.34322 17.4869 5.37152 14.5898H1.30029V17.7434C3.37864 21.8776 7.61182 24.4868 12.2409 24.4868Z" fill="#34A853"/>
<path id="Vector_3" d="M5.36663 14.5891C4.85379 13.0686 4.85379 11.4221 5.36663 9.90156V6.74805H1.2999C-0.436556 10.2075 -0.436556 14.2832 1.2999 17.7426L5.36663 14.5891Z" fill="#FBBC04"/>
<path id="Vector_4" d="M12.2409 4.84581C13.9863 4.81882 15.6733 5.47561 16.9374 6.68124L20.4328 3.18583C18.2195 1.10748 15.2819 -0.0351637 12.2409 0.000825036C7.61182 0.000825036 3.37864 2.61001 1.30029 6.74872L5.36702 9.90223C6.33422 7.00064 9.04687 4.84581 12.2409 4.84581Z" fill="#EA4335"/>
</g>
<rect x="-15.5" y="-13.5" width="377" height="51.4858" rx="7.5" stroke="#E6E6E6"/>
</g>
</g>
<rect x="-39.5" y="-669.5" width="425" height="731.486" rx="15.5" stroke="#E2E2E2"/>
</g>
</g>
<path d="M-3795 -1234H1271V-1238H-3795V-1234ZM1271 -1234V1134H1275V-1234H1271ZM1271 1134H-3795V1138H1271V1134ZM-3795 1134V-1234H-3799V1134H-3795ZM-3795 1134H-3795H-3799C-3799 1136.21 -3797.21 1138 -3795 1138V1134ZM1271 1134V1138C1273.21 1138 1275 1136.21 1275 1134H1271ZM1271 -1234H1275C1275 -1236.21 1273.21 -1238 1271 -1238V-1234ZM-3795 -1238C-3797.21 -1238 -3799 -1236.21 -3799 -1234H-3795L-3795 -1234V-1238Z" fill="#757575"/>
</g>
<defs>
<clipPath id="clip0_0_1">
<rect width="1440" height="1024" fill="white" transform="translate(-547 -832)"/>
</clipPath>
<clipPath id="clip1_0_1">
<rect width="24" height="24.4858" fill="white"/>
</clipPath>
</defs>
</svg>
