<svg width="20" height="20" viewBox="0 0 20 20" fill="none" xmlns="http://www.w3.org/2000/svg">
<g id="Compound (COMP)">
<rect width="20" height="20" rx="10" fill="#00D395"/>
<path id="Vector" fill-rule="evenodd" clip-rule="evenodd" d="M5.77736 12.9796C5.50166 12.8172 5.33301 12.5279 5.33301 12.2172V10.4823C5.33301 10.4159 5.35151 10.3518 5.38596 10.2949C5.49306 10.1171 5.73061 10.0566 5.91521 10.161L9.97961 12.4437C10.2172 12.5777 10.3637 12.822 10.3637 13.0876V14.8853C10.3637 14.9671 10.3403 15.0489 10.296 15.1189C10.1618 15.33 9.87626 15.3964 9.65716 15.2672L5.77736 12.9796ZM11.8358 9.68542C12.0734 9.81947 12.2199 10.0638 12.2199 10.3294V13.977C12.2199 14.0849 12.1595 14.1845 12.0623 14.2366L11.1724 14.7193C11.1613 14.7252 11.149 14.73 11.1367 14.7335V12.7081C11.1367 12.4461 10.9939 12.203 10.7601 12.0677L7.19046 10.0103V7.72406C7.19046 7.65766 7.20891 7.59361 7.24336 7.53671C7.35046 7.35881 7.58801 7.29837 7.77266 7.40271L11.8358 9.68542ZM13.6145 6.99126C13.8533 7.12406 13.9997 7.37071 13.9997 7.63631V12.9643C13.9997 13.0734 13.937 13.1742 13.8372 13.2264L12.9941 13.6651V9.95582C12.9941 9.69377 12.8513 9.45181 12.6187 9.31666L8.97031 7.20821V5.03936C8.97031 4.97298 8.98876 4.90894 9.02201 4.85202C9.12911 4.67415 9.36666 4.61367 9.55131 4.71683L13.6145 6.99126Z" fill="white"/>
</g>
</svg>
