<svg width="20" height="20" viewBox="0 0 20 20" fill="none" xmlns="http://www.w3.org/2000/svg">
<g id="Aave (AAVE)">
<rect width="20" height="20" rx="10" fill="#B6509E"/>
<path id="Vector" d="M14.4569 13.9437L11.018 5.82511C10.8236 5.40557 10.5366 5.19995 10.1562 5.19995H9.85203C9.47175 5.19995 9.18477 5.40557 8.99013 5.82511L7.49428 9.36201H6.36235C6.19935 9.36273 6.04319 9.42615 5.92774 9.53859C5.81228 9.65097 5.74682 9.80331 5.74555 9.96249V9.97077C5.74682 10.1299 5.81228 10.2823 5.92774 10.3947C6.04319 10.5071 6.19935 10.5705 6.36235 10.5712H6.97072L5.54276 13.9437C5.51576 14.0176 5.50148 14.0954 5.5005 14.1739C5.49382 14.3406 5.5545 14.503 5.66945 14.6263C5.72855 14.6851 5.79981 14.731 5.8785 14.7608C5.95718 14.7906 6.04146 14.8036 6.12572 14.799C6.25336 14.7974 6.37734 14.7571 6.48064 14.6839C6.58876 14.6058 6.67342 14.5006 6.72568 14.3796L8.29726 10.5711H9.38727C9.55029 10.5705 9.70653 10.5072 9.82203 10.3947C9.93753 10.2824 10.0031 10.13 10.0044 9.97077V9.95427C10.0031 9.79509 9.93765 9.64275 9.82215 9.53037C9.70671 9.41793 9.55059 9.35451 9.38757 9.35379H8.80449L10.0044 6.43366L13.2743 14.3792C13.3266 14.5003 13.4112 14.6053 13.5193 14.6835C13.6227 14.7568 13.7466 14.797 13.8742 14.7987C13.9585 14.8032 14.0428 14.7902 14.1215 14.7604C14.2002 14.7306 14.2714 14.6848 14.3305 14.6259C14.4455 14.5027 14.5062 14.3401 14.4995 14.1736C14.5025 14.0948 14.488 14.0164 14.4569 13.9437Z" fill="white"/>
</g>
</svg>
