<svg width="41" height="40" viewBox="0 0 41 40" fill="none" xmlns="http://www.w3.org/2000/svg">
<g id="Compound (COMP)">
<rect x="0.25" width="40" height="40" rx="20" fill="#00D395"/>
<path id="Vector" fill-rule="evenodd" clip-rule="evenodd" d="M11.8052 25.9592C11.2538 25.6344 10.9165 25.0557 10.9165 24.4344V20.9646C10.9165 20.8317 10.9535 20.7036 11.0224 20.5898C11.2366 20.2341 11.7117 20.1132 12.0809 20.3219L20.2097 24.8873C20.6848 25.1553 20.9779 25.6439 20.9779 26.1751V29.7706C20.9779 29.9342 20.9311 30.0978 20.8424 30.2378C20.5741 30.6599 20.003 30.7928 19.5648 30.5343L11.8052 25.9592ZM23.9221 19.3708C24.3973 19.6389 24.6902 20.1275 24.6902 20.6587V27.9539C24.6902 28.1698 24.5695 28.3689 24.375 28.4732L22.5953 29.4385C22.5731 29.4504 22.5484 29.4599 22.5238 29.467V25.4162C22.5238 24.8921 22.2383 24.4059 21.7706 24.1354L14.6314 20.0206V15.4481C14.6314 15.3153 14.6683 15.1872 14.7372 15.0734C14.9514 14.7176 15.4265 14.5967 15.7958 14.8054L23.9221 19.3708ZM27.4794 13.9825C27.957 14.2481 28.2499 14.7414 28.2499 15.2726V25.9286C28.2499 26.1467 28.1244 26.3483 27.9249 26.4527L26.2387 27.3301V19.9116C26.2387 19.3875 25.953 18.9036 25.4879 18.6333L18.1911 14.4164V10.0787C18.1911 9.94596 18.228 9.81788 18.2945 9.70405C18.5087 9.3483 18.9838 9.22735 19.3531 9.43367L27.4794 13.9825Z" fill="white"/>
</g>
</svg>
