<svg width="41" height="40" viewBox="0 0 41 40" fill="none" xmlns="http://www.w3.org/2000/svg">
<g id="Uniswap (UNI)">
<rect x="0.75" width="40" height="40" rx="20" fill="#F70277"/>
<path id="Vector" fill-rule="evenodd" clip-rule="evenodd" d="M11.6177 9.2396L11.6177 9.23961L11.6177 9.23963C11.8757 9.52032 12.1337 9.80102 12.3916 10.0788C13.0209 10.7695 13.6515 11.4601 14.2821 12.1508C15.5433 13.5321 16.8045 14.9135 18.0553 16.2948C18.5595 16.8504 18.5478 17.4871 17.9497 17.9153C17.5745 18.1816 17.0937 18.3668 16.6247 18.4594C15.9915 18.5867 15.7335 18.8993 15.628 19.5243C15.4873 20.3462 15.241 21.1564 14.9362 21.932C14.4671 23.1243 14.5961 23.703 15.6397 24.467C15.6955 24.5091 15.7521 24.5503 15.8089 24.5915C15.9553 24.6979 16.1026 24.8049 16.2377 24.93C16.8944 25.5088 16.9178 26.3422 16.2729 26.9557C15.499 27.685 14.514 27.9859 13.318 28.2058C13.2035 27.9146 13.0817 27.6234 12.9595 27.331C12.6688 26.6355 12.3752 25.9331 12.1688 25.2078C11.9578 24.5017 12.2392 23.8072 12.7082 23.2169C13.0483 22.7886 13.3766 22.3719 13.7049 21.932C14.2326 21.2259 14.5258 20.4272 14.6782 19.559C14.772 19.015 15.0182 18.471 15.2997 17.9848C15.5107 17.6375 15.4638 17.3829 15.2997 17.0819C14.9596 16.4684 14.6225 15.852 14.2854 15.2356L14.2853 15.2355L14.2853 15.2354L14.2852 15.2353L14.2851 15.2352L14.2851 15.2351L14.285 15.235L14.285 15.2349C13.948 14.6188 13.611 14.0026 13.2711 13.3894C13.1773 13.2273 13.0952 13.0653 13.0835 12.8685C13.529 13.534 13.9775 14.2025 14.426 14.871C14.8746 15.5395 15.3231 16.208 15.7687 16.8736C16.0149 17.2324 16.3081 17.4755 16.7771 17.4292C17.2696 17.3713 17.3634 17.1861 17.0703 16.8041C15.0769 14.1649 13.0835 11.5373 11.0783 8.90971C11.0103 8.82245 10.9463 8.7352 10.8839 8.6502L10.8839 8.6502L10.8839 8.6502L10.8839 8.6502L10.8839 8.6502C10.8387 8.58861 10.7943 8.5282 10.75 8.46984C10.7676 8.45827 10.7822 8.44669 10.7969 8.43512C10.8116 8.42354 10.8262 8.41197 10.8438 8.40039C11.1018 8.67819 11.3597 8.95889 11.6177 9.23958L11.6177 9.2396ZM13.0366 24.6175C13.0477 24.6801 13.0566 24.738 13.0649 24.7927C13.0828 24.91 13.0984 25.0126 13.1304 25.1152C13.1547 25.2115 13.2016 25.3021 13.2476 25.3911L13.2476 25.3911C13.268 25.4306 13.2882 25.4697 13.3063 25.5088C13.3547 25.4683 13.4103 25.4313 13.4651 25.3949C13.5826 25.3167 13.6964 25.241 13.7284 25.1384C13.8574 24.768 13.576 24.548 13.0366 24.6175ZM30.2151 24.4207C30.0627 23.0664 29.1715 22.4992 28.1748 22.0362C27.7706 21.847 27.3605 21.6665 26.9503 21.486L26.9503 21.486C26.2061 21.1586 25.4614 20.8309 24.7508 20.4503C23.672 19.8831 23.0154 19.0034 23.1913 17.6375C24.071 18.2749 25.0674 18.4133 26.0581 18.5508C26.5067 18.6131 26.9542 18.6752 27.3891 18.7835C28.9018 19.1655 30.1447 19.8716 30.6021 21.469C30.8718 22.4297 30.7897 23.3673 30.2151 24.4207ZM27.2719 17.8574C28.0693 17.9268 28.808 18.1352 29.3474 18.8297C29.2067 17.9037 28.7494 17.1281 28.1162 16.422C28.0545 16.5471 27.9989 16.6662 27.9458 16.78C27.8169 17.0559 27.7028 17.3004 27.5533 17.5217C27.4971 17.601 27.3637 17.6314 27.2325 17.6613L27.2325 17.6613C27.1722 17.6751 27.1125 17.6887 27.0608 17.7069C27.0441 17.654 27.0264 17.602 27.0088 17.5504L27.0087 17.5503C26.9648 17.4214 26.9218 17.2951 26.8967 17.1629C26.8893 17.1263 26.9145 17.0806 26.9401 17.0344C26.955 17.0073 26.9701 16.9801 26.9787 16.9545C27.3071 15.9359 27.0374 15.3224 26.0641 14.8825C25.0791 14.4426 24.0238 14.1648 22.945 14.3037C22.0187 14.4195 21.362 14.2227 20.7288 13.5166C20.037 12.7526 19.0989 12.3128 17.9849 12.3707C19.3334 12.6832 20.2715 13.5513 21.0923 14.5816C21.2858 14.8246 21.4792 15.0648 21.6727 15.3049L21.6728 15.3051L21.6729 15.3052C21.8663 15.5454 22.0598 15.7855 22.2532 16.0285C22.9919 16.9429 23.93 17.4985 25.1143 17.649C25.8111 17.7392 26.519 17.7965 27.2163 17.8529L27.2719 17.8574ZM26.7181 22.1342L26.7181 22.1342C27.3942 22.5241 28.0436 22.8986 28.6321 23.3442C30.649 24.8606 30.3323 28.1364 28.1044 29.3286C28.0617 29.3539 28.0128 29.367 27.9259 29.3901L27.9259 29.3901L27.9259 29.3901C27.8935 29.3987 27.8558 29.4087 27.8113 29.4213C28.5031 27.9975 27.9168 26.8747 27.1898 25.7634C26.7677 25.1268 26.3455 24.4786 25.9703 23.7956C25.5951 23.1474 25.5247 22.4297 25.7827 21.5847C26.0978 21.7765 26.4107 21.9569 26.718 22.1341L26.7181 22.1342ZM21.1158 28.0902C20.7405 27.8934 20.377 27.8934 20.0839 28.2406C20.4826 28.0438 20.8578 28.0438 21.1392 28.3911C21.3972 28.7152 21.3034 29.0741 21.0337 29.3287C20.7054 29.6412 20.3184 29.5949 19.9549 29.375C19.5445 29.1204 19.3569 28.7731 19.4976 28.2985C19.65 27.8008 20.166 27.4767 20.7405 27.5577C21.4558 27.6503 21.9483 28.067 22.2766 28.6805C22.3897 28.894 22.4924 29.1136 22.5953 29.3333L22.5953 29.3334L22.5953 29.3334L22.5953 29.3334L22.5953 29.3334C22.7377 29.6379 22.8803 29.9425 23.0505 30.2316C23.6955 31.3544 24.8446 31.5859 25.9 30.7756C25.771 30.8104 25.7006 30.8219 25.6303 30.8335C24.3639 31.1113 23.7424 30.6946 23.5313 29.4445L23.521 29.3818C23.454 28.9733 23.3855 28.5555 23.2851 28.148C23.0036 27.0136 22.218 26.377 21.0923 26.1802C19.2044 25.8561 17.6918 26.6664 16.2847 27.8818C17.5304 27.9025 18.3275 28.6243 19.135 29.3554L19.1351 29.3555L19.1351 29.3555C19.2321 29.4433 19.3292 29.5312 19.4272 29.6181C19.7204 29.8728 20.2598 29.9538 20.6702 29.9422C21.1509 29.9306 21.4558 29.5602 21.5379 29.0741C21.5965 28.6689 21.5262 28.2985 21.1158 28.0902ZM20.0839 16.8504C18.8527 17.1629 17.2111 14.9289 17.5042 12.9726C18.1609 12.9263 18.7823 13.2736 19.052 13.9102C19.1353 14.1125 19.1941 14.3217 19.2532 14.5322C19.3023 14.7071 19.3517 14.8828 19.4155 15.0562C19.571 15.4909 19.7328 15.9194 19.9009 16.3647L19.9009 16.3647L19.9009 16.3648L19.901 16.365C19.9612 16.5243 20.0221 16.6857 20.0839 16.8504ZM24.1176 24.5017C25.3136 23.8072 25.5951 22.3256 24.7156 21.249C25.0205 23.2284 24.3521 24.1197 22.429 24.4323C22.3391 24.4477 22.2479 24.4606 22.1567 24.4734C21.9743 24.4992 21.7919 24.5249 21.62 24.5712C21.0102 24.7332 20.4123 24.9068 19.8143 25.0805L19.8142 25.0805L19.8142 25.0805L19.8142 25.0805C19.8376 25.1268 19.8493 25.1731 19.8611 25.2194L19.8611 25.2194C20.1552 25.19 20.4494 25.1625 20.7433 25.135L20.7434 25.135L20.7434 25.135L20.7435 25.135C21.4922 25.0649 22.2392 24.995 22.9802 24.8953C23.3671 24.8374 23.7775 24.6985 24.1176 24.5017ZM18.8175 20.2871C18.4071 20.3218 18.1256 20.1599 18.1256 19.6856C18.1139 19.1073 18.5624 18.6012 19.137 18.6128L19.1614 18.6131C18.9682 18.8264 18.8415 18.9741 18.7149 19.1217C18.7693 19.1562 18.8237 19.2022 18.8777 19.2478C18.9866 19.3397 19.0937 19.4302 19.1956 19.4225C19.3174 19.4064 19.428 19.3017 19.5389 19.1965C19.5882 19.1498 19.6376 19.103 19.6881 19.0639C19.5388 18.9393 19.4008 18.8147 19.1859 18.614C19.7063 18.6413 20.1777 19.0978 20.1777 19.5353C20.1777 19.9632 19.6148 20.2987 18.8175 20.2871ZM19.1859 18.614L19.1722 18.6012L19.1614 18.6131C19.1696 18.6133 19.1778 18.6136 19.1859 18.614ZM28.2929 15.6176C28.4215 15.7068 28.5432 15.7913 28.6673 15.8781L28.7376 15.8433C28.6346 15.7311 28.5251 15.6231 28.416 15.5155C28.165 15.268 27.9161 15.0225 27.7527 14.7321C27.5775 14.4356 27.4913 14.0865 27.4055 13.7387C27.3707 13.5977 27.336 13.4569 27.2954 13.3199C27.2625 13.5632 27.2239 13.8178 27.1835 14.0838C27.1663 14.1975 27.1488 14.3133 27.1312 14.4311C26.9433 14.3693 26.7694 14.3098 26.6021 14.2525C26.3936 14.1812 26.1955 14.1134 25.9938 14.0491C26.7297 14.5429 27.071 14.7306 27.2539 15.0188C27.4441 15.3183 27.4632 15.7265 27.5768 16.6999C27.6066 16.47 27.6335 16.2401 27.6619 15.9965C27.6893 15.7617 27.7181 15.5141 27.7527 15.2414C27.9559 15.3838 28.1299 15.5045 28.2929 15.6176Z" fill="white"/>
</g>
</svg>
