<svg width="24" height="24" viewBox="0 0 24 24" fill="none" xmlns="http://www.w3.org/2000/svg">
<g id="USD Coin (USDC)">
<rect width="24" height="24" rx="12" fill="#2775CA"/>
<path id="Vector" fill-rule="evenodd" clip-rule="evenodd" d="M10.2398 18.5604C10.2398 18.8004 10.0798 18.8804 9.8398 18.8804C6.8798 17.9204 4.7998 15.2004 4.7998 12.0004C4.7998 8.80042 6.8798 6.08042 9.8398 5.12042C10.0798 5.04042 10.2398 5.20042 10.2398 5.44042V6.00042C10.2398 6.16042 10.1598 6.32042 9.9998 6.40042C7.6798 7.28042 6.0798 9.44042 6.0798 12.0004C6.0798 14.5604 7.7598 16.8004 9.9998 17.6004C10.1598 17.6804 10.2398 17.8404 10.2398 18.0004V18.5604ZM12.6399 16.5602C12.6399 16.7202 12.4799 16.8802 12.3199 16.8802H11.6799C11.5199 16.8802 11.3599 16.7202 11.3599 16.5602V15.6002C10.0799 15.4402 9.4399 14.7202 9.1999 13.6802C9.1999 13.5202 9.2799 13.3602 9.4399 13.3602H10.1599C10.3199 13.3602 10.3999 13.4402 10.4799 13.6002C10.6399 14.1602 10.9599 14.6402 11.9999 14.6402C12.7999 14.6402 13.3599 14.2402 13.3599 13.6002C13.3599 12.9602 13.0399 12.7202 11.9199 12.5602C10.2399 12.3202 9.4399 11.8402 9.4399 10.4802C9.4399 9.44019 10.2399 8.64019 11.3599 8.48019V7.5202C11.3599 7.3602 11.5199 7.2002 11.6799 7.2002H12.3199C12.4799 7.2002 12.6399 7.3602 12.6399 7.5202V8.48019C13.5999 8.64019 14.2399 9.20019 14.3999 10.0802C14.3999 10.2402 14.3199 10.4002 14.1599 10.4002H13.5199C13.3599 10.4002 13.2799 10.3202 13.1999 10.1602C13.0399 9.60019 12.6399 9.36019 11.9199 9.36019C11.1199 9.36019 10.7199 9.76019 10.7199 10.3202C10.7199 10.8802 10.9599 11.2002 12.1599 11.3602C13.8399 11.6002 14.6399 12.0802 14.6399 13.4402C14.6399 14.4802 13.8399 15.3602 12.6399 15.6002V16.5602ZM13.7597 18.5601C13.7597 18.8001 13.9197 18.9601 14.1597 18.8801C17.1197 17.9201 19.1997 15.2001 19.1997 12.0001C19.1997 8.80012 17.0397 6.08012 14.1597 5.12012C13.9197 5.12012 13.7597 5.20012 13.7597 5.44012V6.00012C13.7597 6.16012 13.8397 6.32012 13.9997 6.40012C16.2397 7.20012 17.9197 9.44011 17.9197 12.0001C17.9197 14.5601 16.3197 16.7201 13.9997 17.6001C13.8397 17.6801 13.7597 17.8401 13.7597 18.0001V18.5601Z" fill="white"/>
</g>
</svg>
