<svg width="41" height="40" viewBox="0 0 41 40" fill="none" xmlns="http://www.w3.org/2000/svg">
<g id="Wrapped Bitcoin (WBTC)">
<rect x="0.5" width="40" height="40" rx="20" fill="#FF8E00"/>
<path id="Vector" fill-rule="evenodd" clip-rule="evenodd" d="M20.5 9.04348C14.4489 9.04348 9.54348 13.9489 9.54348 20C9.54348 26.0511 14.4489 30.9565 20.5 30.9565C26.5511 30.9565 31.4565 26.0511 31.4565 20C31.4565 13.9489 26.5511 9.04348 20.5 9.04348ZM8.5 20C8.5 13.3726 13.8726 8 20.5 8C27.1274 8 32.5 13.3726 32.5 20C32.5 26.6274 27.1274 32 20.5 32C13.8726 32 8.5 26.6274 8.5 20ZM18.9326 15.3044L19.8575 15.312L19.8184 16.7034L20.1897 16.6999L20.5575 16.7003L20.5961 15.3179L21.5209 15.325L21.4816 16.7448L21.6233 16.7589L21.8984 16.7948C22.8854 16.9463 23.6189 17.326 23.6865 18.2273C23.7441 18.9771 23.3967 19.4238 22.8529 19.6744C23.7304 19.8794 24.27 20.3745 24.1302 21.4719C23.9632 22.7881 22.9333 23.1663 21.4602 23.2545L21.3007 23.2628L21.2608 24.6957L20.336 24.6885L20.3756 23.2747L20.0113 23.2701L19.6366 23.2623L19.5972 24.6821L18.6729 24.6749L18.7122 23.2392L18.0521 23.2286L16.8478 23.2188L17.0603 22.1887L17.6325 22.1973L17.7218 22.196C17.7297 22.1955 17.7325 22.194 17.7325 22.194C17.9655 22.1955 18.05 22.0573 18.0798 21.9495L18.0885 21.9108L18.1514 19.6452L18.2493 19.6457L18.1956 19.6407L18.1516 19.6392L18.1961 18.022C18.1653 17.8461 18.0493 17.6419 17.6746 17.6387C17.6765 17.6367 17.6592 17.6353 17.6289 17.6343L17.0025 17.6337L17.0279 16.7109L18.304 16.7216L18.5953 16.7258L18.8932 16.7237L18.9326 15.3044ZM19.7402 20.3149L19.6868 22.2172L20.1973 22.2252L20.4117 22.2239C20.4486 22.2232 20.486 22.2223 20.5239 22.2211L20.7546 22.2098C21.4941 22.1603 22.2885 21.9665 22.3067 21.2869C22.329 20.4928 21.3431 20.339 20.5444 20.3147L20.2312 20.3107L19.7402 20.3149ZM19.8124 17.7192L19.7647 19.4439L20.227 19.4516L20.4216 19.4491C21.0907 19.431 21.9316 19.2969 21.951 18.5995C21.9695 17.9323 21.2698 17.7633 20.6383 17.7249L20.442 17.7167L20.2558 17.7146L19.8124 17.7192ZM14.2193 25.5825C11.3901 22.4053 11.3899 17.5959 14.2187 14.4184L13.5187 13.7182C10.3051 17.2834 10.3054 22.7178 13.5194 26.2828L14.2193 25.5825ZM14.2181 26.9814C17.7831 30.1947 23.2169 30.1947 26.7819 26.9814L26.0817 26.2815C22.9044 29.11 18.0956 29.11 14.9183 26.2815L14.2181 26.9814ZM26.0824 13.7194L26.7827 13.0195C23.2176 9.80543 17.7832 9.80524 14.218 13.0189L14.9176 13.7194C18.0951 10.89 22.9049 10.89 26.0824 13.7194ZM27.4812 26.2821C30.6946 22.7171 30.6947 17.2832 27.4813 13.7182L26.7814 14.4184C29.6101 17.5959 29.6099 22.4053 26.7807 25.5825L27.4812 26.2821Z" fill="white"/>
</g>
</svg>
