<svg width="136" height="40" viewBox="0 0 136 40" fill="none" xmlns="http://www.w3.org/2000/svg">
<rect x="96.5" y="0.5" width="39" height="39" rx="19.5" stroke="#0F2E35" stroke-opacity="0.2" stroke-dasharray="2 2"/>
<rect x="64" width="40" height="40" rx="20" fill="#5E7CF1"/>
<path fill-rule="evenodd" clip-rule="evenodd" d="M84.0006 9L91.1496 20.0593L84.0006 24L76.8496 20.0602L84.0006 9ZM83.9977 25.1921L91.1496 21L83.9977 31L76.8496 21.001L83.9977 25.1921Z" fill="white"/>
<rect x="32" width="40" height="40" rx="20" fill="#00D395"/>
<path fill-rule="evenodd" clip-rule="evenodd" d="M43.5547 25.9583C43.0033 25.6335 42.666 25.0548 42.666 24.4335V20.9637C42.666 20.8308 42.703 20.7027 42.7719 20.5889C42.9861 20.2332 43.4612 20.1123 43.8304 20.321L51.9592 24.8864C52.4343 25.1544 52.7274 25.643 52.7274 26.1742V29.7697C52.7274 29.9333 52.6806 30.0969 52.5919 30.2369C52.3236 30.659 51.7525 30.7919 51.3143 30.5334L43.5547 25.9583ZM55.6716 19.3699C56.1468 19.638 56.4397 20.1266 56.4397 20.6578V27.953C56.4397 28.1689 56.319 28.368 56.1245 28.4723L54.3448 29.4376C54.3226 29.4495 54.2979 29.459 54.2733 29.4661V25.4153C54.2733 24.8912 53.9878 24.405 53.5201 24.1345L46.3809 20.0197V15.4472C46.3809 15.3144 46.4178 15.1863 46.4867 15.0725C46.7009 14.7167 47.176 14.5958 47.5453 14.8045L55.6716 19.3699ZM59.2289 13.9816C59.7065 14.2472 59.9994 14.7405 59.9994 15.2717V25.9277C59.9994 26.1458 59.8739 26.3474 59.6744 26.4518L57.9882 27.3292V19.9107C57.9882 19.3866 57.7025 18.9027 57.2374 18.6324L49.9406 14.4155V10.0778C49.9406 9.94498 49.9775 9.8169 50.044 9.70307C50.2582 9.34732 50.7333 9.22637 51.1026 9.43269L59.2289 13.9816Z" fill="white"/>
<rect width="40" height="40" rx="20" fill="#0F2E35"/>
<path d="M17.1654 28.75L15.582 26.0833L12.582 25.4167L12.8737 22.3333L10.832 20L12.8737 17.6667L12.582 14.5833L15.582 13.9167L17.1654 11.25L19.9987 12.4583L22.832 11.25L24.4154 13.9167L27.4154 14.5833L27.1237 17.6667L29.1654 20L27.1237 22.3333L27.4154 25.4167L24.4154 26.0833L22.832 28.75L19.9987 27.5417L17.1654 28.75ZM17.8737 26.625L19.9987 25.7083L22.1654 26.625L23.332 24.625L25.6237 24.0833L25.4154 21.75L26.957 20L25.4154 18.2083L25.6237 15.875L23.332 15.375L22.1237 13.375L19.9987 14.2917L17.832 13.375L16.6654 15.375L14.3737 15.875L14.582 18.2083L13.0404 20L14.582 21.75L14.3737 24.125L16.6654 24.625L17.8737 26.625ZM19.1237 22.9583L23.832 18.25L22.6654 17.0417L19.1237 20.5833L17.332 18.8333L16.1654 20L19.1237 22.9583Z" fill="white"/>
</svg>
