<svg width="100" height="100" viewBox="0 0 100 100" fill="none" xmlns="http://www.w3.org/2000/svg">
<rect width="100" height="100" rx="50" fill="#F8F1FE"/>
<path d="M77.0518 21.469C77.0518 20.6621 76.3897 20 75.5828 20H24.4182C23.6113 20 22.9492 20.6621 22.9492 21.469C22.9492 22.2759 23.6113 22.938 24.4182 22.938H75.5828C76.3897 22.938 77.0518 22.2759 77.0518 21.469Z" fill="#0F2E35"/>
<path d="M73.5985 57.2832V25.0078H26.4062V57.2832C26.4062 57.8521 26.8614 58.3177 27.4407 58.3177H72.564C73.1433 58.3177 73.5985 57.8521 73.5985 57.2832ZM65.2916 40.2663C65.2916 40.8456 64.8261 41.3008 64.2572 41.3008C63.6779 41.3008 63.2227 40.8456 63.2227 40.2663V36.5008L53.7162 46.0073C53.3231 46.4004 52.6403 46.4004 52.2472 46.0073L46.3818 40.1419L36.482 50.0417C36.2751 50.2485 36.0165 50.352 35.7475 50.352C35.4889 50.352 35.2199 50.2485 35.0233 50.0417C34.6096 49.6382 34.6096 48.9865 35.0233 48.5831L45.6474 37.9491C46.0509 37.5456 46.7129 37.5456 47.1164 37.9491L52.9818 43.8145L61.7541 35.0422H57.9887C57.4197 35.0422 56.9542 34.5767 56.9542 34.0078C56.9542 33.4388 57.4197 32.9733 57.9887 32.9733H64.2576C64.5369 32.9733 64.7955 33.0871 64.9817 33.2733C65.0334 33.3147 65.0748 33.3767 65.1162 33.4285C65.23 33.594 65.2921 33.7905 65.2921 34.0078L65.2916 40.2663Z" fill="#0F2E35"/>
<path d="M48.9666 60.3828V71.079C46.9701 71.5445 45.4805 73.3341 45.4805 75.4755C45.4805 77.9686 47.508 79.9961 50.0011 79.9961C52.4941 79.9961 54.5217 77.9686 54.5217 75.4755C54.5217 73.3341 53.032 71.5445 51.0355 71.079V60.3828H48.9666ZM52.4527 75.4758C52.4527 76.8309 51.3562 77.9274 50.0011 77.9274C48.6459 77.9274 47.5494 76.8309 47.5494 75.4758C47.5494 74.1206 48.6459 73.0241 50.0011 73.0241C51.3562 73.0241 52.4527 74.1206 52.4527 75.4758Z" fill="#0F2E35"/>
</svg>