<svg width="40" height="40" viewBox="0 0 40 40" fill="none" xmlns="http://www.w3.org/2000/svg">
<rect width="40" height="40" rx="20" fill="#1C373C" fill-opacity="0.1"/>
<g clip-path="url(#clip0_1356_4930)">
<path d="M12 12H28V24H13.17L12 25.17V12ZM12 10C10.9 10 10.01 10.9 10.01 12L10 30L14 26H28C29.1 26 30 25.1 30 24V12C30 10.9 29.1 10 28 10H12ZM14 20H22V22H14V20ZM14 17H26V19H14V17ZM14 14H26V16H14V14Z" fill="#0F2E35"/>
</g>
<defs>
<clipPath id="clip0_1356_4930">
<rect width="24" height="24" fill="white" transform="translate(8 8)"/>
</clipPath>
</defs>
</svg>
