<svg width="24" height="24" viewBox="0 0 24 24" fill="none" xmlns="http://www.w3.org/2000/svg">
<g id="Social Icons">
<path id="Vector" d="M7.12187 20.4547H3.55938V8.99844H7.12187V20.4547ZM5.34062 7.4375C4.19687 7.4375 3.27344 6.51406 3.27344 5.375C3.27344 4.23594 4.19687 3.3125 5.34062 3.3125C6.47969 3.3125 7.40312 4.23594 7.40312 5.375C7.40312 6.50938 6.47969 7.4375 5.34062 7.4375ZM20.4531 20.4547H16.8953V14.8859C16.8953 13.5594 16.8719 11.8484 15.0437 11.8484C13.1922 11.8484 12.9109 13.2969 12.9109 14.7922V20.4547H9.35781V8.99844H12.7703V10.5641H12.8172C13.2906 9.66406 14.4531 8.7125 16.1828 8.7125C19.7875 8.7125 20.4531 11.0844 20.4531 14.1688V20.4547Z" fill="white"/>
</g>
</svg>
