<svg width="100" height="100" viewBox="0 0 100 100" fill="none" xmlns="http://www.w3.org/2000/svg">
<rect width="100" height="100" rx="50" fill="#F8F1FE"/>
<path opacity="0.9" d="M50 85C44.0606 85 38.3333 83.25 32.8182 79.75C27.303 76.25 22.9545 72.2462 19.7727 67.7386V78.6364H15V59.5455H34.0909V64.3182H23.1932C25.8977 68.4015 29.7557 72.0739 34.767 75.3352C39.7784 78.5966 44.8561 80.2273 50 80.2273C54.1364 80.2273 58.0473 79.4318 61.733 77.8409C65.4186 76.25 68.6269 74.089 71.358 71.358C74.089 68.6269 76.25 65.4186 77.8409 61.733C79.4318 58.0473 80.2273 54.1364 80.2273 50H85C85 54.8258 84.0852 59.3598 82.2557 63.6023C80.4261 67.8447 77.9205 71.5568 74.7386 74.7386C71.5568 77.9205 67.8447 80.4261 63.6023 82.2557C59.3598 84.0852 54.8258 85 50 85ZM47.6932 72.8295V68.5341C45.3068 67.8977 43.3049 66.8769 41.6875 65.4716C40.0701 64.0663 38.7045 62.1439 37.5909 59.7045L41.6477 58.3523C42.2841 60.3674 43.411 61.9583 45.0284 63.125C46.6458 64.2917 48.4886 64.875 50.5568 64.875C52.678 64.875 54.4413 64.358 55.8466 63.3239C57.2519 62.2898 57.9545 60.9242 57.9545 59.2273C57.9545 57.4773 57.2917 56.0057 55.9659 54.8125C54.6402 53.6193 52.2008 52.2803 48.6477 50.7955C45.4659 49.4697 43.0795 48.0379 41.4886 46.5C39.8977 44.9621 39.1023 42.8939 39.1023 40.2955C39.1023 37.9621 39.8977 35.9735 41.4886 34.3295C43.0795 32.6856 45.2008 31.678 47.8523 31.3068V27.25H52.2273V31.3068C54.2424 31.5189 55.9924 32.1553 57.4773 33.2159C58.9621 34.2765 60.1553 35.7348 61.0568 37.5909L57.2386 39.4205C56.4432 37.9356 55.4621 36.822 54.2955 36.0795C53.1288 35.3371 51.75 34.9659 50.1591 34.9659C48.0909 34.9659 46.4602 35.4432 45.267 36.3977C44.0739 37.3523 43.4773 38.6515 43.4773 40.2955C43.4773 41.9924 44.1667 43.3447 45.5455 44.3523C46.9242 45.3598 49.1515 46.5 52.2273 47.7727C55.8864 49.3106 58.4848 50.928 60.0227 52.625C61.5606 54.322 62.3295 56.5227 62.3295 59.2273C62.3295 60.553 62.0909 61.7727 61.6136 62.8864C61.1364 64 60.4602 64.9545 59.5852 65.75C58.7102 66.5455 57.6364 67.1951 56.3636 67.6989C55.0909 68.2027 53.6591 68.5341 52.0682 68.6932V72.8295H47.6932ZM15 50C15 45.1742 15.9148 40.6402 17.7443 36.3977C19.5739 32.1553 22.0795 28.4432 25.2614 25.2614C28.4432 22.0795 32.1553 19.5739 36.3977 17.7443C40.6402 15.9148 45.1742 15 50 15C55.9394 15 61.6667 16.75 67.1818 20.25C72.697 23.75 77.0455 27.7538 80.2273 32.2614V21.3636H85V40.4545H65.9091V35.6818H76.8068C74.1023 31.5985 70.2576 27.9261 65.2727 24.6648C60.2879 21.4034 55.197 19.7727 50 19.7727C45.8636 19.7727 41.9527 20.5682 38.267 22.1591C34.5814 23.75 31.3731 25.911 28.642 28.642C25.911 31.3731 23.75 34.5814 22.1591 38.267C20.5682 41.9527 19.7727 45.8636 19.7727 50H15Z" fill="#0F2E35"/>
</svg>
