<svg width="16" height="16" viewBox="0 0 16 16" fill="none" xmlns="http://www.w3.org/2000/svg">
<path fill-rule="evenodd" clip-rule="evenodd" d="M13.8137 1.58045L3.81373 15.5804L2.18627 14.418L12.1863 0.417969L13.8137 1.58045ZM3.5 2.99921C2.67157 2.99921 2 3.67078 2 4.49921C2 5.32763 2.67157 5.99921 3.5 5.99921C4.32843 5.99921 5 5.32763 5 4.49921C5 3.67078 4.32843 2.99921 3.5 2.99921ZM0 4.49921C0 2.56621 1.567 0.999207 3.5 0.999207C5.433 0.999207 7 2.56621 7 4.49921C7 6.4322 5.433 7.99921 3.5 7.99921C1.567 7.99921 0 6.4322 0 4.49921ZM12.5 9.99921C11.6716 9.99921 11 10.6708 11 11.4992C11 12.3276 11.6716 12.9992 12.5 12.9992C13.3284 12.9992 14 12.3276 14 11.4992C14 10.6708 13.3284 9.99921 12.5 9.99921ZM9 11.4992C9 9.56621 10.567 7.99921 12.5 7.99921C14.433 7.99921 16 9.56621 16 11.4992C16 13.4322 14.433 14.9992 12.5 14.9992C10.567 14.9992 9 13.4322 9 11.4992Z" fill="white"/>
</svg>
