<svg width="40" height="40" viewBox="0 0 40 40" fill="none" xmlns="http://www.w3.org/2000/svg">
<rect width="40" height="40" rx="20" fill="#EEEEEE"/>
<g clip-path="url(#clip0_990_5835)">
<path d="M26.675 22.8167C25.65 22.8167 24.6583 22.65 23.7333 22.35C23.4417 22.25 23.1167 22.325 22.8917 22.55L21.5833 24.1917C19.225 23.0667 17.0167 20.9417 15.8417 18.5L17.4667 17.1167C17.6917 16.8833 17.7583 16.5583 17.6667 16.2667C17.3583 15.3417 17.2 14.35 17.2 13.325C17.2 12.875 16.825 12.5 16.375 12.5H13.4917C13.0417 12.5 12.5 12.7 12.5 13.325C12.5 21.0667 18.9417 27.5 26.675 27.5C27.2667 27.5 27.5 26.975 27.5 26.5167V23.6417C27.5 23.1917 27.125 22.8167 26.675 22.8167Z" fill="#323232"/>
</g>
<defs>
<clipPath id="clip0_990_5835">
<rect width="20" height="20" fill="white" transform="translate(10 10)"/>
</clipPath>
</defs>
</svg>
