<svg width="40" height="40" viewBox="0 0 40 40" fill="none" xmlns="http://www.w3.org/2000/svg">
<rect width="40" height="40" rx="20" fill="white"/>
<path d="M18.01 29.01C18.01 30.11 18.9 31 20 31C21.1 31 21.99 30.11 21.99 29.01H18.01ZM20 14C22.76 14 25 16.24 25 19V26H15V19C15 16.24 17.24 14 20 14ZM20 9.5C19.17 9.5 18.5 10.17 18.5 11V12.17C15.36 12.85 13 15.65 13 19V25L11 27V28H29V27L27 25V19C27 15.65 24.64 12.85 21.5 12.17V11C21.5 10.17 20.83 9.5 20 9.5ZM19 16H21V20H19V16ZM19 22H21V24H19V22Z" fill="#323232"/>
</svg>
