<svg width="347" height="103" viewBox="0 0 347 103" fill="none" xmlns="http://www.w3.org/2000/svg">
<path d="M0 74H343C344.657 74 346 75.3431 346 77C346 78.6569 344.657 80 343 80H0V74Z" fill="#2C3B8D" fill-opacity="0.1"/>
<g filter="url(#filter0_ddd_990_2895)">
<path fill-rule="evenodd" clip-rule="evenodd" d="M174 91C181.732 91 188 84.732 188 77C188 69.268 181.732 63 174 63C166.268 63 160 69.268 160 77C160 84.732 166.268 91 174 91Z" fill="#2C3B8D"/>
<path d="M174 91.25C181.87 91.25 188.25 84.8701 188.25 77C188.25 69.1299 181.87 62.75 174 62.75C166.13 62.75 159.75 69.1299 159.75 77C159.75 84.8701 166.13 91.25 174 91.25Z" stroke="black" stroke-opacity="0.04" stroke-width="0.5"/>
</g>
<rect x="135" width="77" height="48" rx="24" fill="#2C3B8D"/>
<path d="M158.112 18.3636V30H156.35V20.125H156.282L153.498 21.9432V20.2614L156.401 18.3636H158.112ZM166.874 30.1932C165.977 30.1894 165.21 29.9527 164.573 29.483C163.937 29.0133 163.45 28.3295 163.113 27.4318C162.776 26.5341 162.607 25.4527 162.607 24.1875C162.607 22.9261 162.776 21.8485 163.113 20.9545C163.454 20.0606 163.942 19.3788 164.579 18.9091C165.219 18.4394 165.984 18.2045 166.874 18.2045C167.764 18.2045 168.528 18.4413 169.164 18.9148C169.8 19.3845 170.287 20.0663 170.624 20.9602C170.965 21.8504 171.136 22.9261 171.136 24.1875C171.136 25.4564 170.967 26.5398 170.63 27.4375C170.293 28.3314 169.806 29.0152 169.17 29.4886C168.533 29.9583 167.768 30.1932 166.874 30.1932ZM166.874 28.6761C167.662 28.6761 168.278 28.2917 168.721 27.5227C169.168 26.7538 169.391 25.642 169.391 24.1875C169.391 23.2216 169.289 22.4053 169.085 21.7386C168.884 21.0682 168.594 20.5606 168.215 20.2159C167.84 19.8674 167.393 19.6932 166.874 19.6932C166.09 19.6932 165.475 20.0795 165.028 20.8523C164.581 21.625 164.355 22.7367 164.352 24.1875C164.352 25.1572 164.452 25.9773 164.653 26.6477C164.857 27.3144 165.147 27.8201 165.522 28.1648C165.897 28.5057 166.348 28.6761 166.874 28.6761ZM177.421 30.1932C176.523 30.1894 175.756 29.9527 175.12 29.483C174.484 29.0133 173.997 28.3295 173.66 27.4318C173.323 26.5341 173.154 25.4527 173.154 24.1875C173.154 22.9261 173.323 21.8485 173.66 20.9545C174.001 20.0606 174.489 19.3788 175.126 18.9091C175.766 18.4394 176.531 18.2045 177.421 18.2045C178.311 18.2045 179.075 18.4413 179.711 18.9148C180.347 19.3845 180.834 20.0663 181.171 20.9602C181.512 21.8504 181.683 22.9261 181.683 24.1875C181.683 25.4564 181.514 26.5398 181.177 27.4375C180.84 28.3314 180.353 29.0152 179.717 29.4886C179.08 29.9583 178.315 30.1932 177.421 30.1932ZM177.421 28.6761C178.209 28.6761 178.825 28.2917 179.268 27.5227C179.715 26.7538 179.938 25.642 179.938 24.1875C179.938 23.2216 179.836 22.4053 179.631 21.7386C179.431 21.0682 179.141 20.5606 178.762 20.2159C178.387 19.8674 177.94 19.6932 177.421 19.6932C176.637 19.6932 176.022 20.0795 175.575 20.8523C175.128 21.625 174.902 22.7367 174.898 24.1875C174.898 25.1572 174.999 25.9773 175.2 26.6477C175.404 27.3144 175.694 27.8201 176.069 28.1648C176.444 28.5057 176.895 28.6761 177.421 28.6761ZM189.888 27.8182V27.2045C189.888 26.7652 189.979 26.3636 190.161 26C190.347 25.6326 190.616 25.339 190.968 25.1193C191.324 24.8958 191.754 24.7841 192.258 24.7841C192.773 24.7841 193.205 24.8939 193.553 25.1136C193.902 25.3333 194.165 25.6269 194.343 25.9943C194.525 26.3617 194.616 26.7652 194.616 27.2045V27.8182C194.616 28.2576 194.525 28.661 194.343 29.0284C194.161 29.392 193.894 29.6856 193.542 29.9091C193.193 30.1288 192.765 30.2386 192.258 30.2386C191.746 30.2386 191.315 30.1288 190.962 29.9091C190.61 29.6856 190.343 29.392 190.161 29.0284C189.979 28.661 189.888 28.2576 189.888 27.8182ZM191.212 27.2045V27.8182C191.212 28.1439 191.29 28.4394 191.445 28.7045C191.601 28.9697 191.871 29.1023 192.258 29.1023C192.64 29.1023 192.907 28.9697 193.059 28.7045C193.21 28.4394 193.286 28.1439 193.286 27.8182V27.2045C193.286 26.8788 193.212 26.5833 193.065 26.3182C192.921 26.053 192.652 25.9205 192.258 25.9205C191.879 25.9205 191.61 26.053 191.451 26.3182C191.292 26.5833 191.212 26.8788 191.212 27.2045ZM184.036 21.1591V20.5455C184.036 20.1061 184.127 19.7027 184.309 19.3352C184.495 18.9678 184.763 18.6742 185.116 18.4545C185.472 18.2348 185.902 18.125 186.406 18.125C186.921 18.125 187.353 18.2348 187.701 18.4545C188.049 18.6742 188.313 18.9678 188.491 19.3352C188.669 19.7027 188.758 20.1061 188.758 20.5455V21.1591C188.758 21.5985 188.667 22.0019 188.485 22.3693C188.307 22.733 188.042 23.0265 187.69 23.25C187.341 23.4697 186.913 23.5795 186.406 23.5795C185.89 23.5795 185.457 23.4697 185.104 23.25C184.756 23.0265 184.491 22.733 184.309 22.3693C184.127 22.0019 184.036 21.5985 184.036 21.1591ZM185.366 20.5455V21.1591C185.366 21.4848 185.442 21.7803 185.593 22.0455C185.748 22.3106 186.019 22.4432 186.406 22.4432C186.784 22.4432 187.049 22.3106 187.201 22.0455C187.356 21.7803 187.434 21.4848 187.434 21.1591V20.5455C187.434 20.2197 187.36 19.9242 187.212 19.6591C187.065 19.3939 186.796 19.2614 186.406 19.2614C186.027 19.2614 185.758 19.3939 185.599 19.6591C185.443 19.9242 185.366 20.2197 185.366 20.5455ZM184.576 30L192.576 18.3636H193.934L185.934 30H184.576Z" fill="white"/>
<path fill-rule="evenodd" clip-rule="evenodd" d="M171.5 47H175.5V69H171.5V47Z" fill="#2C3B8D"/>
<rect y="74" width="168" height="6" rx="3" fill="#2C3B8D"/>
<defs>
<filter id="filter0_ddd_990_2895" x="151.5" y="57.5" width="45" height="45" filterUnits="userSpaceOnUse" color-interpolation-filters="sRGB">
<feFlood flood-opacity="0" result="BackgroundImageFix"/>
<feColorMatrix in="SourceAlpha" type="matrix" values="0 0 0 0 0 0 0 0 0 0 0 0 0 0 0 0 0 0 127 0" result="hardAlpha"/>
<feOffset dy="3"/>
<feGaussianBlur stdDeviation="0.5"/>
<feColorMatrix type="matrix" values="0 0 0 0 0 0 0 0 0 0 0 0 0 0 0 0 0 0 0.1 0"/>
<feBlend mode="normal" in2="BackgroundImageFix" result="effect1_dropShadow_990_2895"/>
<feColorMatrix in="SourceAlpha" type="matrix" values="0 0 0 0 0 0 0 0 0 0 0 0 0 0 0 0 0 0 127 0" result="hardAlpha"/>
<feOffset dy="1"/>
<feGaussianBlur stdDeviation="0.5"/>
<feColorMatrix type="matrix" values="0 0 0 0 0 0 0 0 0 0 0 0 0 0 0 0 0 0 0.16 0"/>
<feBlend mode="normal" in2="effect1_dropShadow_990_2895" result="effect2_dropShadow_990_2895"/>
<feColorMatrix in="SourceAlpha" type="matrix" values="0 0 0 0 0 0 0 0 0 0 0 0 0 0 0 0 0 0 127 0" result="hardAlpha"/>
<feOffset dy="3"/>
<feGaussianBlur stdDeviation="4"/>
<feColorMatrix type="matrix" values="0 0 0 0 0 0 0 0 0 0 0 0 0 0 0 0 0 0 0.15 0"/>
<feBlend mode="normal" in2="effect2_dropShadow_990_2895" result="effect3_dropShadow_990_2895"/>
<feBlend mode="normal" in="SourceGraphic" in2="effect3_dropShadow_990_2895" result="shape"/>
</filter>
</defs>
</svg>
