<svg width="78" height="44" viewBox="0 0 78 44" fill="none" xmlns="http://www.w3.org/2000/svg">
<rect x="35" y="1" width="42" height="42" rx="21" fill="#2775CA"/>
<rect x="35" y="1" width="42" height="42" rx="21" stroke="#F9F9F9" stroke-width="2"/>
<path fill-rule="evenodd" clip-rule="evenodd" d="M53.0725 32.9347C53.0725 33.3347 52.8059 33.468 52.4059 33.468C47.4725 31.868 44.0059 27.3347 44.0059 22.0013C44.0059 16.668 47.4725 12.1347 52.4059 10.5347C52.8059 10.4014 53.0725 10.668 53.0725 11.068V12.0013C53.0725 12.268 52.9392 12.5347 52.6725 12.668C48.8059 14.1347 46.1392 17.7347 46.1392 22.0013C46.1392 26.268 48.9392 30.0013 52.6725 31.3347C52.9392 31.468 53.0725 31.7347 53.0725 32.0013V32.9347ZM57.0732 29.6C57.0732 29.8667 56.8065 30.1333 56.5398 30.1333H55.4732C55.2065 30.1333 54.9398 29.8667 54.9398 29.6V28C52.8065 27.7333 51.7398 26.5333 51.3398 24.8C51.3398 24.5333 51.4732 24.2667 51.7398 24.2667H52.9398C53.2065 24.2667 53.3398 24.4 53.4732 24.6667C53.7398 25.6 54.2732 26.4 56.0065 26.4C57.3398 26.4 58.2732 25.7333 58.2732 24.6667C58.2732 23.6 57.7398 23.2 55.8732 22.9333C53.0732 22.5333 51.7398 21.7333 51.7398 19.4667C51.7398 17.7333 53.0732 16.4 54.9398 16.1333V14.5333C54.9398 14.2667 55.2065 14 55.4732 14H56.5398C56.8065 14 57.0732 14.2667 57.0732 14.5333V16.1333C58.6732 16.4 59.7398 17.3333 60.0065 18.8C60.0065 19.0667 59.8732 19.3333 59.6065 19.3333H58.5398C58.2732 19.3333 58.1398 19.2 58.0065 18.9333C57.7398 18 57.0732 17.6 55.8732 17.6C54.5398 17.6 53.8732 18.2667 53.8732 19.2C53.8732 20.1333 54.2732 20.6667 56.2732 20.9333C59.0732 21.3333 60.4065 22.1333 60.4065 24.4C60.4065 26.1333 59.0732 27.6 57.0732 28V29.6ZM58.9336 32.9351C58.9336 33.3351 59.2003 33.6018 59.6003 33.4685C64.5336 31.8685 68.0003 27.3351 68.0003 22.0018C68.0003 16.6685 64.4003 12.1352 59.6003 10.5352C59.2003 10.5352 58.9336 10.6685 58.9336 11.0685V12.0018C58.9336 12.2685 59.0669 12.5352 59.3336 12.6685C63.0669 14.0018 65.8669 17.7352 65.8669 22.0018C65.8669 26.2685 63.2003 29.8685 59.3336 31.3351C59.0669 31.4685 58.9336 31.7351 58.9336 32.0018V32.9351Z" fill="white"/>
<rect y="2" width="40" height="40" rx="20" fill="#06C167"/>
<path d="M19.3755 30.3636H20.7306L20.737 28.8999C23.4792 28.7017 25.0517 27.1932 25.0581 25.0518C25.0517 22.7827 23.1788 21.7472 21.21 21.2805L20.7882 21.1719L20.8137 17.522C21.8365 17.701 22.4949 18.3146 22.5971 19.2351H24.8791C24.8407 17.2024 23.2427 15.7195 20.8265 15.4893L20.8329 14H19.4778L19.4714 15.4893C17.0744 15.7322 15.3485 17.2024 15.3549 19.3182C15.3549 21.1974 16.6909 22.2777 18.845 22.8338L19.4203 22.9808L19.3947 26.848C18.2505 26.669 17.426 26.017 17.3429 24.8601H15.0098C15.0993 27.2571 16.7484 28.6825 19.3819 28.8999L19.3755 30.3636ZM20.7498 26.848L20.7754 23.3388C21.9387 23.6776 22.6802 24.125 22.6866 25.0327C22.6802 25.9787 21.9196 26.6562 20.7498 26.848ZM19.4331 20.8267C18.551 20.5455 17.7456 20.0788 17.7583 19.1712C17.7647 18.3466 18.3848 17.7074 19.4586 17.522L19.4331 20.8267Z" fill="white"/>
</svg>
