<svg width="86" height="52" viewBox="0 0 86 52" fill="none" xmlns="http://www.w3.org/2000/svg">
<g filter="url(#filter0_d_1356_4771)">
<rect x="39" y="1" width="42" height="42" rx="21" fill="#2775CA"/>
<rect x="39" y="1" width="42" height="42" rx="21" stroke="#F9F9F9" stroke-width="2"/>
<path fill-rule="evenodd" clip-rule="evenodd" d="M57.0725 32.9347C57.0725 33.3347 56.8059 33.468 56.4059 33.468C51.4725 31.868 48.0059 27.3347 48.0059 22.0013C48.0059 16.668 51.4725 12.1347 56.4059 10.5347C56.8059 10.4014 57.0725 10.668 57.0725 11.068V12.0013C57.0725 12.268 56.9392 12.5347 56.6725 12.668C52.8059 14.1347 50.1392 17.7347 50.1392 22.0013C50.1392 26.268 52.9392 30.0013 56.6725 31.3347C56.9392 31.468 57.0725 31.7347 57.0725 32.0013V32.9347ZM61.0732 29.6C61.0732 29.8667 60.8065 30.1333 60.5398 30.1333H59.4732C59.2065 30.1333 58.9398 29.8667 58.9398 29.6V28C56.8065 27.7333 55.7398 26.5333 55.3398 24.8C55.3398 24.5333 55.4732 24.2667 55.7398 24.2667H56.9398C57.2065 24.2667 57.3398 24.4 57.4732 24.6667C57.7398 25.6 58.2732 26.4 60.0065 26.4C61.3398 26.4 62.2732 25.7333 62.2732 24.6667C62.2732 23.6 61.7398 23.2 59.8732 22.9333C57.0732 22.5333 55.7398 21.7333 55.7398 19.4667C55.7398 17.7333 57.0732 16.4 58.9398 16.1333V14.5333C58.9398 14.2667 59.2065 14 59.4732 14H60.5398C60.8065 14 61.0732 14.2667 61.0732 14.5333V16.1333C62.6732 16.4 63.7398 17.3333 64.0065 18.8C64.0065 19.0667 63.8732 19.3333 63.6065 19.3333H62.5398C62.2732 19.3333 62.1398 19.2 62.0065 18.9333C61.7398 18 61.0732 17.6 59.8732 17.6C58.5398 17.6 57.8732 18.2667 57.8732 19.2C57.8732 20.1333 58.2732 20.6667 60.2732 20.9333C63.0732 21.3333 64.4065 22.1333 64.4065 24.4C64.4065 26.1333 63.0732 27.6 61.0732 28V29.6ZM62.9336 32.9351C62.9336 33.3351 63.2003 33.6018 63.6003 33.4685C68.5336 31.8685 72.0003 27.3351 72.0003 22.0018C72.0003 16.6685 68.4003 12.1352 63.6003 10.5352C63.2003 10.5352 62.9336 10.6685 62.9336 11.0685V12.0018C62.9336 12.2685 63.0669 12.5352 63.3336 12.6685C67.0669 14.0018 69.8669 17.7352 69.8669 22.0018C69.8669 26.2685 67.2003 29.8685 63.3336 31.3351C63.0669 31.4685 62.9336 31.7351 62.9336 32.0018V32.9351Z" fill="white"/>
<rect x="4" y="2" width="40" height="40" rx="20" fill="#06C167"/>
<path d="M23.3755 30.3636H24.7306L24.737 28.8999C27.4792 28.7017 29.0517 27.1932 29.0581 25.0518C29.0517 22.7827 27.1788 21.7472 25.21 21.2805L24.7882 21.1719L24.8137 17.522C25.8365 17.701 26.4949 18.3146 26.5971 19.2351H28.8791C28.8407 17.2024 27.2427 15.7195 24.8265 15.4893L24.8329 14H23.4778L23.4714 15.4893C21.0744 15.7322 19.3485 17.2024 19.3549 19.3182C19.3549 21.1974 20.6909 22.2777 22.845 22.8338L23.4203 22.9808L23.3947 26.848C22.2505 26.669 21.426 26.017 21.3429 24.8601H19.0098C19.0993 27.2571 20.7484 28.6825 23.3819 28.8999L23.3755 30.3636ZM24.7498 26.848L24.7754 23.3388C25.9387 23.6776 26.6802 24.125 26.6866 25.0327C26.6802 25.9787 25.9196 26.6562 24.7498 26.848ZM23.4331 20.8267C22.551 20.5455 21.7456 20.0788 21.7583 19.1712C21.7647 18.3466 22.3848 17.7074 23.4586 17.522L23.4331 20.8267Z" fill="white"/>
</g>
<defs>
<filter id="filter0_d_1356_4771" x="0" y="0" width="86" height="52" filterUnits="userSpaceOnUse" color-interpolation-filters="sRGB">
<feFlood flood-opacity="0" result="BackgroundImageFix"/>
<feColorMatrix in="SourceAlpha" type="matrix" values="0 0 0 0 0 0 0 0 0 0 0 0 0 0 0 0 0 0 127 0" result="hardAlpha"/>
<feOffset dy="4"/>
<feGaussianBlur stdDeviation="2"/>
<feComposite in2="hardAlpha" operator="out"/>
<feColorMatrix type="matrix" values="0 0 0 0 0 0 0 0 0 0 0 0 0 0 0 0 0 0 0.25 0"/>
<feBlend mode="normal" in2="BackgroundImageFix" result="effect1_dropShadow_1356_4771"/>
<feBlend mode="normal" in="SourceGraphic" in2="effect1_dropShadow_1356_4771" result="shape"/>
</filter>
</defs>
</svg>
