<svg width="543" height="731" viewBox="0 0 543 731" fill="none" xmlns="http://www.w3.org/2000/svg">
<path d="M0 24C0 10.7452 10.7452 0 24 0H519C532.255 0 543 10.7452 543 24V707C543 720.255 532.255 731 519 731H24C10.7452 731 0 720.255 0 707V24Z" fill="#081D21"/>
<rect x="187" y="64" width="171" height="56" rx="16" fill="white" fill-opacity="0.06"/>
<rect x="213.5" y="76" width="32" height="32" rx="16" fill="#E5F0FF"/>
<path d="M231.65 97.4469L223.875 95.2219V86.7969H226.225L232.6 89.1969C233.05 89.3635 233.429 89.6344 233.738 90.0094C234.046 90.3844 234.2 90.9219 234.2 91.6219H232.6C231.783 91.6219 231.188 91.5969 230.812 91.5469C230.438 91.4969 230.042 91.4052 229.625 91.2719L227.8 90.6719L227.55 91.3719L229.425 92.0219C229.808 92.1552 230.238 92.2469 230.713 92.2969C231.188 92.3469 231.675 92.3719 232.175 92.3719H237.05C238 92.3719 238.646 92.5552 238.988 92.9219C239.329 93.2885 239.5 93.7802 239.5 94.3969V95.0469L231.65 97.4469ZM218.5 96.6469V86.7969H222.35V96.6469H218.5Z" fill="#0F2E35"/>
<path d="M262.778 97.5V85.8636H267.04C267.866 85.8636 268.549 86 269.091 86.2727C269.633 86.5417 270.038 86.9072 270.307 87.3693C270.576 87.8277 270.71 88.3447 270.71 88.9205C270.71 89.4053 270.621 89.8144 270.443 90.1477C270.265 90.4773 270.027 90.7424 269.727 90.9432C269.432 91.1402 269.106 91.2841 268.75 91.375V91.4886C269.136 91.5076 269.513 91.6326 269.881 91.8636C270.252 92.0909 270.559 92.4148 270.801 92.8352C271.044 93.2557 271.165 93.767 271.165 94.3693C271.165 94.964 271.025 95.4981 270.744 95.9716C270.468 96.4413 270.04 96.8144 269.46 97.0909C268.881 97.3636 268.14 97.5 267.239 97.5H262.778ZM264.534 95.9943H267.068C267.909 95.9943 268.511 95.8314 268.875 95.5057C269.239 95.1799 269.42 94.7727 269.42 94.2841C269.42 93.9167 269.328 93.5795 269.142 93.2727C268.956 92.9659 268.691 92.7216 268.347 92.5398C268.006 92.358 267.6 92.267 267.131 92.267H264.534V95.9943ZM264.534 90.8977H266.886C267.28 90.8977 267.634 90.822 267.949 90.6705C268.267 90.5189 268.519 90.3068 268.705 90.0341C268.894 89.7576 268.989 89.4318 268.989 89.0568C268.989 88.5758 268.82 88.1723 268.483 87.8466C268.146 87.5208 267.629 87.358 266.932 87.358H264.534V90.8977ZM276.787 97.6761C275.969 97.6761 275.255 97.4886 274.645 97.1136C274.035 96.7386 273.562 96.214 273.224 95.5398C272.887 94.8655 272.719 94.0777 272.719 93.1761C272.719 92.2708 272.887 91.4792 273.224 90.8011C273.562 90.1231 274.035 89.5966 274.645 89.2216C275.255 88.8466 275.969 88.6591 276.787 88.6591C277.605 88.6591 278.319 88.8466 278.929 89.2216C279.539 89.5966 280.012 90.1231 280.349 90.8011C280.687 91.4792 280.855 92.2708 280.855 93.1761C280.855 94.0777 280.687 94.8655 280.349 95.5398C280.012 96.214 279.539 96.7386 278.929 97.1136C278.319 97.4886 277.605 97.6761 276.787 97.6761ZM276.793 96.25C277.323 96.25 277.762 96.1098 278.111 95.8295C278.459 95.5492 278.717 95.1761 278.884 94.7102C279.054 94.2443 279.139 93.7311 279.139 93.1705C279.139 92.6136 279.054 92.1023 278.884 91.6364C278.717 91.1667 278.459 90.7898 278.111 90.5057C277.762 90.2216 277.323 90.0795 276.793 90.0795C276.259 90.0795 275.815 90.2216 275.463 90.5057C275.115 90.7898 274.855 91.1667 274.685 91.6364C274.518 92.1023 274.435 92.6136 274.435 93.1705C274.435 93.7311 274.518 94.2443 274.685 94.7102C274.855 95.1761 275.115 95.5492 275.463 95.8295C275.815 96.1098 276.259 96.25 276.793 96.25ZM282.751 97.5V88.7727H284.393V90.1591H284.484C284.643 89.6894 284.924 89.3201 285.325 89.0511C285.731 88.7784 286.189 88.642 286.7 88.642C286.806 88.642 286.931 88.6458 287.075 88.6534C287.223 88.661 287.339 88.6705 287.422 88.6818V90.3068C287.354 90.2879 287.232 90.267 287.058 90.2443C286.884 90.2178 286.71 90.2045 286.536 90.2045C286.134 90.2045 285.776 90.2898 285.462 90.4602C285.151 90.6269 284.905 90.8598 284.723 91.1591C284.541 91.4545 284.45 91.7917 284.45 92.1705V97.5H282.751ZM288.892 97.5V88.7727H290.534V90.1591H290.625C290.784 89.6894 291.064 89.3201 291.466 89.0511C291.871 88.7784 292.33 88.642 292.841 88.642C292.947 88.642 293.072 88.6458 293.216 88.6534C293.364 88.661 293.479 88.6705 293.562 88.6818V90.3068C293.494 90.2879 293.373 90.267 293.199 90.2443C293.025 90.2178 292.85 90.2045 292.676 90.2045C292.275 90.2045 291.917 90.2898 291.602 90.4602C291.292 90.6269 291.045 90.8598 290.864 91.1591C290.682 91.4545 290.591 91.7917 290.591 92.1705V97.5H288.892ZM298.396 97.6761C297.578 97.6761 296.864 97.4886 296.254 97.1136C295.644 96.7386 295.171 96.214 294.834 95.5398C294.497 94.8655 294.328 94.0777 294.328 93.1761C294.328 92.2708 294.497 91.4792 294.834 90.8011C295.171 90.1231 295.644 89.5966 296.254 89.2216C296.864 88.8466 297.578 88.6591 298.396 88.6591C299.214 88.6591 299.929 88.8466 300.538 89.2216C301.148 89.5966 301.622 90.1231 301.959 90.8011C302.296 91.4792 302.464 92.2708 302.464 93.1761C302.464 94.0777 302.296 94.8655 301.959 95.5398C301.622 96.214 301.148 96.7386 300.538 97.1136C299.929 97.4886 299.214 97.6761 298.396 97.6761ZM298.402 96.25C298.932 96.25 299.372 96.1098 299.72 95.8295C300.069 95.5492 300.326 95.1761 300.493 94.7102C300.663 94.2443 300.749 93.7311 300.749 93.1705C300.749 92.6136 300.663 92.1023 300.493 91.6364C300.326 91.1667 300.069 90.7898 299.72 90.5057C299.372 90.2216 298.932 90.0795 298.402 90.0795C297.868 90.0795 297.425 90.2216 297.072 90.5057C296.724 90.7898 296.464 91.1667 296.294 91.6364C296.127 92.1023 296.044 92.6136 296.044 93.1705C296.044 93.7311 296.127 94.2443 296.294 94.7102C296.464 95.1761 296.724 95.5492 297.072 95.8295C297.425 96.1098 297.868 96.25 298.402 96.25ZM305.987 97.5L303.419 88.7727H305.175L306.885 95.1818H306.97L308.686 88.7727H310.442L312.146 95.1534H312.232L313.93 88.7727H315.686L313.124 97.5H311.391L309.618 91.1989H309.487L307.714 97.5H305.987ZM320.794 97.6761C319.934 97.6761 319.194 97.4924 318.572 97.125C317.955 96.7538 317.478 96.233 317.141 95.5625C316.807 94.8883 316.641 94.0985 316.641 93.1932C316.641 92.2992 316.807 91.5114 317.141 90.8295C317.478 90.1477 317.947 89.6155 318.55 89.233C319.156 88.8504 319.864 88.6591 320.675 88.6591C321.167 88.6591 321.644 88.7405 322.107 88.9034C322.569 89.0663 322.983 89.322 323.351 89.6705C323.718 90.0189 324.008 90.4716 324.22 91.0284C324.432 91.5814 324.538 92.2538 324.538 93.0455V93.6477H317.601V92.375H322.874C322.874 91.928 322.783 91.5322 322.601 91.1875C322.419 90.839 322.163 90.5644 321.834 90.3636C321.508 90.1629 321.125 90.0625 320.686 90.0625C320.209 90.0625 319.792 90.1799 319.436 90.4148C319.084 90.6458 318.811 90.9489 318.618 91.3239C318.429 91.6951 318.334 92.0985 318.334 92.5341V93.5284C318.334 94.1117 318.436 94.608 318.641 95.017C318.849 95.4261 319.139 95.7386 319.51 95.9545C319.881 96.1667 320.315 96.2727 320.811 96.2727C321.133 96.2727 321.427 96.2273 321.692 96.1364C321.957 96.0417 322.186 95.9015 322.379 95.7159C322.572 95.5303 322.72 95.3011 322.822 95.0284L324.43 95.3182C324.302 95.7917 324.071 96.2064 323.737 96.5625C323.408 96.9148 322.993 97.1894 322.493 97.3864C321.997 97.5795 321.43 97.6761 320.794 97.6761ZM326.423 97.5V88.7727H328.065V90.1591H328.156C328.315 89.6894 328.596 89.3201 328.997 89.0511C329.402 88.7784 329.861 88.642 330.372 88.642C330.478 88.642 330.603 88.6458 330.747 88.6534C330.895 88.661 331.01 88.6705 331.094 88.6818V90.3068C331.026 90.2879 330.904 90.267 330.73 90.2443C330.556 90.2178 330.382 90.2045 330.207 90.2045C329.806 90.2045 329.448 90.2898 329.134 90.4602C328.823 90.6269 328.577 90.8598 328.395 91.1591C328.213 91.4545 328.122 91.7917 328.122 92.1705V97.5H326.423Z" fill="#F8F1FE"/>
<rect x="186.5" y="290" width="171" height="56" rx="16" fill="white" fill-opacity="0.06"/>
<rect x="198.5" y="302" width="32" height="32" rx="16" fill="#E5F0FF"/>
<path d="M208.5 326C207.4 326 206.458 325.608 205.675 324.825C204.892 324.042 204.5 323.1 204.5 322V314C204.5 312.9 204.892 311.958 205.675 311.175C206.458 310.392 207.4 310 208.5 310H220.5C221.6 310 222.542 310.392 223.325 311.175C224.108 311.958 224.5 312.9 224.5 314V322C224.5 323.1 224.108 324.042 223.325 324.825C222.542 325.608 221.6 326 220.5 326H208.5ZM208.5 314.25H220.5C220.983 314.25 221.438 314.325 221.863 314.475C222.288 314.625 222.667 314.842 223 315.125V314C223 313.3 222.758 312.708 222.275 312.225C221.792 311.742 221.2 311.5 220.5 311.5H208.5C207.8 311.5 207.208 311.742 206.725 312.225C206.242 312.708 206 313.3 206 314V315.125C206.333 314.842 206.713 314.625 207.138 314.475C207.562 314.325 208.017 314.25 208.5 314.25ZM206.075 317.65L218 320.525C218.117 320.558 218.238 320.562 218.363 320.538C218.488 320.512 218.592 320.458 218.675 320.375L222.675 317.025C222.458 316.642 222.158 316.333 221.775 316.1C221.392 315.867 220.967 315.75 220.5 315.75H208.5C207.917 315.75 207.4 315.929 206.95 316.287C206.5 316.646 206.208 317.1 206.075 317.65Z" fill="#0F2E35"/>
<path d="M247.778 323.5V311.864H251.926C252.828 311.864 253.576 312.019 254.17 312.33C254.769 312.64 255.216 313.07 255.511 313.619C255.807 314.165 255.955 314.795 255.955 315.511C255.955 316.223 255.805 316.85 255.506 317.392C255.21 317.93 254.763 318.348 254.165 318.648C253.57 318.947 252.822 319.097 251.92 319.097H248.778V317.585H251.761C252.33 317.585 252.792 317.504 253.148 317.341C253.508 317.178 253.771 316.941 253.938 316.631C254.104 316.32 254.188 315.947 254.188 315.511C254.188 315.072 254.102 314.691 253.932 314.369C253.765 314.047 253.502 313.801 253.142 313.631C252.786 313.456 252.318 313.369 251.739 313.369H249.534V323.5H247.778ZM253.523 318.25L256.398 323.5H254.398L251.58 318.25H253.523ZM261.521 323.676C260.703 323.676 259.989 323.489 259.379 323.114C258.769 322.739 258.296 322.214 257.959 321.54C257.622 320.866 257.453 320.078 257.453 319.176C257.453 318.271 257.622 317.479 257.959 316.801C258.296 316.123 258.769 315.597 259.379 315.222C259.989 314.847 260.703 314.659 261.521 314.659C262.339 314.659 263.054 314.847 263.663 315.222C264.273 315.597 264.747 316.123 265.084 316.801C265.421 317.479 265.589 318.271 265.589 319.176C265.589 320.078 265.421 320.866 265.084 321.54C264.747 322.214 264.273 322.739 263.663 323.114C263.054 323.489 262.339 323.676 261.521 323.676ZM261.527 322.25C262.057 322.25 262.497 322.11 262.845 321.83C263.194 321.549 263.451 321.176 263.618 320.71C263.788 320.244 263.874 319.731 263.874 319.17C263.874 318.614 263.788 318.102 263.618 317.636C263.451 317.167 263.194 316.79 262.845 316.506C262.497 316.222 262.057 316.08 261.527 316.08C260.993 316.08 260.55 316.222 260.197 316.506C259.849 316.79 259.589 317.167 259.419 317.636C259.252 318.102 259.169 318.614 259.169 319.17C259.169 319.731 259.252 320.244 259.419 320.71C259.589 321.176 259.849 321.549 260.197 321.83C260.55 322.11 260.993 322.25 261.527 322.25ZM271.162 323.676C270.317 323.676 269.59 323.485 268.98 323.102C268.374 322.716 267.908 322.184 267.582 321.506C267.257 320.828 267.094 320.051 267.094 319.176C267.094 318.29 267.26 317.508 267.594 316.83C267.927 316.148 268.397 315.616 269.003 315.233C269.609 314.85 270.323 314.659 271.145 314.659C271.808 314.659 272.399 314.782 272.918 315.028C273.437 315.271 273.855 315.612 274.173 316.051C274.495 316.491 274.687 317.004 274.747 317.591H273.094C273.003 317.182 272.795 316.83 272.469 316.534C272.147 316.239 271.715 316.091 271.173 316.091C270.7 316.091 270.285 316.216 269.929 316.466C269.577 316.712 269.302 317.064 269.105 317.523C268.908 317.977 268.81 318.515 268.81 319.136C268.81 319.773 268.906 320.322 269.099 320.784C269.293 321.246 269.565 321.604 269.918 321.858C270.274 322.112 270.692 322.239 271.173 322.239C271.495 322.239 271.787 322.18 272.048 322.062C272.313 321.941 272.535 321.769 272.713 321.545C272.895 321.322 273.022 321.053 273.094 320.739H274.747C274.687 321.303 274.503 321.807 274.196 322.25C273.889 322.693 273.478 323.042 272.963 323.295C272.452 323.549 271.851 323.676 271.162 323.676ZM278.126 320.54L278.115 318.466H278.411L281.888 314.773H283.922L279.956 318.977H279.689L278.126 320.54ZM276.564 323.5V311.864H278.263V323.5H276.564ZM282.075 323.5L278.95 319.352L280.121 318.165L284.161 323.5H282.075ZM288.787 323.676C287.969 323.676 287.255 323.489 286.645 323.114C286.035 322.739 285.562 322.214 285.224 321.54C284.887 320.866 284.719 320.078 284.719 319.176C284.719 318.271 284.887 317.479 285.224 316.801C285.562 316.123 286.035 315.597 286.645 315.222C287.255 314.847 287.969 314.659 288.787 314.659C289.605 314.659 290.319 314.847 290.929 315.222C291.539 315.597 292.012 316.123 292.349 316.801C292.687 317.479 292.855 318.271 292.855 319.176C292.855 320.078 292.687 320.866 292.349 321.54C292.012 322.214 291.539 322.739 290.929 323.114C290.319 323.489 289.605 323.676 288.787 323.676ZM288.793 322.25C289.323 322.25 289.762 322.11 290.111 321.83C290.459 321.549 290.717 321.176 290.884 320.71C291.054 320.244 291.139 319.731 291.139 319.17C291.139 318.614 291.054 318.102 290.884 317.636C290.717 317.167 290.459 316.79 290.111 316.506C289.762 316.222 289.323 316.08 288.793 316.08C288.259 316.08 287.815 316.222 287.463 316.506C287.115 316.79 286.855 317.167 286.685 317.636C286.518 318.102 286.435 318.614 286.435 319.17C286.435 319.731 286.518 320.244 286.685 320.71C286.855 321.176 287.115 321.549 287.463 321.83C287.815 322.11 288.259 322.25 288.793 322.25ZM301.401 323.5L298.173 311.864H300.02L302.287 320.875H302.395L304.753 311.864H306.582L308.94 320.881H309.048L311.31 311.864H313.162L309.929 323.5H308.162L305.713 314.784H305.622L303.173 323.5H301.401ZM316.307 323.693C315.754 323.693 315.254 323.591 314.807 323.386C314.36 323.178 314.006 322.877 313.744 322.483C313.487 322.089 313.358 321.606 313.358 321.034C313.358 320.542 313.453 320.136 313.642 319.818C313.831 319.5 314.087 319.248 314.409 319.062C314.731 318.877 315.091 318.737 315.489 318.642C315.886 318.547 316.292 318.475 316.705 318.426C317.227 318.366 317.652 318.316 317.977 318.278C318.303 318.237 318.54 318.17 318.688 318.08C318.835 317.989 318.909 317.841 318.909 317.636V317.597C318.909 317.1 318.769 316.716 318.489 316.443C318.212 316.17 317.799 316.034 317.25 316.034C316.678 316.034 316.227 316.161 315.898 316.415C315.572 316.665 315.347 316.943 315.222 317.25L313.625 316.886C313.814 316.356 314.091 315.928 314.455 315.602C314.822 315.273 315.244 315.034 315.722 314.886C316.199 314.735 316.701 314.659 317.227 314.659C317.576 314.659 317.945 314.701 318.335 314.784C318.729 314.864 319.097 315.011 319.438 315.227C319.782 315.443 320.064 315.752 320.284 316.153C320.504 316.551 320.614 317.068 320.614 317.705V323.5H318.955V322.307H318.886C318.777 322.527 318.612 322.742 318.392 322.955C318.172 323.167 317.89 323.343 317.545 323.483C317.201 323.623 316.788 323.693 316.307 323.693ZM316.676 322.33C317.146 322.33 317.547 322.237 317.881 322.051C318.218 321.866 318.473 321.623 318.648 321.324C318.826 321.021 318.915 320.697 318.915 320.352V319.227C318.854 319.288 318.737 319.345 318.562 319.398C318.392 319.447 318.197 319.491 317.977 319.528C317.758 319.562 317.544 319.595 317.335 319.625C317.127 319.652 316.953 319.674 316.812 319.693C316.483 319.735 316.182 319.805 315.909 319.903C315.64 320.002 315.424 320.144 315.261 320.33C315.102 320.511 315.023 320.754 315.023 321.057C315.023 321.477 315.178 321.795 315.489 322.011C315.799 322.223 316.195 322.33 316.676 322.33ZM324.575 311.864V323.5H322.876V311.864H324.575ZM328.56 311.864V323.5H326.861V311.864H328.56ZM334.607 323.676C333.747 323.676 333.006 323.492 332.385 323.125C331.768 322.754 331.29 322.233 330.953 321.562C330.62 320.888 330.453 320.098 330.453 319.193C330.453 318.299 330.62 317.511 330.953 316.83C331.29 316.148 331.76 315.616 332.362 315.233C332.968 314.85 333.677 314.659 334.487 314.659C334.98 314.659 335.457 314.741 335.919 314.903C336.381 315.066 336.796 315.322 337.163 315.67C337.531 316.019 337.821 316.472 338.033 317.028C338.245 317.581 338.351 318.254 338.351 319.045V319.648H331.413V318.375H336.686C336.686 317.928 336.595 317.532 336.413 317.188C336.232 316.839 335.976 316.564 335.646 316.364C335.321 316.163 334.938 316.062 334.499 316.062C334.021 316.062 333.605 316.18 333.249 316.415C332.896 316.646 332.624 316.949 332.43 317.324C332.241 317.695 332.146 318.098 332.146 318.534V319.528C332.146 320.112 332.249 320.608 332.453 321.017C332.661 321.426 332.951 321.739 333.322 321.955C333.694 322.167 334.127 322.273 334.624 322.273C334.946 322.273 335.239 322.227 335.504 322.136C335.769 322.042 335.999 321.902 336.192 321.716C336.385 321.53 336.533 321.301 336.635 321.028L338.243 321.318C338.114 321.792 337.883 322.206 337.55 322.562C337.22 322.915 336.805 323.189 336.305 323.386C335.809 323.58 335.243 323.676 334.607 323.676ZM344.31 314.773V316.136H339.543V314.773H344.31ZM340.821 312.682H342.52V320.938C342.52 321.267 342.569 321.515 342.668 321.682C342.766 321.845 342.893 321.956 343.048 322.017C343.207 322.074 343.38 322.102 343.565 322.102C343.702 322.102 343.821 322.093 343.923 322.074C344.026 322.055 344.105 322.04 344.162 322.028L344.469 323.432C344.37 323.47 344.23 323.508 344.048 323.545C343.866 323.587 343.639 323.61 343.366 323.614C342.92 323.621 342.503 323.542 342.116 323.375C341.73 323.208 341.418 322.951 341.179 322.602C340.94 322.254 340.821 321.816 340.821 321.29V312.682Z" fill="#F8F1FE"/>
<rect x="112" y="420" width="319" height="257" rx="15" stroke="#1C373C" stroke-width="2" stroke-dasharray="8 8"/>
<g opacity="0.8">
<path d="M270 547.302V531.852L256.5 524.052V539.502L270 547.302ZM273 547.302L286.5 539.502V524.002L273 531.843V547.302ZM271.5 529.302L284.8 521.552L271.5 513.852L258.15 521.552L271.5 529.302ZM255 542.102C254.525 541.821 254.156 541.45 253.894 540.991C253.631 540.531 253.5 540.035 253.5 539.502V522.502C253.5 521.968 253.631 521.472 253.894 521.012C254.156 520.553 254.525 520.182 255 519.902L270 511.252C270.478 510.985 270.98 510.852 271.508 510.852C272.036 510.852 272.533 510.985 273 511.252L288 519.902C288.475 520.182 288.844 520.553 289.106 521.012C289.369 521.472 289.5 521.968 289.5 522.502V539.502C289.5 540.035 289.369 540.531 289.106 540.991C288.844 541.45 288.475 541.821 288 542.102L273 550.752C272.522 551.018 272.02 551.152 271.492 551.152C270.964 551.152 270.467 551.018 270 550.752L255 542.102Z" fill="white"/>
<path d="M270 483.302V467.852L256.5 460.052V475.502L270 483.302ZM273 483.302L286.5 475.502V460.002L273 467.843V483.302ZM271.5 465.302L284.8 457.552L271.5 449.852L258.15 457.552L271.5 465.302ZM255 478.102C254.525 477.821 254.156 477.45 253.894 476.991C253.631 476.531 253.5 476.035 253.5 475.502V458.502C253.5 457.968 253.631 457.472 253.894 457.012C254.156 456.553 254.525 456.182 255 455.902L270 447.252C270.478 446.985 270.98 446.852 271.508 446.852C272.036 446.852 272.533 446.985 273 447.252L288 455.902C288.475 456.182 288.844 456.553 289.106 457.012C289.369 457.472 289.5 457.968 289.5 458.502V475.502C289.5 476.035 289.369 476.531 289.106 476.991C288.844 477.45 288.475 477.821 288 478.102L273 486.752C272.522 487.018 272.02 487.152 271.492 487.152C270.964 487.152 270.467 487.018 270 486.752L255 478.102Z" fill="white"/>
<line x1="279.761" y1="471.573" x2="317.708" y2="494.764" stroke="white" stroke-dasharray="1 1"/>
<line x1="215.761" y1="503.573" x2="253.708" y2="526.764" stroke="white" stroke-dasharray="1 1"/>
<line x1="215.761" y1="566.573" x2="253.708" y2="589.764" stroke="white" stroke-dasharray="1 1"/>
<line x1="289.25" y1="526.801" x2="327.764" y2="504.565" stroke="white" stroke-dasharray="1 1"/>
<line x1="289.25" y1="590.801" x2="327.764" y2="568.565" stroke="white" stroke-dasharray="1 1"/>
<line x1="207" y1="519" x2="207" y2="545" stroke="white" stroke-dasharray="1 1"/>
<path d="M334 515.302V499.852L320.5 492.052V507.502L334 515.302ZM337 515.302L350.5 507.502V492.002L337 499.843V515.302ZM335.5 497.302L348.8 489.552L335.5 481.852L322.15 489.552L335.5 497.302ZM319 510.102C318.525 509.821 318.156 509.45 317.894 508.991C317.631 508.531 317.5 508.035 317.5 507.502V490.502C317.5 489.968 317.631 489.472 317.894 489.012C318.156 488.553 318.525 488.182 319 487.902L334 479.252C334.478 478.985 334.98 478.852 335.508 478.852C336.036 478.852 336.533 478.985 337 479.252L352 487.902C352.475 488.182 352.844 488.553 353.106 489.012C353.369 489.472 353.5 489.968 353.5 490.502V507.502C353.5 508.035 353.369 508.531 353.106 508.991C352.844 509.45 352.475 509.821 352 510.102L337 518.752C336.522 519.018 336.02 519.152 335.492 519.152C334.964 519.152 334.467 519.018 334 518.752L319 510.102Z" fill="white"/>
<path d="M334 579.302V563.852L320.5 556.052V571.502L334 579.302ZM337 579.302L350.5 571.502V556.002L337 563.843V579.302ZM335.5 561.302L348.8 553.552L335.5 545.852L322.15 553.552L335.5 561.302ZM319 574.102C318.525 573.821 318.156 573.45 317.894 572.991C317.631 572.531 317.5 572.035 317.5 571.502V554.502C317.5 553.968 317.631 553.472 317.894 553.012C318.156 552.553 318.525 552.182 319 551.902L334 543.252C334.478 542.985 334.98 542.852 335.508 542.852C336.036 542.852 336.533 542.985 337 543.252L352 551.902C352.475 552.182 352.844 552.553 353.106 553.012C353.369 553.472 353.5 553.968 353.5 554.502V571.502C353.5 572.035 353.369 572.531 353.106 572.991C352.844 573.45 352.475 573.821 352 574.102L337 582.752C336.522 583.018 336.02 583.152 335.492 583.152C334.964 583.152 334.467 583.018 334 582.752L319 574.102Z" fill="white"/>
<path d="M206 579.302V563.852L192.5 556.052V571.502L206 579.302ZM209 579.302L222.5 571.502V556.002L209 563.843V579.302ZM207.5 561.302L220.8 553.552L207.5 545.852L194.15 553.552L207.5 561.302ZM191 574.102C190.525 573.821 190.156 573.45 189.894 572.991C189.631 572.531 189.5 572.035 189.5 571.502V554.502C189.5 553.968 189.631 553.472 189.894 553.012C190.156 552.553 190.525 552.182 191 551.902L206 543.252C206.478 542.985 206.98 542.852 207.508 542.852C208.036 542.852 208.533 542.985 209 543.252L224 551.902C224.475 552.182 224.844 552.553 225.106 553.012C225.369 553.472 225.5 553.968 225.5 554.502V571.502C225.5 572.035 225.369 572.531 225.106 572.991C224.844 573.45 224.475 573.821 224 574.102L209 582.752C208.522 583.018 208.02 583.152 207.492 583.152C206.964 583.152 206.467 583.018 206 582.752L191 574.102Z" fill="white"/>
<path d="M206 515.302V499.852L192.5 492.052V507.502L206 515.302ZM209 515.302L222.5 507.502V492.002L209 499.843V515.302ZM207.5 497.302L220.8 489.552L207.5 481.852L194.15 489.552L207.5 497.302ZM191 510.102C190.525 509.821 190.156 509.45 189.894 508.991C189.631 508.531 189.5 508.035 189.5 507.502V490.502C189.5 489.968 189.631 489.472 189.894 489.012C190.156 488.553 190.525 488.182 191 487.902L206 479.252C206.478 478.985 206.98 478.852 207.508 478.852C208.036 478.852 208.533 478.985 209 479.252L224 487.902C224.475 488.182 224.844 488.553 225.106 489.012C225.369 489.472 225.5 489.968 225.5 490.502V507.502C225.5 508.035 225.369 508.531 225.106 508.991C224.844 509.45 224.475 509.821 224 510.102L209 518.752C208.522 519.018 208.02 519.152 207.492 519.152C206.964 519.152 206.467 519.018 206 518.752L191 510.102Z" fill="white"/>
<path d="M270 611.302V595.852L256.5 588.052V603.502L270 611.302ZM273 611.302L286.5 603.502V588.002L273 595.843V611.302ZM271.5 593.302L284.8 585.552L271.5 577.852L258.15 585.552L271.5 593.302ZM255 606.102C254.525 605.821 254.156 605.45 253.894 604.991C253.631 604.531 253.5 604.035 253.5 603.502V586.502C253.5 585.968 253.631 585.472 253.894 585.012C254.156 584.553 254.525 584.182 255 583.902L270 575.252C270.478 574.985 270.98 574.852 271.508 574.852C272.036 574.852 272.533 574.985 273 575.252L288 583.902C288.475 584.182 288.844 584.553 289.106 585.012C289.369 585.472 289.5 585.968 289.5 586.502V603.502C289.5 604.035 289.369 604.531 289.106 604.991C288.844 605.45 288.475 605.821 288 606.102L273 614.752C272.522 615.018 272.02 615.152 271.492 615.152C270.964 615.152 270.467 615.018 270 614.752L255 606.102Z" fill="white"/>
</g>
<path d="M194.545 650H190.778V638.364H194.665C195.805 638.364 196.784 638.597 197.602 639.062C198.42 639.525 199.047 640.189 199.483 641.057C199.922 641.92 200.142 642.956 200.142 644.165C200.142 645.377 199.92 646.419 199.477 647.29C199.038 648.161 198.402 648.831 197.568 649.301C196.735 649.767 195.727 650 194.545 650ZM192.534 648.466H194.449C195.335 648.466 196.072 648.299 196.659 647.966C197.246 647.629 197.686 647.142 197.977 646.506C198.269 645.866 198.415 645.085 198.415 644.165C198.415 643.252 198.269 642.477 197.977 641.841C197.689 641.205 197.259 640.722 196.688 640.392C196.116 640.062 195.405 639.898 194.557 639.898H192.534V648.466ZM205.95 650.176C205.09 650.176 204.35 649.992 203.729 649.625C203.111 649.254 202.634 648.733 202.297 648.062C201.964 647.388 201.797 646.598 201.797 645.693C201.797 644.799 201.964 644.011 202.297 643.33C202.634 642.648 203.104 642.116 203.706 641.733C204.312 641.35 205.02 641.159 205.831 641.159C206.323 641.159 206.801 641.241 207.263 641.403C207.725 641.566 208.14 641.822 208.507 642.17C208.875 642.519 209.164 642.972 209.376 643.528C209.589 644.081 209.695 644.754 209.695 645.545V646.148H202.757V644.875H208.03C208.03 644.428 207.939 644.032 207.757 643.688C207.575 643.339 207.32 643.064 206.99 642.864C206.664 642.663 206.282 642.562 205.842 642.562C205.365 642.562 204.948 642.68 204.592 642.915C204.24 643.146 203.967 643.449 203.774 643.824C203.585 644.195 203.49 644.598 203.49 645.034V646.028C203.49 646.612 203.592 647.108 203.797 647.517C204.005 647.926 204.295 648.239 204.666 648.455C205.037 648.667 205.471 648.773 205.967 648.773C206.289 648.773 206.583 648.727 206.848 648.636C207.113 648.542 207.342 648.402 207.536 648.216C207.729 648.03 207.876 647.801 207.979 647.528L209.587 647.818C209.458 648.292 209.227 648.706 208.893 649.062C208.564 649.415 208.149 649.689 207.649 649.886C207.153 650.08 206.587 650.176 205.95 650.176ZM211.716 650V638.364H218.932V639.875H213.472V643.42H218.415V644.926H213.472V650H211.716ZM220.955 650V641.273H222.653V650H220.955ZM221.812 639.926C221.517 639.926 221.263 639.828 221.051 639.631C220.843 639.43 220.739 639.191 220.739 638.915C220.739 638.634 220.843 638.396 221.051 638.199C221.263 637.998 221.517 637.898 221.812 637.898C222.108 637.898 222.36 637.998 222.568 638.199C222.78 638.396 222.886 638.634 222.886 638.915C222.886 639.191 222.78 639.43 222.568 639.631C222.36 639.828 222.108 639.926 221.812 639.926ZM225.075 650V638.364H226.831V648.489H232.104V650H225.075ZM237.732 650.176C236.872 650.176 236.131 649.992 235.51 649.625C234.893 649.254 234.415 648.733 234.078 648.062C233.745 647.388 233.578 646.598 233.578 645.693C233.578 644.799 233.745 644.011 234.078 643.33C234.415 642.648 234.885 642.116 235.487 641.733C236.093 641.35 236.802 641.159 237.612 641.159C238.105 641.159 238.582 641.241 239.044 641.403C239.506 641.566 239.921 641.822 240.288 642.17C240.656 642.519 240.946 642.972 241.158 643.528C241.37 644.081 241.476 644.754 241.476 645.545V646.148H234.538V644.875H239.811C239.811 644.428 239.72 644.032 239.538 643.688C239.357 643.339 239.101 643.064 238.771 642.864C238.446 642.663 238.063 642.562 237.624 642.562C237.146 642.562 236.73 642.68 236.374 642.915C236.021 643.146 235.749 643.449 235.555 643.824C235.366 644.195 235.271 644.598 235.271 645.034V646.028C235.271 646.612 235.374 647.108 235.578 647.517C235.786 647.926 236.076 648.239 236.447 648.455C236.819 648.667 237.252 648.773 237.749 648.773C238.071 648.773 238.364 648.727 238.629 648.636C238.894 648.542 239.124 648.402 239.317 648.216C239.51 648.03 239.658 647.801 239.76 647.528L241.368 647.818C241.239 648.292 241.008 648.706 240.675 649.062C240.345 649.415 239.93 649.689 239.43 649.886C238.934 650.08 238.368 650.176 237.732 650.176ZM245.06 644.818V650H243.361V641.273H244.991V642.693H245.099C245.3 642.231 245.615 641.86 246.043 641.58C246.474 641.299 247.018 641.159 247.673 641.159C248.268 641.159 248.789 641.284 249.236 641.534C249.683 641.78 250.029 642.148 250.276 642.636C250.522 643.125 250.645 643.729 250.645 644.449V650H248.946V644.653C248.946 644.021 248.781 643.527 248.452 643.17C248.122 642.811 247.67 642.631 247.094 642.631C246.7 642.631 246.349 642.716 246.043 642.886C245.74 643.057 245.499 643.307 245.321 643.636C245.147 643.962 245.06 644.356 245.06 644.818ZM256.19 650.17C255.486 650.17 254.857 649.991 254.304 649.631C253.755 649.267 253.323 648.75 253.009 648.08C252.698 647.405 252.543 646.597 252.543 645.653C252.543 644.71 252.7 643.903 253.014 643.233C253.332 642.562 253.768 642.049 254.321 641.693C254.874 641.337 255.501 641.159 256.202 641.159C256.743 641.159 257.179 641.25 257.509 641.432C257.842 641.61 258.099 641.818 258.281 642.057C258.467 642.295 258.611 642.506 258.713 642.688H258.815V638.364H260.514V650H258.855V648.642H258.713C258.611 648.828 258.463 649.04 258.27 649.278C258.08 649.517 257.819 649.725 257.486 649.903C257.152 650.081 256.721 650.17 256.19 650.17ZM256.565 648.722C257.054 648.722 257.467 648.593 257.804 648.335C258.145 648.074 258.402 647.712 258.577 647.25C258.755 646.788 258.844 646.25 258.844 645.636C258.844 645.03 258.757 644.5 258.582 644.045C258.408 643.591 258.152 643.237 257.815 642.983C257.478 642.729 257.062 642.602 256.565 642.602C256.054 642.602 255.628 642.735 255.287 643C254.946 643.265 254.688 643.627 254.514 644.085C254.344 644.544 254.259 645.061 254.259 645.636C254.259 646.22 254.346 646.744 254.52 647.21C254.694 647.676 254.952 648.045 255.293 648.318C255.637 648.587 256.062 648.722 256.565 648.722ZM262.939 650V641.273H264.638V650H262.939ZM263.797 639.926C263.501 639.926 263.248 639.828 263.036 639.631C262.827 639.43 262.723 639.191 262.723 638.915C262.723 638.634 262.827 638.396 263.036 638.199C263.248 637.998 263.501 637.898 263.797 637.898C264.092 637.898 264.344 637.998 264.553 638.199C264.765 638.396 264.871 638.634 264.871 638.915C264.871 639.191 264.765 639.43 264.553 639.631C264.344 639.828 264.092 639.926 263.797 639.926ZM268.622 644.818V650H266.923V641.273H268.554V642.693H268.662C268.863 642.231 269.177 641.86 269.605 641.58C270.037 641.299 270.58 641.159 271.236 641.159C271.83 641.159 272.351 641.284 272.798 641.534C273.245 641.78 273.592 642.148 273.838 642.636C274.084 643.125 274.207 643.729 274.207 644.449V650H272.509V644.653C272.509 644.021 272.344 643.527 272.014 643.17C271.685 642.811 271.232 642.631 270.656 642.631C270.262 642.631 269.912 642.716 269.605 642.886C269.302 643.057 269.062 643.307 268.884 643.636C268.709 643.962 268.622 644.356 268.622 644.818ZM280.145 653.455C279.452 653.455 278.855 653.364 278.355 653.182C277.859 653 277.454 652.759 277.139 652.46C276.825 652.161 276.59 651.833 276.435 651.477L277.895 650.875C277.997 651.042 278.134 651.218 278.304 651.403C278.478 651.593 278.713 651.754 279.009 651.886C279.308 652.019 279.692 652.085 280.162 652.085C280.806 652.085 281.338 651.928 281.759 651.614C282.179 651.303 282.389 650.807 282.389 650.125V648.409H282.281C282.179 648.595 282.031 648.801 281.838 649.028C281.649 649.256 281.387 649.453 281.054 649.619C280.721 649.786 280.287 649.869 279.753 649.869C279.063 649.869 278.442 649.708 277.889 649.386C277.34 649.061 276.904 648.581 276.582 647.949C276.264 647.312 276.105 646.53 276.105 645.602C276.105 644.674 276.262 643.879 276.577 643.216C276.895 642.553 277.33 642.045 277.884 641.693C278.437 641.337 279.063 641.159 279.764 641.159C280.306 641.159 280.743 641.25 281.077 641.432C281.41 641.61 281.67 641.818 281.855 642.057C282.045 642.295 282.19 642.506 282.293 642.688H282.418V641.273H284.082V650.193C284.082 650.943 283.908 651.559 283.56 652.04C283.211 652.521 282.74 652.877 282.145 653.108C281.554 653.339 280.887 653.455 280.145 653.455ZM280.128 648.46C280.616 648.46 281.029 648.347 281.366 648.119C281.707 647.888 281.965 647.559 282.139 647.131C282.317 646.699 282.406 646.182 282.406 645.58C282.406 644.992 282.319 644.475 282.145 644.028C281.971 643.581 281.715 643.233 281.378 642.983C281.041 642.729 280.624 642.602 280.128 642.602C279.616 642.602 279.19 642.735 278.849 643C278.509 643.261 278.251 643.617 278.077 644.068C277.906 644.519 277.821 645.023 277.821 645.58C277.821 646.152 277.908 646.653 278.082 647.085C278.257 647.517 278.514 647.854 278.855 648.097C279.2 648.339 279.624 648.46 280.128 648.46ZM290.732 650V638.364H294.879C295.785 638.364 296.535 638.528 297.129 638.858C297.724 639.187 298.169 639.638 298.464 640.21C298.76 640.778 298.908 641.419 298.908 642.131C298.908 642.847 298.758 643.491 298.459 644.062C298.163 644.631 297.716 645.081 297.118 645.415C296.523 645.744 295.775 645.909 294.874 645.909H292.021V644.42H294.714C295.286 644.42 295.75 644.322 296.107 644.125C296.463 643.924 296.724 643.652 296.891 643.307C297.057 642.962 297.141 642.57 297.141 642.131C297.141 641.691 297.057 641.301 296.891 640.96C296.724 640.619 296.461 640.352 296.101 640.159C295.745 639.966 295.275 639.869 294.692 639.869H292.487V650H290.732ZM300.83 650V641.273H302.472V642.659H302.562C302.722 642.189 303.002 641.82 303.403 641.551C303.809 641.278 304.267 641.142 304.778 641.142C304.884 641.142 305.009 641.146 305.153 641.153C305.301 641.161 305.417 641.17 305.5 641.182V642.807C305.432 642.788 305.311 642.767 305.136 642.744C304.962 642.718 304.788 642.705 304.614 642.705C304.212 642.705 303.854 642.79 303.54 642.96C303.229 643.127 302.983 643.36 302.801 643.659C302.619 643.955 302.528 644.292 302.528 644.67V650H300.83ZM310.334 650.176C309.516 650.176 308.802 649.989 308.192 649.614C307.582 649.239 307.108 648.714 306.771 648.04C306.434 647.366 306.266 646.578 306.266 645.676C306.266 644.771 306.434 643.979 306.771 643.301C307.108 642.623 307.582 642.097 308.192 641.722C308.802 641.347 309.516 641.159 310.334 641.159C311.152 641.159 311.866 641.347 312.476 641.722C313.086 642.097 313.559 642.623 313.896 643.301C314.233 643.979 314.402 644.771 314.402 645.676C314.402 646.578 314.233 647.366 313.896 648.04C313.559 648.714 313.086 649.239 312.476 649.614C311.866 649.989 311.152 650.176 310.334 650.176ZM310.339 648.75C310.87 648.75 311.309 648.61 311.658 648.33C312.006 648.049 312.264 647.676 312.43 647.21C312.601 646.744 312.686 646.231 312.686 645.67C312.686 645.114 312.601 644.602 312.43 644.136C312.264 643.667 312.006 643.29 311.658 643.006C311.309 642.722 310.87 642.58 310.339 642.58C309.805 642.58 309.362 642.722 309.01 643.006C308.661 643.29 308.402 643.667 308.232 644.136C308.065 644.602 307.982 645.114 307.982 645.67C307.982 646.231 308.065 646.744 308.232 647.21C308.402 647.676 308.661 648.049 309.01 648.33C309.362 648.61 309.805 648.75 310.339 648.75ZM320.372 641.273V642.636H315.605V641.273H320.372ZM316.884 639.182H318.582V647.438C318.582 647.767 318.632 648.015 318.73 648.182C318.829 648.345 318.955 648.456 319.111 648.517C319.27 648.574 319.442 648.602 319.628 648.602C319.764 648.602 319.884 648.593 319.986 648.574C320.088 648.555 320.168 648.54 320.224 648.528L320.531 649.932C320.433 649.97 320.293 650.008 320.111 650.045C319.929 650.087 319.702 650.11 319.429 650.114C318.982 650.121 318.565 650.042 318.179 649.875C317.793 649.708 317.48 649.451 317.241 649.102C317.003 648.754 316.884 648.316 316.884 647.79V639.182ZM325.834 650.176C325.016 650.176 324.302 649.989 323.692 649.614C323.082 649.239 322.608 648.714 322.271 648.04C321.934 647.366 321.766 646.578 321.766 645.676C321.766 644.771 321.934 643.979 322.271 643.301C322.608 642.623 323.082 642.097 323.692 641.722C324.302 641.347 325.016 641.159 325.834 641.159C326.652 641.159 327.366 641.347 327.976 641.722C328.586 642.097 329.059 642.623 329.396 643.301C329.733 643.979 329.902 644.771 329.902 645.676C329.902 646.578 329.733 647.366 329.396 648.04C329.059 648.714 328.586 649.239 327.976 649.614C327.366 649.989 326.652 650.176 325.834 650.176ZM325.839 648.75C326.37 648.75 326.809 648.61 327.158 648.33C327.506 648.049 327.764 647.676 327.93 647.21C328.101 646.744 328.186 646.231 328.186 645.67C328.186 645.114 328.101 644.602 327.93 644.136C327.764 643.667 327.506 643.29 327.158 643.006C326.809 642.722 326.37 642.58 325.839 642.58C325.305 642.58 324.862 642.722 324.51 643.006C324.161 643.29 323.902 643.667 323.732 644.136C323.565 644.602 323.482 645.114 323.482 645.67C323.482 646.231 323.565 646.744 323.732 647.21C323.902 647.676 324.161 648.049 324.51 648.33C324.862 648.61 325.305 648.75 325.839 648.75ZM335.474 650.176C334.63 650.176 333.902 649.985 333.293 649.602C332.687 649.216 332.221 648.684 331.895 648.006C331.569 647.328 331.406 646.551 331.406 645.676C331.406 644.79 331.573 644.008 331.906 643.33C332.24 642.648 332.709 642.116 333.315 641.733C333.921 641.35 334.635 641.159 335.457 641.159C336.12 641.159 336.711 641.282 337.23 641.528C337.749 641.771 338.168 642.112 338.486 642.551C338.808 642.991 338.999 643.504 339.06 644.091H337.406C337.315 643.682 337.107 643.33 336.781 643.034C336.459 642.739 336.027 642.591 335.486 642.591C335.012 642.591 334.598 642.716 334.241 642.966C333.889 643.212 333.615 643.564 333.418 644.023C333.221 644.477 333.122 645.015 333.122 645.636C333.122 646.273 333.219 646.822 333.412 647.284C333.605 647.746 333.878 648.104 334.23 648.358C334.586 648.612 335.005 648.739 335.486 648.739C335.808 648.739 336.099 648.68 336.361 648.562C336.626 648.441 336.848 648.269 337.026 648.045C337.207 647.822 337.334 647.553 337.406 647.239H339.06C338.999 647.803 338.815 648.307 338.509 648.75C338.202 649.193 337.791 649.542 337.276 649.795C336.764 650.049 336.164 650.176 335.474 650.176ZM344.553 650.176C343.734 650.176 343.02 649.989 342.411 649.614C341.801 649.239 341.327 648.714 340.99 648.04C340.653 647.366 340.484 646.578 340.484 645.676C340.484 644.771 340.653 643.979 340.99 643.301C341.327 642.623 341.801 642.097 342.411 641.722C343.02 641.347 343.734 641.159 344.553 641.159C345.371 641.159 346.085 641.347 346.695 641.722C347.304 642.097 347.778 642.623 348.115 643.301C348.452 643.979 348.621 644.771 348.621 645.676C348.621 646.578 348.452 647.366 348.115 648.04C347.778 648.714 347.304 649.239 346.695 649.614C346.085 649.989 345.371 650.176 344.553 650.176ZM344.558 648.75C345.089 648.75 345.528 648.61 345.876 648.33C346.225 648.049 346.482 647.676 346.649 647.21C346.82 646.744 346.905 646.231 346.905 645.67C346.905 645.114 346.82 644.602 346.649 644.136C346.482 643.667 346.225 643.29 345.876 643.006C345.528 642.722 345.089 642.58 344.558 642.58C344.024 642.58 343.581 642.722 343.229 643.006C342.88 643.29 342.621 643.667 342.45 644.136C342.284 644.602 342.2 645.114 342.2 645.67C342.2 646.231 342.284 646.744 342.45 647.21C342.621 647.676 342.88 648.049 343.229 648.33C343.581 648.61 344.024 648.75 344.558 648.75ZM352.216 638.364V650H350.517V638.364H352.216Z" fill="#F8F1FE"/>
<path d="M272.47 411.53C272.763 411.823 273.237 411.823 273.53 411.53L278.303 406.757C278.596 406.464 278.596 405.99 278.303 405.697C278.01 405.404 277.536 405.404 277.243 405.697L273 409.939L268.757 405.697C268.464 405.404 267.99 405.404 267.697 405.697C267.404 405.99 267.404 406.464 267.697 406.757L272.47 411.53ZM273.53 352.47C273.237 352.177 272.763 352.177 272.47 352.47L267.697 357.243C267.404 357.536 267.404 358.01 267.697 358.303C267.99 358.596 268.464 358.596 268.757 358.303L273 354.061L277.243 358.303C277.536 358.596 278.01 358.596 278.303 358.303C278.596 358.01 278.596 357.536 278.303 357.243L273.53 352.47ZM273.75 411L273.75 353L272.25 353L272.25 411L273.75 411Z" fill="#3E5559"/>
<path d="M183.53 90.5303C183.823 90.2374 183.823 89.7626 183.53 89.4697L178.757 84.6967C178.464 84.4038 177.989 84.4038 177.696 84.6967C177.404 84.9896 177.404 85.4645 177.696 85.7574L181.939 90L177.696 94.2426C177.404 94.5355 177.404 95.0104 177.696 95.3033C177.989 95.5962 178.464 95.5962 178.757 95.3033L183.53 90.5303ZM67 199.468L66.25 199.468L67 199.468ZM183 89.25C104.976 89.25 66.25 154.306 66.25 199.468L67.75 199.468C67.75 154.96 105.968 90.75 183 90.75L183 89.25ZM66.25 199.468C66.25 239.249 80.1647 269.586 101.751 289.976C123.329 310.357 152.521 320.75 183 320.75L183 319.25C152.856 319.25 124.048 308.972 102.781 288.885C81.5238 268.806 67.75 238.878 67.75 199.468L66.25 199.468Z" fill="#006AFF" fill-opacity="0.3"/>
<path d="M361.47 319.47C361.177 319.763 361.177 320.237 361.47 320.53L366.243 325.303C366.536 325.596 367.011 325.596 367.304 325.303C367.596 325.01 367.596 324.536 367.304 324.243L363.061 320L367.304 315.757C367.596 315.464 367.596 314.99 367.304 314.697C367.011 314.404 366.536 314.404 366.243 314.697L361.47 319.47ZM478 210.532L478.75 210.532L478 210.532ZM362 320.75C440.024 320.75 478.75 255.694 478.75 210.532L477.25 210.532C477.25 255.04 439.032 319.25 362 319.25L362 320.75ZM478.75 210.532C478.75 170.751 464.835 140.414 443.249 120.024C421.671 99.6431 392.479 89.25 362 89.25L362 90.75C392.144 90.75 420.952 101.028 442.219 121.115C463.476 141.194 477.25 171.122 477.25 210.532L478.75 210.532Z" fill="#7C704F" fill-opacity="0.5"/>
<rect x="20" y="190" width="94" height="32" rx="5" fill="#006AFF"/>
<path d="M51.4588 210V201.273H52.7756V208.866H56.7301V210H51.4588ZM65.4734 205.636C65.4734 206.568 65.3029 207.369 64.962 208.04C64.6211 208.707 64.1538 209.222 63.56 209.582C62.9691 209.94 62.2972 210.119 61.5444 210.119C60.7887 210.119 60.114 209.94 59.5202 209.582C58.9293 209.222 58.4634 208.706 58.1225 208.036C57.7816 207.365 57.6112 206.565 57.6112 205.636C57.6112 204.705 57.7816 203.905 58.1225 203.237C58.4634 202.567 58.9293 202.053 59.5202 201.695C60.114 201.334 60.7887 201.153 61.5444 201.153C62.2972 201.153 62.9691 201.334 63.56 201.695C64.1538 202.053 64.6211 202.567 64.962 203.237C65.3029 203.905 65.4734 204.705 65.4734 205.636ZM64.1694 205.636C64.1694 204.926 64.0543 204.328 63.8242 203.842C63.5969 203.354 63.2844 202.984 62.8867 202.734C62.4918 202.482 62.0444 202.355 61.5444 202.355C61.0415 202.355 60.5927 202.482 60.1978 202.734C59.8029 202.984 59.4904 203.354 59.2603 203.842C59.033 204.328 58.9194 204.926 58.9194 205.636C58.9194 206.347 59.033 206.946 59.2603 207.435C59.4904 207.92 59.8029 208.29 60.1978 208.543C60.5927 208.793 61.0415 208.918 61.5444 208.918C62.0444 208.918 62.4918 208.793 62.8867 208.543C63.2844 208.29 63.5969 207.92 63.8242 207.435C64.0543 206.946 64.1694 206.347 64.1694 205.636ZM67.4187 210H66.021L69.1616 201.273H70.6829L73.8235 210H72.4258L69.9585 202.858H69.8903L67.4187 210ZM67.6531 206.582H72.1871V207.69H67.6531V206.582ZM82.1278 201.273V210H80.9176L76.4815 203.599H76.4006V210H75.0838V201.273H76.3026L80.7429 207.682H80.8239V201.273H82.1278Z" fill="white"/>
<rect x="427" y="189" width="94" height="32" rx="5" fill="#7C704F"/>
<path d="M443.207 203.111H441.878C441.827 202.827 441.732 202.577 441.592 202.361C441.453 202.145 441.283 201.962 441.081 201.811C440.879 201.661 440.653 201.547 440.403 201.47C440.156 201.393 439.893 201.355 439.615 201.355C439.112 201.355 438.662 201.482 438.264 201.734C437.869 201.987 437.557 202.358 437.327 202.847C437.099 203.335 436.986 203.932 436.986 204.636C436.986 205.347 437.099 205.946 437.327 206.435C437.557 206.923 437.871 207.293 438.268 207.543C438.666 207.793 439.114 207.918 439.611 207.918C439.886 207.918 440.148 207.881 440.395 207.807C440.645 207.73 440.871 207.618 441.072 207.47C441.274 207.322 441.445 207.142 441.584 206.929C441.726 206.713 441.824 206.466 441.878 206.188L443.207 206.192C443.136 206.621 442.999 207.016 442.794 207.376C442.592 207.734 442.332 208.044 442.014 208.305C441.699 208.564 441.338 208.764 440.932 208.906C440.526 209.048 440.082 209.119 439.602 209.119C438.847 209.119 438.173 208.94 437.582 208.582C436.991 208.222 436.526 207.706 436.185 207.036C435.847 206.365 435.678 205.565 435.678 204.636C435.678 203.705 435.848 202.905 436.189 202.237C436.53 201.567 436.996 201.053 437.587 200.695C438.178 200.334 438.849 200.153 439.602 200.153C440.065 200.153 440.497 200.22 440.898 200.354C441.301 200.484 441.663 200.678 441.984 200.933C442.305 201.186 442.571 201.496 442.781 201.862C442.991 202.226 443.134 202.642 443.207 203.111ZM452.364 204.636C452.364 205.568 452.194 206.369 451.853 207.04C451.512 207.707 451.044 208.222 450.451 208.582C449.86 208.94 449.188 209.119 448.435 209.119C447.679 209.119 447.005 208.94 446.411 208.582C445.82 208.222 445.354 207.706 445.013 207.036C444.672 206.365 444.502 205.565 444.502 204.636C444.502 203.705 444.672 202.905 445.013 202.237C445.354 201.567 445.82 201.053 446.411 200.695C447.005 200.334 447.679 200.153 448.435 200.153C449.188 200.153 449.86 200.334 450.451 200.695C451.044 201.053 451.512 201.567 451.853 202.237C452.194 202.905 452.364 203.705 452.364 204.636ZM451.06 204.636C451.06 203.926 450.945 203.328 450.715 202.842C450.488 202.354 450.175 201.984 449.777 201.734C449.382 201.482 448.935 201.355 448.435 201.355C447.932 201.355 447.483 201.482 447.088 201.734C446.694 201.984 446.381 202.354 446.151 202.842C445.924 203.328 445.81 203.926 445.81 204.636C445.81 205.347 445.924 205.946 446.151 206.435C446.381 206.92 446.694 207.29 447.088 207.543C447.483 207.793 447.932 207.918 448.435 207.918C448.935 207.918 449.382 207.793 449.777 207.543C450.175 207.29 450.488 206.92 450.715 206.435C450.945 205.946 451.06 205.347 451.06 204.636ZM454.006 209V200.273H455.322V207.866H459.277V209H454.006ZM460.779 209V200.273H462.096V207.866H466.05V209H460.779ZM468.735 209H467.337L470.478 200.273H471.999L475.14 209H473.742L471.275 201.858H471.207L468.735 209ZM468.969 205.582H473.504V206.69H468.969V205.582ZM474.939 201.406V200.273H481.693V201.406H478.97V209H477.657V201.406H474.939ZM483.185 209V200.273H488.657V201.406H484.502V204.065H488.371V205.195H484.502V207.866H488.708V209H483.185ZM490.416 209V200.273H493.527C494.203 200.273 494.764 200.389 495.21 200.622C495.659 200.855 495.994 201.178 496.216 201.589C496.437 201.999 496.548 202.472 496.548 203.009C496.548 203.543 496.436 204.013 496.211 204.419C495.99 204.822 495.654 205.136 495.206 205.361C494.76 205.585 494.199 205.697 493.522 205.697H491.166V204.564H493.403C493.829 204.564 494.176 204.503 494.443 204.381C494.713 204.259 494.91 204.081 495.035 203.848C495.16 203.615 495.223 203.335 495.223 203.009C495.223 202.679 495.159 202.393 495.031 202.152C494.906 201.911 494.708 201.726 494.439 201.598C494.172 201.467 493.821 201.402 493.386 201.402H491.733V209H490.416ZM494.724 205.062L496.88 209H495.38L493.267 205.062H494.724ZM498.887 209H497.49L500.63 200.273H502.152L505.292 209H503.895L501.427 201.858H501.359L498.887 209ZM499.122 205.582H503.656V206.69H499.122V205.582ZM506.553 209V200.273H507.869V207.866H511.824V209H506.553Z" fill="white"/>
</svg>
