<svg width="32" height="32" viewBox="0 0 32 32" fill="none" xmlns="http://www.w3.org/2000/svg">
<g id="verified_FILL0_wght400_GRAD0_opsz24 1">
<path id="Vector" d="M11.4654 30L8.93203 25.7333L4.13203 24.6667L4.5987 19.7333L1.33203 16L4.5987 12.2667L4.13203 7.33333L8.93203 6.26667L11.4654 2L15.9987 3.93333L20.532 2L23.0654 6.26667L27.8654 7.33333L27.3987 12.2667L30.6654 16L27.3987 19.7333L27.8654 24.6667L23.0654 25.7333L20.532 30L15.9987 28.0667L11.4654 30ZM12.5987 26.6L15.9987 25.1333L19.4654 26.6L21.332 23.4L24.9987 22.5333L24.6654 18.8L27.132 16L24.6654 13.1333L24.9987 9.4L21.332 8.6L19.3987 5.4L15.9987 6.86667L12.532 5.4L10.6654 8.6L6.9987 9.4L7.33203 13.1333L4.86536 16L7.33203 18.8L6.9987 22.6L10.6654 23.4L12.5987 26.6ZM14.5987 20.7333L22.132 13.2L20.2654 11.2667L14.5987 16.9333L11.732 14.1333L9.86536 16L14.5987 20.7333Z" fill="white"/>
</g>
</svg>
