<svg width="33" height="32" viewBox="0 0 33 32" fill="none" xmlns="http://www.w3.org/2000/svg">
<path d="M8.33529 26.6654C6.86862 26.6654 5.61306 26.1431 4.56862 25.0987C3.52418 24.0543 3.00195 22.7987 3.00195 21.332V10.6654C3.00195 9.1987 3.52418 7.94314 4.56862 6.8987C5.61306 5.85425 6.86862 5.33203 8.33529 5.33203H24.3353C25.802 5.33203 27.0575 5.85425 28.102 6.8987C29.1464 7.94314 29.6686 9.1987 29.6686 10.6654V21.332C29.6686 22.7987 29.1464 24.0543 28.102 25.0987C27.0575 26.1431 25.802 26.6654 24.3353 26.6654H8.33529ZM8.33529 10.9987H24.3353C24.9797 10.9987 25.5853 11.0987 26.152 11.2987C26.7186 11.4987 27.2242 11.7876 27.6686 12.1654V10.6654C27.6686 9.73203 27.3464 8.94314 26.702 8.2987C26.0575 7.65425 25.2686 7.33203 24.3353 7.33203H8.33529C7.40195 7.33203 6.61306 7.65425 5.96862 8.2987C5.32418 8.94314 5.00195 9.73203 5.00195 10.6654V12.1654C5.4464 11.7876 5.95195 11.4987 6.51862 11.2987C7.08529 11.0987 7.69084 10.9987 8.33529 10.9987ZM5.10195 15.532L21.002 19.3654C21.1575 19.4098 21.3186 19.4154 21.4853 19.382C21.652 19.3487 21.7908 19.2765 21.902 19.1654L27.2353 14.6987C26.9464 14.1876 26.5464 13.7765 26.0353 13.4654C25.5242 13.1543 24.9575 12.9987 24.3353 12.9987H8.33529C7.55751 12.9987 6.86862 13.2376 6.26862 13.7154C5.66862 14.1931 5.27973 14.7987 5.10195 15.532Z" fill="white"/>
</svg>
