<svg width="16" height="16" viewBox="0 0 16 16" fill="none" xmlns="http://www.w3.org/2000/svg">
<rect width="16" height="16" fill="#F5F5F5"/>
<g id="Article Template" clip-path="url(#clip0_0_1)">
<rect width="1440" height="3290" transform="translate(-1178 -140)" fill="white"/>
<g id="Categories">
<g id="Frame 96">
<g id="Frame 93">
<rect x="-8" y="-8" width="32" height="32" rx="16" fill="#EEEEEE"/>
<g id="Social Icons">
<path id="Vector" d="M4.74727 13.6352H2.37227V5.99766H4.74727V13.6352ZM3.55977 4.95703C2.79727 4.95703 2.18164 4.34141 2.18164 3.58203C2.18164 2.82266 2.79727 2.20703 3.55977 2.20703C4.31914 2.20703 4.93477 2.82266 4.93477 3.58203C4.93477 4.33828 4.31914 4.95703 3.55977 4.95703ZM13.6348 13.6352H11.2629V9.92266C11.2629 9.03828 11.2473 7.89766 10.0285 7.89766C8.79414 7.89766 8.60664 8.86328 8.60664 9.86016V13.6352H6.23789V5.99766H8.51289V7.04141H8.54414C8.85976 6.44141 9.63477 5.80703 10.7879 5.80703C13.191 5.80703 13.6348 7.38828 13.6348 9.44453V13.6352Z" fill="#141414"/>
</g>
</g>
</g>
</g>
</g>
<defs>
<clipPath id="clip0_0_1">
<rect width="1440" height="3290" fill="white" transform="translate(-1178 -140)"/>
</clipPath>
</defs>
</svg>
