<svg version="1.1" id="Layer_1" xmlns="http://www.w3.org/2000/svg" xmlns:xlink="http://www.w3.org/1999/xlink" x="0px" y="0px"
	 width="100%" viewBox="0 0 697 338" enable-background="new 0 0 697 338" xml:space="preserve">
<path fill="#FFFFFF" opacity="1.000000" stroke="none" 
	d="
M1.000000,206.000000 
	C1.000000,137.708084 1.000000,69.416161 1.000000,1.000000 
	C173.020874,1.000000 345.041779,1.000000 517.527100,1.364007 
	C512.656860,9.846519 507.328613,17.969280 501.986237,26.082741 
	C482.653046,55.444042 463.315125,84.802238 443.654419,114.013268 
	C440.922852,110.557198 438.515839,107.249451 435.969177,103.616028 
	C428.083130,92.058586 420.336700,80.826813 412.250763,69.102760 
	C386.093781,109.020782 360.466858,148.129837 334.537048,187.701202 
	C335.899811,187.842041 336.662506,188.001938 337.419098,187.976837 
	C338.217072,187.950348 339.014496,187.774170 339.803040,187.617386 
	C353.630402,184.868576 367.365875,185.170715 381.386292,188.917328 
	C385.476837,190.335678 389.183105,191.677261 393.051910,193.350525 
	C403.778168,197.858414 412.152161,205.127472 420.709229,213.303696 
	C420.823212,211.312241 420.985992,209.769424 420.988220,208.226395 
	C421.008179,194.410614 420.992249,180.594803 421.002655,166.778992 
	C421.009277,157.979584 425.688049,150.189667 434.249176,148.632996 
	C442.460602,147.139908 451.164917,147.428650 459.539825,148.184219 
	C463.305969,148.523987 467.593994,151.191528 470.199768,154.098541 
	C473.057251,157.286301 474.248230,161.967911 476.090973,166.462158 
	C476.045135,174.258530 476.073700,181.591293 476.051819,189.395111 
	C476.001404,201.631134 476.001404,213.396133 476.001404,226.039764 
	C478.350800,224.292053 480.171265,223.206894 481.667084,221.781174 
	C490.929749,212.952728 500.038696,203.961777 509.366058,195.203018 
	C514.320007,190.551071 520.089172,187.687546 527.233459,187.940674 
	C534.721313,188.205994 542.228760,188.129913 549.722229,187.961548 
	C556.500488,187.809250 561.895569,190.528732 564.934753,196.320557 
	C567.113892,200.473221 567.823425,205.397049 569.182800,209.957458 
	C597.203003,184.466583 629.742065,179.673660 666.722473,193.149506 
	C636.194824,140.791687 606.267273,89.463127 575.978027,37.514248 
	C569.459961,47.357544 563.305725,56.651478 556.995239,65.628517 
	C554.596741,61.850319 552.354553,58.389011 550.062256,54.568138 
	C539.674744,36.472382 529.337402,18.736185 519.000000,0.999994 
	C578.607544,1.000000 638.215088,1.000000 698.000000,1.000000 
	C698.000000,88.354149 698.000000,175.708420 697.602417,263.379395 
	C696.705078,248.855835 690.996765,235.854279 681.348816,225.065720 
	C663.156677,204.722931 639.288696,198.696442 613.710449,204.474548 
	C576.024414,212.987762 558.177124,244.596329 562.262512,280.609467 
	C564.193176,297.627869 571.849487,312.504730 585.908813,323.542694 
	C594.587463,330.356293 603.997070,335.111755 614.850647,336.995361 
	C618.894592,337.697144 622.949890,338.333710 627.000000,339.000000 
	C538.645752,339.000000 450.291534,339.000000 361.627991,338.596924 
	C384.622375,337.540466 402.355804,327.117157 415.758026,307.531525 
	C410.853668,303.590515 406.266602,300.173218 402.015564,296.379425 
	C399.762360,294.368561 398.430908,294.917297 396.665314,296.792511 
	C393.670807,299.972870 390.657410,303.162537 387.394867,306.058594 
	C375.835907,316.319153 362.132233,319.357941 347.461334,315.852753 
	C326.792328,310.914520 316.258087,297.744629 313.265137,277.878418 
	C310.797516,261.499237 315.344116,246.712326 328.373077,234.943161 
	C342.034637,222.602524 365.555359,220.498154 380.671326,230.392502 
	C386.512604,234.215958 391.457031,239.444702 396.644470,244.213333 
	C398.517853,245.935471 399.764709,246.688705 402.003143,244.630646 
	C404.979370,241.894318 408.169647,239.269485 411.637787,237.223648 
	C415.111298,235.174637 414.925354,232.778427 412.815338,230.437454 
	C408.323853,225.454132 403.973602,220.149277 398.702576,216.099274 
	C382.860809,203.927322 364.745636,200.818802 345.236176,203.963562 
	C323.480011,207.470490 307.318512,218.796768 297.024750,238.210236 
	C288.180389,254.890213 287.721497,272.766693 292.177490,290.499634 
	C298.308868,314.899628 318.193420,332.621979 342.840424,336.993927 
	C346.884949,337.711365 350.946381,338.333710 355.000000,339.000000 
	C305.645782,339.000000 256.291534,339.000000 206.627991,338.596924 
	C215.198059,338.285736 223.758987,336.591125 231.820038,332.946747 
	C247.784790,325.729095 259.416443,314.281738 266.092834,297.821289 
	C271.617340,284.200867 272.505341,270.175537 269.880676,256.032288 
	C266.804626,239.456955 258.116577,226.112839 244.549652,215.895004 
	C227.657501,203.172806 208.560226,200.808624 188.503967,204.134247 
	C176.043900,206.200317 164.841522,211.789948 155.828232,220.772949 
	C136.987457,239.550415 131.180969,262.559570 137.233795,287.906342 
	C143.274353,313.201660 159.460037,329.676605 185.139099,336.002563 
	C190.041367,337.210205 195.043793,338.011322 200.000000,339.000000 
	C134.995041,339.000000 69.990044,339.013641 4.985280,338.899048 
	C3.726136,338.896820 0.688289,340.934601 1.429928,336.506531 
	C6.753642,336.342041 11.643385,336.841064 16.542221,336.957458 
	C22.851837,337.107422 23.986725,335.874603 23.996103,329.635071 
	C24.010792,319.863190 23.999998,310.091248 23.999998,300.000000 
	C31.756516,300.000000 39.049526,300.000000 46.342537,300.000000 
	C53.809566,300.000000 61.276596,300.000000 68.568016,300.000000 
	C72.490967,307.971741 76.257034,315.627960 80.030647,323.280457 
	C80.175278,323.573761 80.418724,323.817322 80.572777,324.107117 
	C87.426544,336.999725 87.425949,337.000031 101.948441,337.000000 
	C103.280869,337.000000 104.613373,337.008636 105.945724,336.998535 
	C112.456467,336.949219 113.470589,335.517975 110.398972,329.923828 
	C103.705437,317.733307 96.822716,305.646698 90.712067,294.755859 
	C96.160423,289.396332 101.887688,285.112854 105.873863,279.575928 
	C115.914719,265.628937 117.213570,250.426910 111.139038,234.182358 
	C104.583839,216.652374 86.613914,205.393021 69.636803,205.089661 
	C48.657719,204.714813 27.666754,204.974411 6.681199,205.043488 
	C4.786437,205.049728 2.893686,205.666672 1.000000,206.000000 
M437.000000,170.667374 
	C437.000000,220.803421 437.000000,270.939453 437.000000,321.075500 
	C437.000000,338.527679 437.000275,338.530914 454.725189,336.996338 
	C458.329926,336.684265 460.177795,335.209564 460.090088,331.075134 
	C459.835785,319.087830 459.839417,307.087555 460.142212,295.102509 
	C460.199371,292.841003 461.560852,290.023468 463.255096,288.506165 
	C467.789795,284.445099 472.832092,280.950806 477.634430,277.260742 
	C486.007751,286.944702 494.404388,296.558472 502.689331,306.267487 
	C509.575775,314.337616 516.475952,322.404541 523.074890,330.707458 
	C525.822449,334.164490 528.805237,336.815887 533.279419,336.952332 
	C539.436646,337.140106 545.609375,337.140442 551.762878,336.899689 
	C553.287109,336.840057 554.762817,335.542236 556.504395,334.695099 
	C555.398010,332.875580 554.805664,331.515015 553.880859,330.440582 
	C545.119446,320.261383 536.350586,310.087616 527.486877,299.997528 
	C517.198242,288.285339 506.755798,276.707367 496.573975,264.903870 
	C495.751404,263.950317 495.708008,260.993286 496.520386,260.172241 
	C502.798004,253.827530 509.312622,247.711395 515.874695,241.655380 
	C527.245605,231.161346 538.741333,220.802216 550.068970,210.262100 
	C551.260254,209.153625 551.675781,207.211456 552.778198,205.000214 
	C542.947388,205.000214 534.297363,204.950790 525.649231,205.058258 
	C524.472900,205.072876 523.047791,205.580612 522.176086,206.353958 
	C515.042114,212.683289 507.908661,219.020294 500.975464,225.567215 
	C491.334259,234.671234 481.916107,244.011200 472.300629,253.142960 
	C468.459137,256.791168 464.346436,260.153748 460.000000,263.959045 
	C460.000000,258.773254 460.000000,254.134262 460.000000,249.495285 
	C460.000000,223.011383 459.934113,196.527145 460.063660,170.043869 
	C460.085724,165.532791 458.457092,163.681320 453.943878,163.952713 
	C450.126678,164.182236 446.278992,164.131058 442.455231,163.964691 
	C438.284546,163.783249 436.265717,165.369751 437.000000,170.667374 
z"/>
<path fill="#1E3799" opacity="1.000000" stroke="none" 
	d="
M476.165375,165.998566 
	C474.248230,161.967911 473.057251,157.286301 470.199768,154.098541 
	C467.593994,151.191528 463.305969,148.523987 459.539825,148.184219 
	C451.164917,147.428650 442.460602,147.139908 434.249176,148.632996 
	C425.688049,150.189667 421.009277,157.979584 421.002655,166.778992 
	C420.992249,180.594803 421.008179,194.410614 420.988220,208.226395 
	C420.985992,209.769424 420.823212,211.312241 420.709229,213.303696 
	C412.152161,205.127472 403.778168,197.858414 393.204254,193.037338 
	C403.779633,176.294983 414.419312,160.232742 424.930695,144.086960 
	C431.381714,134.177963 437.636230,124.141068 443.978973,114.161591 
	C463.315125,84.802238 482.653046,55.444042 501.986237,26.082741 
	C507.328613,17.969280 512.656860,9.846519 517.995789,1.364007 
	C518.000000,1.000000 518.500000,1.000000 518.750000,0.999994 
	C529.337402,18.736185 539.674744,36.472382 549.749695,54.719872 
	C545.525024,61.150749 541.513184,67.037880 537.609375,72.995804 
	C524.509338,92.989151 511.498993,113.041412 498.351410,133.003387 
	C491.061707,144.071365 483.567444,155.004593 476.165375,165.998566 
z"/>
<path fill="#000000" opacity="1.000000" stroke="none" 
	d="
M1.000000,206.468658 
	C2.893686,205.666672 4.786437,205.049728 6.681199,205.043488 
	C27.666754,204.974411 48.657719,204.714813 69.636803,205.089661 
	C86.613914,205.393021 104.583839,216.652374 111.139038,234.182358 
	C117.213570,250.426910 115.914719,265.628937 105.873863,279.575928 
	C101.887688,285.112854 96.160423,289.396332 90.712067,294.755859 
	C96.822716,305.646698 103.705437,317.733307 110.398972,329.923828 
	C113.470589,335.517975 112.456467,336.949219 105.945724,336.998535 
	C104.613373,337.008636 103.280869,337.000000 101.948441,337.000000 
	C87.425949,337.000031 87.426544,336.999725 80.572777,324.107117 
	C80.418724,323.817322 80.175278,323.573761 80.030647,323.280457 
	C76.257034,315.627960 72.490967,307.971741 68.568016,300.000000 
	C61.276596,300.000000 53.809566,300.000000 46.342537,300.000000 
	C39.049526,300.000000 31.756516,300.000000 23.999998,300.000000 
	C23.999998,310.091248 24.010792,319.863190 23.996103,329.635071 
	C23.986725,335.874603 22.851837,337.107422 16.542221,336.957458 
	C11.643385,336.841064 6.753642,336.342041 1.429928,336.006531 
	C1.000000,292.979095 1.000000,249.958206 1.000000,206.468658 
M24.057713,226.731873 
	C24.057713,243.797684 24.057713,260.863495 24.057713,277.999969 
	C39.032696,277.999969 53.353184,278.101349 67.671127,277.954620 
	C74.234970,277.887390 80.341805,275.216766 84.557693,270.628662 
	C92.239731,262.268402 94.071754,251.947632 89.637772,241.406097 
	C85.591476,231.786255 77.888557,226.546616 66.210983,226.122192 
	C52.407471,225.620499 38.570576,226.037506 24.057713,226.731873 
z"/>
<path fill="#000000" opacity="1.000000" stroke="none" 
	d="
M627.428467,339.000000 
	C622.949890,338.333710 618.894592,337.697144 614.850647,336.995361 
	C603.997070,335.111755 594.587463,330.356293 585.908813,323.542694 
	C571.849487,312.504730 564.193176,297.627869 562.262512,280.609467 
	C558.177124,244.596329 576.024414,212.987762 613.710449,204.474548 
	C639.288696,198.696442 663.156677,204.722931 681.348816,225.065720 
	C690.996765,235.854279 696.705078,248.855835 697.602417,263.848083 
	C698.000000,268.356903 698.000000,272.713806 697.605225,277.683594 
	C696.808838,281.030090 696.466919,283.773987 695.996338,286.495667 
	C691.714844,311.257965 669.573975,333.018768 644.652161,337.009125 
	C640.761597,337.632050 636.883728,338.334381 633.000000,339.000000 
	C631.285645,339.000000 629.571289,339.000000 627.428467,339.000000 
M589.944885,248.522522 
	C588.614502,253.113297 587.005249,257.644226 586.004333,262.305756 
	C582.584717,278.232025 586.813354,292.405426 597.767212,304.021057 
	C606.989014,313.800018 619.091797,317.834595 632.588257,316.976807 
	C646.484192,316.093628 657.897827,310.300354 665.968689,298.821198 
	C673.201172,288.534363 675.660095,277.168762 674.129822,264.484741 
	C671.230286,240.452744 654.434937,225.156738 631.469666,224.165009 
	C613.169067,223.374725 599.248169,231.811768 589.944885,248.522522 
z"/>
<path fill="#000000" opacity="1.000000" stroke="none" 
	d="
M200.428467,339.000000 
	C195.043793,338.011322 190.041367,337.210205 185.139099,336.002563 
	C159.460037,329.676605 143.274353,313.201660 137.233795,287.906342 
	C131.180969,262.559570 136.987457,239.550415 155.828232,220.772949 
	C164.841522,211.789948 176.043900,206.200317 188.503967,204.134247 
	C208.560226,200.808624 227.657501,203.172806 244.549652,215.895004 
	C258.116577,226.112839 266.804626,239.456955 269.880676,256.032288 
	C272.505341,270.175537 271.617340,284.200867 266.092834,297.821289 
	C259.416443,314.281738 247.784790,325.729095 231.820038,332.946747 
	C223.758987,336.591125 215.198059,338.285736 206.159332,338.596924 
	C204.285645,339.000000 202.571289,339.000000 200.428467,339.000000 
M237.972198,301.320648 
	C242.475525,294.793427 245.702072,287.887482 247.163254,279.884308 
	C251.559082,255.807343 239.202850,231.089920 213.597534,225.280289 
	C198.131927,221.771271 183.942383,225.233383 172.671799,236.121292 
	C158.226166,250.076401 155.007141,267.503632 160.991409,286.500519 
	C166.692276,304.597748 179.732483,314.524658 198.076889,316.839020 
	C213.513000,318.786438 226.878189,313.446289 237.972198,301.320648 
z"/>
<path fill="#000000" opacity="1.000000" stroke="none" 
	d="
M355.428467,339.000000 
	C350.946381,338.333710 346.884949,337.711365 342.840424,336.993927 
	C318.193420,332.621979 298.308868,314.899628 292.177490,290.499634 
	C287.721497,272.766693 288.180389,254.890213 297.024750,238.210236 
	C307.318512,218.796768 323.480011,207.470490 345.236176,203.963562 
	C364.745636,200.818802 382.860809,203.927322 398.702576,216.099274 
	C403.973602,220.149277 408.323853,225.454132 412.815338,230.437454 
	C414.925354,232.778427 415.111298,235.174637 411.637787,237.223648 
	C408.169647,239.269485 404.979370,241.894318 402.003143,244.630646 
	C399.764709,246.688705 398.517853,245.935471 396.644470,244.213333 
	C391.457031,239.444702 386.512604,234.215958 380.671326,230.392502 
	C365.555359,220.498154 342.034637,222.602524 328.373077,234.943161 
	C315.344116,246.712326 310.797516,261.499237 313.265137,277.878418 
	C316.258087,297.744629 326.792328,310.914520 347.461334,315.852753 
	C362.132233,319.357941 375.835907,316.319153 387.394867,306.058594 
	C390.657410,303.162537 393.670807,299.972870 396.665314,296.792511 
	C398.430908,294.917297 399.762360,294.368561 402.015564,296.379425 
	C406.266602,300.173218 410.853668,303.590515 415.758026,307.531525 
	C402.355804,327.117157 384.622375,337.540466 361.159302,338.596924 
	C359.285645,339.000000 357.571289,339.000000 355.428467,339.000000 
z"/>
<path fill="#FFFFFF" opacity="1.000000" stroke="none" 
	d="
M633.468628,339.000000 
	C636.883728,338.334381 640.761597,337.632050 644.652161,337.009125 
	C669.573975,333.018768 691.714844,311.257965 695.996338,286.495667 
	C696.466919,283.773987 696.808838,281.030090 697.605225,278.148254 
	C698.000000,298.262482 698.000000,318.524963 698.000000,339.000000 
	C676.646240,339.000000 655.291809,339.000000 633.468628,339.000000 
z"/>
<path fill="#82CCDD" opacity="1.000000" stroke="none" 
	d="
M557.151489,65.945412 
	C563.305725,56.651478 569.459961,47.357544 575.978027,37.514248 
	C606.267273,89.463127 636.194824,140.791687 666.722473,193.149506 
	C629.742065,179.673660 597.203003,184.466583 569.182800,209.957458 
	C567.823425,205.397049 567.113892,200.473221 564.934753,196.320557 
	C561.895569,190.528732 556.500488,187.809250 549.722229,187.961548 
	C542.228760,188.129913 534.721313,188.205994 527.233459,187.940674 
	C520.089172,187.687546 514.320007,190.551071 509.366058,195.203018 
	C500.038696,203.961777 490.929749,212.952728 481.667084,221.781174 
	C480.171265,223.206894 478.350800,224.292053 476.001404,226.039764 
	C476.001404,213.396133 476.001404,201.631134 476.374542,189.294403 
	C496.861298,158.075302 516.984802,127.434433 537.082947,96.776894 
	C543.805908,86.521683 550.463867,76.223801 557.151489,65.945412 
z"/>
<path fill="#000000" opacity="1.000000" stroke="none" 
	d="
M437.000000,170.189026 
	C436.265717,165.369751 438.284546,163.783249 442.455231,163.964691 
	C446.278992,164.131058 450.126678,164.182236 453.943878,163.952713 
	C458.457092,163.681320 460.085724,165.532791 460.063660,170.043869 
	C459.934113,196.527145 460.000000,223.011383 460.000000,249.495285 
	C460.000000,254.134262 460.000000,258.773254 460.000000,263.959045 
	C464.346436,260.153748 468.459137,256.791168 472.300629,253.142960 
	C481.916107,244.011200 491.334259,234.671234 500.975464,225.567215 
	C507.908661,219.020294 515.042114,212.683289 522.176086,206.353958 
	C523.047791,205.580612 524.472900,205.072876 525.649231,205.058258 
	C534.297363,204.950790 542.947388,205.000214 552.778198,205.000214 
	C551.675781,207.211456 551.260254,209.153625 550.068970,210.262100 
	C538.741333,220.802216 527.245605,231.161346 515.874695,241.655380 
	C509.312622,247.711395 502.798004,253.827530 496.520386,260.172241 
	C495.708008,260.993286 495.751404,263.950317 496.573975,264.903870 
	C506.755798,276.707367 517.198242,288.285339 527.486877,299.997528 
	C536.350586,310.087616 545.119446,320.261383 553.880859,330.440582 
	C554.805664,331.515015 555.398010,332.875580 556.504395,334.695099 
	C554.762817,335.542236 553.287109,336.840057 551.762878,336.899689 
	C545.609375,337.140442 539.436646,337.140106 533.279419,336.952332 
	C528.805237,336.815887 525.822449,334.164490 523.074890,330.707458 
	C516.475952,322.404541 509.575775,314.337616 502.689331,306.267487 
	C494.404388,296.558472 486.007751,286.944702 477.634430,277.260742 
	C472.832092,280.950806 467.789795,284.445099 463.255096,288.506165 
	C461.560852,290.023468 460.199371,292.841003 460.142212,295.102509 
	C459.839417,307.087555 459.835785,319.087830 460.090088,331.075134 
	C460.177795,335.209564 458.329926,336.684265 454.725189,336.996338 
	C437.000275,338.530914 437.000000,338.527679 437.000000,321.075500 
	C437.000000,270.939453 437.000000,220.803421 437.000000,170.189026 
z"/>
<path fill="#000E1E" opacity="1.000000" stroke="none" 
	d="
M381.002014,188.840591 
	C367.365875,185.170715 353.630402,184.868576 339.803040,187.617386 
	C339.014496,187.774170 338.217072,187.950348 337.419098,187.976837 
	C336.662506,188.001938 335.899811,187.842041 334.537048,187.701202 
	C360.466858,148.129837 386.093781,109.020782 412.250763,69.102760 
	C420.336700,80.826813 428.083130,92.058586 435.657257,103.767334 
	C435.129913,104.590103 434.696899,104.884605 434.431000,105.288994 
	C419.773834,127.579018 405.066589,149.836624 390.532776,172.206909 
	C387.056763,177.557144 384.163361,183.285919 381.002014,188.840591 
z"/>
<path fill="#0E2977" opacity="1.000000" stroke="none" 
	d="
M556.995239,65.628517 
	C550.463867,76.223801 543.805908,86.521683 537.082947,96.776894 
	C516.984802,127.434433 496.861298,158.075302 476.424988,188.823364 
	C476.073700,181.591293 476.045135,174.258530 476.090973,166.462158 
	C483.567444,155.004593 491.061707,144.071365 498.351410,133.003387 
	C511.498993,113.041412 524.509338,92.989151 537.609375,72.995804 
	C541.513184,67.037880 545.525024,61.150749 549.799866,55.079437 
	C552.354553,58.389011 554.596741,61.850319 556.995239,65.628517 
z"/>
<path fill="#000001" opacity="1.000000" stroke="none" 
	d="
M381.386292,188.917328 
	C384.163361,183.285919 387.056763,177.557144 390.532776,172.206909 
	C405.066589,149.836624 419.773834,127.579018 434.431000,105.288994 
	C434.696899,104.884605 435.129913,104.590103 435.796875,104.093010 
	C438.515839,107.249451 440.922852,110.557198 443.654419,114.013275 
	C437.636230,124.141068 431.381714,134.177963 424.930695,144.086960 
	C414.419312,160.232742 403.779633,176.294983 393.041718,192.705658 
	C389.183105,191.677261 385.476837,190.335678 381.386292,188.917328 
z"/>
<path fill="#FFFFFF" opacity="1.000000" stroke="none" 
	d="
M24.402931,226.394073 
	C38.570576,226.037506 52.407471,225.620499 66.210983,226.122192 
	C77.888557,226.546616 85.591476,231.786255 89.637772,241.406097 
	C94.071754,251.947632 92.239731,262.268402 84.557693,270.628662 
	C80.341805,275.216766 74.234970,277.887390 67.671127,277.954620 
	C53.353184,278.101349 39.032696,277.999969 24.057713,277.999969 
	C24.057713,260.863495 24.057713,243.797684 24.402931,226.394073 
z"/>
<path fill="#FFFFFF" opacity="1.000000" stroke="none" 
	d="
M589.984619,248.134277 
	C599.248169,231.811768 613.169067,223.374725 631.469666,224.165009 
	C654.434937,225.156738 671.230286,240.452744 674.129822,264.484741 
	C675.660095,277.168762 673.201172,288.534363 665.968689,298.821198 
	C657.897827,310.300354 646.484192,316.093628 632.588257,316.976807 
	C619.091797,317.834595 606.989014,313.800018 597.767212,304.021057 
	C586.813354,292.405426 582.584717,278.232025 586.004333,262.305756 
	C587.005249,257.644226 588.614502,253.113297 589.984619,248.134277 
z"/>
<path fill="#FFFFFF" opacity="1.000000" stroke="none" 
	d="
M237.776306,301.629272 
	C226.878189,313.446289 213.513000,318.786438 198.076889,316.839020 
	C179.732483,314.524658 166.692276,304.597748 160.991409,286.500519 
	C155.007141,267.503632 158.226166,250.076401 172.671799,236.121292 
	C183.942383,225.233383 198.131927,221.771271 213.597534,225.280289 
	C239.202850,231.089920 251.559082,255.807343 247.163254,279.884308 
	C245.702072,287.887482 242.475525,294.793427 237.776306,301.629272 
z"/>
</svg>