<svg width="41" height="40" viewBox="0 0 41 40" fill="none" xmlns="http://www.w3.org/2000/svg">
<rect x="0.25" width="40" height="40" rx="20" fill="#E6E6E6"/>
<path d="M19.6158 28.3636H20.9709L20.9773 26.8999C23.7195 26.7017 25.2919 25.1932 25.2983 23.0518C25.2919 20.7827 23.419 19.7472 21.4503 19.2805L21.0284 19.1719L21.054 15.522C22.0767 15.701 22.7351 16.3146 22.8374 17.2351H25.1193C25.081 15.2024 23.483 13.7195 21.0668 13.4893L21.0732 12H19.718L19.7116 13.4893C17.3146 13.7322 15.5888 15.2024 15.5952 17.3182C15.5952 19.1974 16.9311 20.2777 19.0852 20.8338L19.6605 20.9808L19.6349 24.848C18.4908 24.669 17.6662 24.017 17.5831 22.8601H15.25C15.3395 25.2571 16.9886 26.6825 19.6222 26.8999L19.6158 28.3636ZM20.9901 24.848L21.0156 21.3388C22.179 21.6776 22.9205 22.125 22.9268 23.0327C22.9205 23.9787 22.1598 24.6563 20.9901 24.848ZM19.6733 18.8267C18.7912 18.5455 17.9858 18.0788 17.9986 17.1712C18.005 16.3466 18.625 15.7074 19.6989 15.522L19.6733 18.8267Z" fill="#010304"/>
</svg>
